G04 #@! TF.FileFunction,Legend,Bot*
%FSLAX46Y46*%
G04 Gerber Fmt 4.6, Leading zero omitted, Abs format (unit mm)*
G04 Created by KiCad (PCBNEW 4.0.1-stable) date 2019/03/03 15:39:44*
%MOMM*%
G01*
G04 APERTURE LIST*
%ADD10C,0.100000*%
%ADD11C,0.200000*%
%ADD12C,0.300000*%
%ADD13C,0.120000*%
%ADD14C,0.150000*%
G04 APERTURE END LIST*
D10*
D11*
X157873095Y-115953573D02*
X158673095Y-115953573D01*
X157873095Y-115610716D02*
X158292143Y-115610716D01*
X158368333Y-115648811D01*
X158406429Y-115725001D01*
X158406429Y-115839287D01*
X158368333Y-115915478D01*
X158330238Y-115953573D01*
X158406429Y-115344049D02*
X158406429Y-115039287D01*
X158673095Y-115229763D02*
X157987381Y-115229763D01*
X157911190Y-115191668D01*
X157873095Y-115115477D01*
X157873095Y-115039287D01*
X158406429Y-114886906D02*
X158406429Y-114582144D01*
X158673095Y-114772620D02*
X157987381Y-114772620D01*
X157911190Y-114734525D01*
X157873095Y-114658334D01*
X157873095Y-114582144D01*
X158406429Y-114315477D02*
X157606429Y-114315477D01*
X158368333Y-114315477D02*
X158406429Y-114239286D01*
X158406429Y-114086905D01*
X158368333Y-114010715D01*
X158330238Y-113972620D01*
X158254048Y-113934524D01*
X158025476Y-113934524D01*
X157949286Y-113972620D01*
X157911190Y-114010715D01*
X157873095Y-114086905D01*
X157873095Y-114239286D01*
X157911190Y-114315477D01*
X157911190Y-113629762D02*
X157873095Y-113553572D01*
X157873095Y-113401191D01*
X157911190Y-113325000D01*
X157987381Y-113286905D01*
X158025476Y-113286905D01*
X158101667Y-113325000D01*
X158139762Y-113401191D01*
X158139762Y-113515476D01*
X158177857Y-113591667D01*
X158254048Y-113629762D01*
X158292143Y-113629762D01*
X158368333Y-113591667D01*
X158406429Y-113515476D01*
X158406429Y-113401191D01*
X158368333Y-113325000D01*
X157949286Y-112944048D02*
X157911190Y-112905953D01*
X157873095Y-112944048D01*
X157911190Y-112982143D01*
X157949286Y-112944048D01*
X157873095Y-112944048D01*
X158368333Y-112944048D02*
X158330238Y-112905953D01*
X158292143Y-112944048D01*
X158330238Y-112982143D01*
X158368333Y-112944048D01*
X158292143Y-112944048D01*
X158711190Y-111991667D02*
X157682619Y-112677382D01*
X158711190Y-111153572D02*
X157682619Y-111839287D01*
X158406429Y-110544049D02*
X157758810Y-110544049D01*
X157682619Y-110582144D01*
X157644524Y-110620239D01*
X157606429Y-110696430D01*
X157606429Y-110810715D01*
X157644524Y-110886906D01*
X157911190Y-110544049D02*
X157873095Y-110620239D01*
X157873095Y-110772620D01*
X157911190Y-110848811D01*
X157949286Y-110886906D01*
X158025476Y-110925001D01*
X158254048Y-110925001D01*
X158330238Y-110886906D01*
X158368333Y-110848811D01*
X158406429Y-110772620D01*
X158406429Y-110620239D01*
X158368333Y-110544049D01*
X157873095Y-110163096D02*
X158406429Y-110163096D01*
X158673095Y-110163096D02*
X158635000Y-110201191D01*
X158596905Y-110163096D01*
X158635000Y-110125001D01*
X158673095Y-110163096D01*
X158596905Y-110163096D01*
X158406429Y-109896430D02*
X158406429Y-109591668D01*
X158673095Y-109782144D02*
X157987381Y-109782144D01*
X157911190Y-109744049D01*
X157873095Y-109667858D01*
X157873095Y-109591668D01*
X157873095Y-109325001D02*
X158673095Y-109325001D01*
X157873095Y-108982144D02*
X158292143Y-108982144D01*
X158368333Y-109020239D01*
X158406429Y-109096429D01*
X158406429Y-109210715D01*
X158368333Y-109286906D01*
X158330238Y-109325001D01*
X158406429Y-108258334D02*
X157873095Y-108258334D01*
X158406429Y-108601191D02*
X157987381Y-108601191D01*
X157911190Y-108563096D01*
X157873095Y-108486905D01*
X157873095Y-108372619D01*
X157911190Y-108296429D01*
X157949286Y-108258334D01*
X157873095Y-107877381D02*
X158673095Y-107877381D01*
X158368333Y-107877381D02*
X158406429Y-107801190D01*
X158406429Y-107648809D01*
X158368333Y-107572619D01*
X158330238Y-107534524D01*
X158254048Y-107496428D01*
X158025476Y-107496428D01*
X157949286Y-107534524D01*
X157911190Y-107572619D01*
X157873095Y-107648809D01*
X157873095Y-107801190D01*
X157911190Y-107877381D01*
X157949286Y-107153571D02*
X157911190Y-107115476D01*
X157873095Y-107153571D01*
X157911190Y-107191666D01*
X157949286Y-107153571D01*
X157873095Y-107153571D01*
X157911190Y-106429762D02*
X157873095Y-106505952D01*
X157873095Y-106658333D01*
X157911190Y-106734524D01*
X157949286Y-106772619D01*
X158025476Y-106810714D01*
X158254048Y-106810714D01*
X158330238Y-106772619D01*
X158368333Y-106734524D01*
X158406429Y-106658333D01*
X158406429Y-106505952D01*
X158368333Y-106429762D01*
X157873095Y-105972619D02*
X157911190Y-106048810D01*
X157949286Y-106086905D01*
X158025476Y-106125000D01*
X158254048Y-106125000D01*
X158330238Y-106086905D01*
X158368333Y-106048810D01*
X158406429Y-105972619D01*
X158406429Y-105858333D01*
X158368333Y-105782143D01*
X158330238Y-105744048D01*
X158254048Y-105705952D01*
X158025476Y-105705952D01*
X157949286Y-105744048D01*
X157911190Y-105782143D01*
X157873095Y-105858333D01*
X157873095Y-105972619D01*
X157873095Y-105363095D02*
X158406429Y-105363095D01*
X158330238Y-105363095D02*
X158368333Y-105325000D01*
X158406429Y-105248809D01*
X158406429Y-105134523D01*
X158368333Y-105058333D01*
X158292143Y-105020238D01*
X157873095Y-105020238D01*
X158292143Y-105020238D02*
X158368333Y-104982142D01*
X158406429Y-104905952D01*
X158406429Y-104791666D01*
X158368333Y-104715476D01*
X158292143Y-104677381D01*
X157873095Y-104677381D01*
X158711190Y-103724999D02*
X157682619Y-104410714D01*
X157873095Y-103458333D02*
X158673095Y-103458333D01*
X158101667Y-103191666D01*
X158673095Y-102924999D01*
X157873095Y-102924999D01*
X158406429Y-102620237D02*
X157873095Y-102429761D01*
X158406429Y-102239285D02*
X157873095Y-102429761D01*
X157682619Y-102505952D01*
X157644524Y-102544047D01*
X157606429Y-102620237D01*
X158406429Y-101934523D02*
X157606429Y-101934523D01*
X158368333Y-101934523D02*
X158406429Y-101858332D01*
X158406429Y-101705951D01*
X158368333Y-101629761D01*
X158330238Y-101591666D01*
X158254048Y-101553570D01*
X158025476Y-101553570D01*
X157949286Y-101591666D01*
X157911190Y-101629761D01*
X157873095Y-101705951D01*
X157873095Y-101858332D01*
X157911190Y-101934523D01*
X157873095Y-100867856D02*
X158292143Y-100867856D01*
X158368333Y-100905951D01*
X158406429Y-100982141D01*
X158406429Y-101134522D01*
X158368333Y-101210713D01*
X157911190Y-100867856D02*
X157873095Y-100944046D01*
X157873095Y-101134522D01*
X157911190Y-101210713D01*
X157987381Y-101248808D01*
X158063571Y-101248808D01*
X158139762Y-101210713D01*
X158177857Y-101134522D01*
X158177857Y-100944046D01*
X158215952Y-100867856D01*
X157911190Y-100144046D02*
X157873095Y-100220236D01*
X157873095Y-100372617D01*
X157911190Y-100448808D01*
X157949286Y-100486903D01*
X158025476Y-100524998D01*
X158254048Y-100524998D01*
X158330238Y-100486903D01*
X158368333Y-100448808D01*
X158406429Y-100372617D01*
X158406429Y-100220236D01*
X158368333Y-100144046D01*
X157911190Y-99496427D02*
X157873095Y-99572617D01*
X157873095Y-99724998D01*
X157911190Y-99801189D01*
X157987381Y-99839284D01*
X158292143Y-99839284D01*
X158368333Y-99801189D01*
X158406429Y-99724998D01*
X158406429Y-99572617D01*
X158368333Y-99496427D01*
X158292143Y-99458332D01*
X158215952Y-99458332D01*
X158139762Y-99839284D01*
X158292143Y-99115475D02*
X158292143Y-98848808D01*
X157873095Y-98734522D02*
X157873095Y-99115475D01*
X158673095Y-99115475D01*
X158673095Y-98734522D01*
X158406429Y-98391665D02*
X157873095Y-98391665D01*
X158330238Y-98391665D02*
X158368333Y-98353570D01*
X158406429Y-98277379D01*
X158406429Y-98163093D01*
X158368333Y-98086903D01*
X158292143Y-98048808D01*
X157873095Y-98048808D01*
X158406429Y-97324998D02*
X157758810Y-97324998D01*
X157682619Y-97363093D01*
X157644524Y-97401188D01*
X157606429Y-97477379D01*
X157606429Y-97591664D01*
X157644524Y-97667855D01*
X157911190Y-97324998D02*
X157873095Y-97401188D01*
X157873095Y-97553569D01*
X157911190Y-97629760D01*
X157949286Y-97667855D01*
X158025476Y-97705950D01*
X158254048Y-97705950D01*
X158330238Y-97667855D01*
X158368333Y-97629760D01*
X158406429Y-97553569D01*
X158406429Y-97401188D01*
X158368333Y-97324998D01*
X157873095Y-96944045D02*
X158406429Y-96944045D01*
X158673095Y-96944045D02*
X158635000Y-96982140D01*
X158596905Y-96944045D01*
X158635000Y-96905950D01*
X158673095Y-96944045D01*
X158596905Y-96944045D01*
X158406429Y-96563093D02*
X157873095Y-96563093D01*
X158330238Y-96563093D02*
X158368333Y-96524998D01*
X158406429Y-96448807D01*
X158406429Y-96334521D01*
X158368333Y-96258331D01*
X158292143Y-96220236D01*
X157873095Y-96220236D01*
X157911190Y-95534521D02*
X157873095Y-95610711D01*
X157873095Y-95763092D01*
X157911190Y-95839283D01*
X157987381Y-95877378D01*
X158292143Y-95877378D01*
X158368333Y-95839283D01*
X158406429Y-95763092D01*
X158406429Y-95610711D01*
X158368333Y-95534521D01*
X158292143Y-95496426D01*
X158215952Y-95496426D01*
X158139762Y-95877378D01*
X158711190Y-94582140D02*
X157682619Y-95267855D01*
X156553095Y-111801192D02*
X156972143Y-111801192D01*
X157048333Y-111839287D01*
X157086429Y-111915477D01*
X157086429Y-112067858D01*
X157048333Y-112144049D01*
X156591190Y-111801192D02*
X156553095Y-111877382D01*
X156553095Y-112067858D01*
X156591190Y-112144049D01*
X156667381Y-112182144D01*
X156743571Y-112182144D01*
X156819762Y-112144049D01*
X156857857Y-112067858D01*
X156857857Y-111877382D01*
X156895952Y-111801192D01*
X156591190Y-111115477D02*
X156553095Y-111191667D01*
X156553095Y-111344048D01*
X156591190Y-111420239D01*
X156667381Y-111458334D01*
X156972143Y-111458334D01*
X157048333Y-111420239D01*
X157086429Y-111344048D01*
X157086429Y-111191667D01*
X157048333Y-111115477D01*
X156972143Y-111077382D01*
X156895952Y-111077382D01*
X156819762Y-111458334D01*
X156857857Y-110734525D02*
X156857857Y-110125001D01*
X157086429Y-109858335D02*
X157086429Y-109553573D01*
X157353095Y-109744049D02*
X156667381Y-109744049D01*
X156591190Y-109705954D01*
X156553095Y-109629763D01*
X156553095Y-109553573D01*
X157086429Y-109363096D02*
X156553095Y-109172620D01*
X157086429Y-108982144D02*
X156553095Y-109172620D01*
X156362619Y-109248811D01*
X156324524Y-109286906D01*
X156286429Y-109363096D01*
X156553095Y-108677382D02*
X157353095Y-108677382D01*
X157048333Y-108677382D02*
X157086429Y-108601191D01*
X157086429Y-108448810D01*
X157048333Y-108372620D01*
X157010238Y-108334525D01*
X156934048Y-108296429D01*
X156705476Y-108296429D01*
X156629286Y-108334525D01*
X156591190Y-108372620D01*
X156553095Y-108448810D01*
X156553095Y-108601191D01*
X156591190Y-108677382D01*
X156553095Y-107839286D02*
X156591190Y-107915477D01*
X156667381Y-107953572D01*
X157353095Y-107953572D01*
X156591190Y-107229762D02*
X156553095Y-107305952D01*
X156553095Y-107458333D01*
X156591190Y-107534524D01*
X156667381Y-107572619D01*
X156972143Y-107572619D01*
X157048333Y-107534524D01*
X157086429Y-107458333D01*
X157086429Y-107305952D01*
X157048333Y-107229762D01*
X156972143Y-107191667D01*
X156895952Y-107191667D01*
X156819762Y-107572619D01*
X156553095Y-106429762D02*
X156553095Y-106886905D01*
X156553095Y-106658334D02*
X157353095Y-106658334D01*
X157238810Y-106734524D01*
X157162619Y-106810715D01*
X157124524Y-106886905D01*
X157353095Y-105744048D02*
X157353095Y-105896429D01*
X157315000Y-105972619D01*
X157276905Y-106010714D01*
X157162619Y-106086905D01*
X157010238Y-106125000D01*
X156705476Y-106125000D01*
X156629286Y-106086905D01*
X156591190Y-106048810D01*
X156553095Y-105972619D01*
X156553095Y-105820238D01*
X156591190Y-105744048D01*
X156629286Y-105705952D01*
X156705476Y-105667857D01*
X156895952Y-105667857D01*
X156972143Y-105705952D01*
X157010238Y-105744048D01*
X157048333Y-105820238D01*
X157048333Y-105972619D01*
X157010238Y-106048810D01*
X156972143Y-106086905D01*
X156895952Y-106125000D01*
X156857857Y-105325000D02*
X156857857Y-104715476D01*
X156553095Y-104334524D02*
X157353095Y-104334524D01*
X157048333Y-104334524D02*
X157086429Y-104258333D01*
X157086429Y-104105952D01*
X157048333Y-104029762D01*
X157010238Y-103991667D01*
X156934048Y-103953571D01*
X156705476Y-103953571D01*
X156629286Y-103991667D01*
X156591190Y-104029762D01*
X156553095Y-104105952D01*
X156553095Y-104258333D01*
X156591190Y-104334524D01*
X156591190Y-103305952D02*
X156553095Y-103382142D01*
X156553095Y-103534523D01*
X156591190Y-103610714D01*
X156667381Y-103648809D01*
X156972143Y-103648809D01*
X157048333Y-103610714D01*
X157086429Y-103534523D01*
X157086429Y-103382142D01*
X157048333Y-103305952D01*
X156972143Y-103267857D01*
X156895952Y-103267857D01*
X156819762Y-103648809D01*
X156553095Y-102582143D02*
X156972143Y-102582143D01*
X157048333Y-102620238D01*
X157086429Y-102696428D01*
X157086429Y-102848809D01*
X157048333Y-102925000D01*
X156591190Y-102582143D02*
X156553095Y-102658333D01*
X156553095Y-102848809D01*
X156591190Y-102925000D01*
X156667381Y-102963095D01*
X156743571Y-102963095D01*
X156819762Y-102925000D01*
X156857857Y-102848809D01*
X156857857Y-102658333D01*
X156895952Y-102582143D01*
X156591190Y-101858333D02*
X156553095Y-101934523D01*
X156553095Y-102086904D01*
X156591190Y-102163095D01*
X156629286Y-102201190D01*
X156705476Y-102239285D01*
X156934048Y-102239285D01*
X157010238Y-102201190D01*
X157048333Y-102163095D01*
X157086429Y-102086904D01*
X157086429Y-101934523D01*
X157048333Y-101858333D01*
X156553095Y-101401190D02*
X156591190Y-101477381D01*
X156629286Y-101515476D01*
X156705476Y-101553571D01*
X156934048Y-101553571D01*
X157010238Y-101515476D01*
X157048333Y-101477381D01*
X157086429Y-101401190D01*
X157086429Y-101286904D01*
X157048333Y-101210714D01*
X157010238Y-101172619D01*
X156934048Y-101134523D01*
X156705476Y-101134523D01*
X156629286Y-101172619D01*
X156591190Y-101210714D01*
X156553095Y-101286904D01*
X156553095Y-101401190D01*
X157086429Y-100791666D02*
X156553095Y-100791666D01*
X157010238Y-100791666D02*
X157048333Y-100753571D01*
X157086429Y-100677380D01*
X157086429Y-100563094D01*
X157048333Y-100486904D01*
X156972143Y-100448809D01*
X156553095Y-100448809D01*
X156629286Y-100067856D02*
X156591190Y-100029761D01*
X156553095Y-100067856D01*
X156591190Y-100105951D01*
X156629286Y-100067856D01*
X156553095Y-100067856D01*
X157086429Y-99344047D02*
X156438810Y-99344047D01*
X156362619Y-99382142D01*
X156324524Y-99420237D01*
X156286429Y-99496428D01*
X156286429Y-99610713D01*
X156324524Y-99686904D01*
X156591190Y-99344047D02*
X156553095Y-99420237D01*
X156553095Y-99572618D01*
X156591190Y-99648809D01*
X156629286Y-99686904D01*
X156705476Y-99724999D01*
X156934048Y-99724999D01*
X157010238Y-99686904D01*
X157048333Y-99648809D01*
X157086429Y-99572618D01*
X157086429Y-99420237D01*
X157048333Y-99344047D01*
X156553095Y-98963094D02*
X157086429Y-98963094D01*
X157353095Y-98963094D02*
X157315000Y-99001189D01*
X157276905Y-98963094D01*
X157315000Y-98924999D01*
X157353095Y-98963094D01*
X157276905Y-98963094D01*
X157086429Y-98696428D02*
X157086429Y-98391666D01*
X157353095Y-98582142D02*
X156667381Y-98582142D01*
X156591190Y-98544047D01*
X156553095Y-98467856D01*
X156553095Y-98391666D01*
D12*
X165321429Y-108553571D02*
X166821429Y-108553571D01*
X166821429Y-108196428D01*
X166750000Y-107982143D01*
X166607143Y-107839285D01*
X166464286Y-107767857D01*
X166178571Y-107696428D01*
X165964286Y-107696428D01*
X165678571Y-107767857D01*
X165535714Y-107839285D01*
X165392857Y-107982143D01*
X165321429Y-108196428D01*
X165321429Y-108553571D01*
X165392857Y-106482143D02*
X165321429Y-106625000D01*
X165321429Y-106910714D01*
X165392857Y-107053571D01*
X165535714Y-107125000D01*
X166107143Y-107125000D01*
X166250000Y-107053571D01*
X166321429Y-106910714D01*
X166321429Y-106625000D01*
X166250000Y-106482143D01*
X166107143Y-106410714D01*
X165964286Y-106410714D01*
X165821429Y-107125000D01*
X166321429Y-105767857D02*
X164821429Y-105767857D01*
X166250000Y-105767857D02*
X166321429Y-105625000D01*
X166321429Y-105339286D01*
X166250000Y-105196429D01*
X166178571Y-105125000D01*
X166035714Y-105053571D01*
X165607143Y-105053571D01*
X165464286Y-105125000D01*
X165392857Y-105196429D01*
X165321429Y-105339286D01*
X165321429Y-105625000D01*
X165392857Y-105767857D01*
X165321429Y-104196428D02*
X165392857Y-104339286D01*
X165535714Y-104410714D01*
X166821429Y-104410714D01*
X165321429Y-103410714D02*
X165392857Y-103553572D01*
X165464286Y-103625000D01*
X165607143Y-103696429D01*
X166035714Y-103696429D01*
X166178571Y-103625000D01*
X166250000Y-103553572D01*
X166321429Y-103410714D01*
X166321429Y-103196429D01*
X166250000Y-103053572D01*
X166178571Y-102982143D01*
X166035714Y-102910714D01*
X165607143Y-102910714D01*
X165464286Y-102982143D01*
X165392857Y-103053572D01*
X165321429Y-103196429D01*
X165321429Y-103410714D01*
X166321429Y-102410714D02*
X165321429Y-102053571D01*
X166321429Y-101696429D02*
X165321429Y-102053571D01*
X164964286Y-102196429D01*
X164892857Y-102267857D01*
X164821429Y-102410714D01*
X163707143Y-116732142D02*
X163635714Y-116517856D01*
X163564286Y-116446428D01*
X163421429Y-116374999D01*
X163207143Y-116374999D01*
X163064286Y-116446428D01*
X162992857Y-116517856D01*
X162921429Y-116660714D01*
X162921429Y-117232142D01*
X164421429Y-117232142D01*
X164421429Y-116732142D01*
X164350000Y-116589285D01*
X164278571Y-116517856D01*
X164135714Y-116446428D01*
X163992857Y-116446428D01*
X163850000Y-116517856D01*
X163778571Y-116589285D01*
X163707143Y-116732142D01*
X163707143Y-117232142D01*
X163921429Y-115089285D02*
X162921429Y-115089285D01*
X163921429Y-115732142D02*
X163135714Y-115732142D01*
X162992857Y-115660714D01*
X162921429Y-115517856D01*
X162921429Y-115303571D01*
X162992857Y-115160714D01*
X163064286Y-115089285D01*
X163921429Y-114589285D02*
X163921429Y-114017856D01*
X164421429Y-114374999D02*
X163135714Y-114374999D01*
X162992857Y-114303571D01*
X162921429Y-114160713D01*
X162921429Y-114017856D01*
X163921429Y-113732142D02*
X163921429Y-113160713D01*
X164421429Y-113517856D02*
X163135714Y-113517856D01*
X162992857Y-113446428D01*
X162921429Y-113303570D01*
X162921429Y-113160713D01*
X162921429Y-112446427D02*
X162992857Y-112589285D01*
X163064286Y-112660713D01*
X163207143Y-112732142D01*
X163635714Y-112732142D01*
X163778571Y-112660713D01*
X163850000Y-112589285D01*
X163921429Y-112446427D01*
X163921429Y-112232142D01*
X163850000Y-112089285D01*
X163778571Y-112017856D01*
X163635714Y-111946427D01*
X163207143Y-111946427D01*
X163064286Y-112017856D01*
X162992857Y-112089285D01*
X162921429Y-112232142D01*
X162921429Y-112446427D01*
X163921429Y-111303570D02*
X162921429Y-111303570D01*
X163778571Y-111303570D02*
X163850000Y-111232142D01*
X163921429Y-111089284D01*
X163921429Y-110874999D01*
X163850000Y-110732142D01*
X163707143Y-110660713D01*
X162921429Y-110660713D01*
X163707143Y-108303570D02*
X163635714Y-108089284D01*
X163564286Y-108017856D01*
X163421429Y-107946427D01*
X163207143Y-107946427D01*
X163064286Y-108017856D01*
X162992857Y-108089284D01*
X162921429Y-108232142D01*
X162921429Y-108803570D01*
X164421429Y-108803570D01*
X164421429Y-108303570D01*
X164350000Y-108160713D01*
X164278571Y-108089284D01*
X164135714Y-108017856D01*
X163992857Y-108017856D01*
X163850000Y-108089284D01*
X163778571Y-108160713D01*
X163707143Y-108303570D01*
X163707143Y-108803570D01*
X162921429Y-106660713D02*
X163707143Y-106660713D01*
X163850000Y-106732142D01*
X163921429Y-106874999D01*
X163921429Y-107160713D01*
X163850000Y-107303570D01*
X162992857Y-106660713D02*
X162921429Y-106803570D01*
X162921429Y-107160713D01*
X162992857Y-107303570D01*
X163135714Y-107374999D01*
X163278571Y-107374999D01*
X163421429Y-107303570D01*
X163492857Y-107160713D01*
X163492857Y-106803570D01*
X163564286Y-106660713D01*
X163921429Y-106160713D02*
X163921429Y-105589284D01*
X164421429Y-105946427D02*
X163135714Y-105946427D01*
X162992857Y-105874999D01*
X162921429Y-105732141D01*
X162921429Y-105589284D01*
X163921429Y-105303570D02*
X163921429Y-104732141D01*
X164421429Y-105089284D02*
X163135714Y-105089284D01*
X162992857Y-105017856D01*
X162921429Y-104874998D01*
X162921429Y-104732141D01*
X162992857Y-103660713D02*
X162921429Y-103803570D01*
X162921429Y-104089284D01*
X162992857Y-104232141D01*
X163135714Y-104303570D01*
X163707143Y-104303570D01*
X163850000Y-104232141D01*
X163921429Y-104089284D01*
X163921429Y-103803570D01*
X163850000Y-103660713D01*
X163707143Y-103589284D01*
X163564286Y-103589284D01*
X163421429Y-104303570D01*
X162921429Y-102946427D02*
X163921429Y-102946427D01*
X163635714Y-102946427D02*
X163778571Y-102874999D01*
X163850000Y-102803570D01*
X163921429Y-102660713D01*
X163921429Y-102517856D01*
X163921429Y-102160713D02*
X162921429Y-101803570D01*
X163921429Y-101446428D02*
X162921429Y-101803570D01*
X162564286Y-101946428D01*
X162492857Y-102017856D01*
X162421429Y-102160713D01*
X162921429Y-99732142D02*
X164421429Y-99732142D01*
X163707143Y-99732142D02*
X163707143Y-98874999D01*
X162921429Y-98874999D02*
X164421429Y-98874999D01*
X162921429Y-97946427D02*
X162992857Y-98089285D01*
X163064286Y-98160713D01*
X163207143Y-98232142D01*
X163635714Y-98232142D01*
X163778571Y-98160713D01*
X163850000Y-98089285D01*
X163921429Y-97946427D01*
X163921429Y-97732142D01*
X163850000Y-97589285D01*
X163778571Y-97517856D01*
X163635714Y-97446427D01*
X163207143Y-97446427D01*
X163064286Y-97517856D01*
X162992857Y-97589285D01*
X162921429Y-97732142D01*
X162921429Y-97946427D01*
X162921429Y-96589284D02*
X162992857Y-96732142D01*
X163135714Y-96803570D01*
X164421429Y-96803570D01*
X162921429Y-95374999D02*
X164421429Y-95374999D01*
X162992857Y-95374999D02*
X162921429Y-95517856D01*
X162921429Y-95803570D01*
X162992857Y-95946428D01*
X163064286Y-96017856D01*
X163207143Y-96089285D01*
X163635714Y-96089285D01*
X163778571Y-96017856D01*
X163850000Y-95946428D01*
X163921429Y-95803570D01*
X163921429Y-95517856D01*
X163850000Y-95374999D01*
X162992857Y-94089285D02*
X162921429Y-94232142D01*
X162921429Y-94517856D01*
X162992857Y-94660713D01*
X163135714Y-94732142D01*
X163707143Y-94732142D01*
X163850000Y-94660713D01*
X163921429Y-94517856D01*
X163921429Y-94232142D01*
X163850000Y-94089285D01*
X163707143Y-94017856D01*
X163564286Y-94017856D01*
X163421429Y-94732142D01*
X162921429Y-93374999D02*
X163921429Y-93374999D01*
X163635714Y-93374999D02*
X163778571Y-93303571D01*
X163850000Y-93232142D01*
X163921429Y-93089285D01*
X163921429Y-92946428D01*
X160521429Y-110910714D02*
X160592857Y-111053572D01*
X160664286Y-111125000D01*
X160807143Y-111196429D01*
X161235714Y-111196429D01*
X161378571Y-111125000D01*
X161450000Y-111053572D01*
X161521429Y-110910714D01*
X161521429Y-110696429D01*
X161450000Y-110553572D01*
X161378571Y-110482143D01*
X161235714Y-110410714D01*
X160807143Y-110410714D01*
X160664286Y-110482143D01*
X160592857Y-110553572D01*
X160521429Y-110696429D01*
X160521429Y-110910714D01*
X161521429Y-109767857D02*
X160521429Y-109767857D01*
X161378571Y-109767857D02*
X161450000Y-109696429D01*
X161521429Y-109553571D01*
X161521429Y-109339286D01*
X161450000Y-109196429D01*
X161307143Y-109125000D01*
X160521429Y-109125000D01*
X161521429Y-107482143D02*
X161521429Y-106910714D01*
X162021429Y-107267857D02*
X160735714Y-107267857D01*
X160592857Y-107196429D01*
X160521429Y-107053571D01*
X160521429Y-106910714D01*
X160521429Y-106410714D02*
X162021429Y-106410714D01*
X160521429Y-105767857D02*
X161307143Y-105767857D01*
X161450000Y-105839286D01*
X161521429Y-105982143D01*
X161521429Y-106196428D01*
X161450000Y-106339286D01*
X161378571Y-106410714D01*
X160521429Y-105053571D02*
X161521429Y-105053571D01*
X162021429Y-105053571D02*
X161950000Y-105125000D01*
X161878571Y-105053571D01*
X161950000Y-104982143D01*
X162021429Y-105053571D01*
X161878571Y-105053571D01*
X160592857Y-104410714D02*
X160521429Y-104267857D01*
X160521429Y-103982142D01*
X160592857Y-103839285D01*
X160735714Y-103767857D01*
X160807143Y-103767857D01*
X160950000Y-103839285D01*
X161021429Y-103982142D01*
X161021429Y-104196428D01*
X161092857Y-104339285D01*
X161235714Y-104410714D01*
X161307143Y-104410714D01*
X161450000Y-104339285D01*
X161521429Y-104196428D01*
X161521429Y-103982142D01*
X161450000Y-103839285D01*
X160592857Y-102053571D02*
X160521429Y-101910714D01*
X160521429Y-101624999D01*
X160592857Y-101482142D01*
X160735714Y-101410714D01*
X160807143Y-101410714D01*
X160950000Y-101482142D01*
X161021429Y-101624999D01*
X161021429Y-101839285D01*
X161092857Y-101982142D01*
X161235714Y-102053571D01*
X161307143Y-102053571D01*
X161450000Y-101982142D01*
X161521429Y-101839285D01*
X161521429Y-101624999D01*
X161450000Y-101482142D01*
X160521429Y-100767856D02*
X161521429Y-100767856D01*
X162021429Y-100767856D02*
X161950000Y-100839285D01*
X161878571Y-100767856D01*
X161950000Y-100696428D01*
X162021429Y-100767856D01*
X161878571Y-100767856D01*
X160521429Y-99410713D02*
X162021429Y-99410713D01*
X160592857Y-99410713D02*
X160521429Y-99553570D01*
X160521429Y-99839284D01*
X160592857Y-99982142D01*
X160664286Y-100053570D01*
X160807143Y-100124999D01*
X161235714Y-100124999D01*
X161378571Y-100053570D01*
X161450000Y-99982142D01*
X161521429Y-99839284D01*
X161521429Y-99553570D01*
X161450000Y-99410713D01*
X160592857Y-98124999D02*
X160521429Y-98267856D01*
X160521429Y-98553570D01*
X160592857Y-98696427D01*
X160735714Y-98767856D01*
X161307143Y-98767856D01*
X161450000Y-98696427D01*
X161521429Y-98553570D01*
X161521429Y-98267856D01*
X161450000Y-98124999D01*
X161307143Y-98053570D01*
X161164286Y-98053570D01*
X161021429Y-98767856D01*
D13*
X147051000Y-103204000D02*
X147051000Y-102004000D01*
X176537170Y-105076313D02*
G75*
G03X151351000Y-101504000I-12836170J72313D01*
G01*
X151352754Y-101477616D02*
G75*
G02X150601000Y-102004000I-751754J273616D01*
G01*
X176537170Y-104931687D02*
G75*
G02X151351000Y-108504000I-12836170J-72313D01*
G01*
X151352754Y-108530384D02*
G75*
G03X150601000Y-108004000I-751754J-273616D01*
G01*
X147051000Y-108004000D02*
X150651000Y-108004000D01*
X147051000Y-106804000D02*
X147051000Y-108004000D01*
X147051000Y-102004000D02*
X150651000Y-102004000D01*
D14*
X151822428Y-105111143D02*
X150679571Y-105111143D01*
X151251000Y-105682571D02*
X151251000Y-104539714D01*
M02*
