G04 #@! TF.FileFunction,Other,Fab,Bot*
%FSLAX46Y46*%
G04 Gerber Fmt 4.6, Leading zero omitted, Abs format (unit mm)*
G04 Created by KiCad (PCBNEW 4.0.1-stable) date 2019/03/03 15:39:44*
%MOMM*%
G01*
G04 APERTURE LIST*
%ADD10C,0.100000*%
%ADD11C,0.150000*%
G04 APERTURE END LIST*
D10*
X151496723Y-101511818D02*
G75*
G02X150651000Y-102104000I-845723J307818D01*
G01*
X176393124Y-105005640D02*
G75*
G03X151501000Y-101504000I-12692124J1640D01*
G01*
X176393124Y-105002360D02*
G75*
G02X151501000Y-108504000I-12692124J-1640D01*
G01*
X175181000Y-106304000D02*
G75*
G03X152221000Y-103704000I-11480000J1300000D01*
G01*
X170032550Y-105207631D02*
G75*
G03X157501000Y-103704000I-6331550J203631D01*
G01*
X165996448Y-105179833D02*
G75*
G03X161801000Y-103704000I-2295448J175833D01*
G01*
X165996448Y-104828167D02*
G75*
G02X161801000Y-106304000I-2295448J-175833D01*
G01*
X170032550Y-104800369D02*
G75*
G02X157501000Y-106304000I-6331550J-203631D01*
G01*
X175181000Y-103704000D02*
G75*
G02X152221000Y-106304000I-11480000J-1300000D01*
G01*
X150651000Y-107904000D02*
X147601000Y-107904000D01*
X147601000Y-102104000D02*
X150651000Y-102104000D01*
X147201000Y-107504000D02*
X147201000Y-102504000D01*
X148501000Y-103704000D02*
X164701000Y-103704000D01*
X164701000Y-106304000D02*
X148501000Y-106304000D01*
X151496723Y-108496182D02*
G75*
G03X150651000Y-107904000I-845723J-307818D01*
G01*
X164701000Y-103704000D02*
G75*
G02X164701000Y-106304000I0J-1300000D01*
G01*
X148501000Y-106304000D02*
X148501000Y-103704000D01*
X147601000Y-102104000D02*
G75*
G03X147201000Y-102504000I0J-400000D01*
G01*
X147601000Y-107904000D02*
G75*
G02X147201000Y-107504000I0J400000D01*
G01*
X172199200Y-97155400D02*
X173027400Y-96390700D01*
X172224600Y-112852600D02*
X173027400Y-113604600D01*
D11*
X167524809Y-91361143D02*
X167572428Y-91408762D01*
X167715285Y-91456381D01*
X167810523Y-91456381D01*
X167953381Y-91408762D01*
X168048619Y-91313524D01*
X168096238Y-91218286D01*
X168143857Y-91027810D01*
X168143857Y-90884952D01*
X168096238Y-90694476D01*
X168048619Y-90599238D01*
X167953381Y-90504000D01*
X167810523Y-90456381D01*
X167715285Y-90456381D01*
X167572428Y-90504000D01*
X167524809Y-90551619D01*
X166905762Y-90456381D02*
X166715285Y-90456381D01*
X166620047Y-90504000D01*
X166524809Y-90599238D01*
X166477190Y-90789714D01*
X166477190Y-91123048D01*
X166524809Y-91313524D01*
X166620047Y-91408762D01*
X166715285Y-91456381D01*
X166905762Y-91456381D01*
X167001000Y-91408762D01*
X167096238Y-91313524D01*
X167143857Y-91123048D01*
X167143857Y-90789714D01*
X167096238Y-90599238D01*
X167001000Y-90504000D01*
X166905762Y-90456381D01*
X166048619Y-91456381D02*
X166048619Y-90456381D01*
X165477190Y-91456381D01*
X165477190Y-90456381D01*
X165001000Y-91456381D02*
X165001000Y-90456381D01*
X164429571Y-91456381D01*
X164429571Y-90456381D01*
X164191476Y-91551619D02*
X163429571Y-91551619D01*
X163001000Y-90456381D02*
X162905761Y-90456381D01*
X162810523Y-90504000D01*
X162762904Y-90551619D01*
X162715285Y-90646857D01*
X162667666Y-90837333D01*
X162667666Y-91075429D01*
X162715285Y-91265905D01*
X162762904Y-91361143D01*
X162810523Y-91408762D01*
X162905761Y-91456381D01*
X163001000Y-91456381D01*
X163096238Y-91408762D01*
X163143857Y-91361143D01*
X163191476Y-91265905D01*
X163239095Y-91075429D01*
X163239095Y-90837333D01*
X163191476Y-90646857D01*
X163143857Y-90551619D01*
X163096238Y-90504000D01*
X163001000Y-90456381D01*
X161715285Y-91456381D02*
X162286714Y-91456381D01*
X162001000Y-91456381D02*
X162001000Y-90456381D01*
X162096238Y-90599238D01*
X162191476Y-90694476D01*
X162286714Y-90742095D01*
X161381952Y-90456381D02*
X160715285Y-91456381D01*
X160715285Y-90456381D02*
X161381952Y-91456381D01*
X160143857Y-90456381D02*
X160048618Y-90456381D01*
X159953380Y-90504000D01*
X159905761Y-90551619D01*
X159858142Y-90646857D01*
X159810523Y-90837333D01*
X159810523Y-91075429D01*
X159858142Y-91265905D01*
X159905761Y-91361143D01*
X159953380Y-91408762D01*
X160048618Y-91456381D01*
X160143857Y-91456381D01*
X160239095Y-91408762D01*
X160286714Y-91361143D01*
X160334333Y-91265905D01*
X160381952Y-91075429D01*
X160381952Y-90837333D01*
X160334333Y-90646857D01*
X160286714Y-90551619D01*
X160239095Y-90504000D01*
X160143857Y-90456381D01*
X159429571Y-90551619D02*
X159381952Y-90504000D01*
X159286714Y-90456381D01*
X159048618Y-90456381D01*
X158953380Y-90504000D01*
X158905761Y-90551619D01*
X158858142Y-90646857D01*
X158858142Y-90742095D01*
X158905761Y-90884952D01*
X159477190Y-91456381D01*
X158858142Y-91456381D01*
M02*
