G04 #@! TF.FileFunction,Copper,L2,Bot,Signal*
%FSLAX46Y46*%
G04 Gerber Fmt 4.6, Leading zero omitted, Abs format (unit mm)*
G04 Created by KiCad (PCBNEW 4.0.1-stable) date 2019/04/09 1:16:35*
%MOMM*%
G01*
G04 APERTURE LIST*
%ADD10C,0.100000*%
%ADD11C,2.775000*%
%ADD12R,1.700000X1.700000*%
%ADD13O,1.700000X1.700000*%
%ADD14C,0.600000*%
%ADD15C,0.250000*%
%ADD16C,0.254000*%
G04 APERTURE END LIST*
D10*
D11*
X101700000Y-59750000D03*
X127100000Y-59750000D03*
D12*
X106850000Y-91650000D03*
D13*
X106850000Y-89110000D03*
X109390000Y-91650000D03*
X109390000Y-89110000D03*
X111930000Y-91650000D03*
X111930000Y-89110000D03*
X114470000Y-91650000D03*
X114470000Y-89110000D03*
X117010000Y-91650000D03*
X117010000Y-89110000D03*
X119550000Y-91650000D03*
X119550000Y-89110000D03*
X122090000Y-91650000D03*
X122090000Y-89110000D03*
D12*
X125050000Y-86150000D03*
D13*
X127590000Y-86150000D03*
D12*
X127550000Y-74950000D03*
D13*
X127550000Y-77490000D03*
X125010000Y-74950000D03*
X125010000Y-77490000D03*
D12*
X101600000Y-74350000D03*
D13*
X101600000Y-71810000D03*
D14*
X106850000Y-51500000D03*
X102700000Y-56800000D03*
X125900000Y-55800000D03*
X123750000Y-51700000D03*
X126150000Y-63350000D03*
X126400000Y-71200000D03*
X120400000Y-71300000D03*
X101500000Y-68050000D03*
X104650000Y-67100000D03*
X114350000Y-71250000D03*
X126700000Y-84450000D03*
X124400000Y-84450000D03*
X123750000Y-82000000D03*
X106700000Y-94200000D03*
X110750000Y-94250000D03*
X116350000Y-93350000D03*
X120050000Y-93300000D03*
X122950000Y-93300000D03*
X121750000Y-86950000D03*
X121150000Y-82450000D03*
X121250000Y-80350000D03*
X118000000Y-80400000D03*
X117500000Y-82400000D03*
X114950000Y-82450000D03*
X115650000Y-80200000D03*
X112900000Y-80100000D03*
X111900000Y-82350000D03*
X107600000Y-82000000D03*
X109650000Y-78950000D03*
X104650000Y-81900000D03*
X104750000Y-79300000D03*
X101750000Y-84950000D03*
X101750000Y-79150000D03*
D15*
X109390000Y-89110000D02*
X110565300Y-89110000D01*
X110565300Y-88742700D02*
X110565300Y-89110000D01*
X113158000Y-86150000D02*
X110565300Y-88742700D01*
X123874700Y-86150000D02*
X113158000Y-86150000D01*
X125050000Y-86150000D02*
X123874700Y-86150000D01*
X127590000Y-81245300D02*
X127590000Y-86150000D01*
X125010000Y-78665300D02*
X127590000Y-81245300D01*
X125010000Y-77490000D02*
X125010000Y-78665300D01*
X102650000Y-56500000D02*
X102650000Y-56750000D01*
X106850000Y-51500000D02*
X102650000Y-55700000D01*
X102650000Y-55700000D02*
X102650000Y-56500000D01*
X102650000Y-56750000D02*
X102700000Y-56800000D01*
X125900000Y-53850000D02*
X125900000Y-55800000D01*
X123750000Y-51700000D02*
X125900000Y-53850000D01*
X119400000Y-71250000D02*
X126350000Y-71250000D01*
X126150000Y-63350000D02*
X126150000Y-63300000D01*
X126350000Y-71250000D02*
X126400000Y-71200000D01*
X114350000Y-71250000D02*
X119400000Y-71250000D01*
X119400000Y-71250000D02*
X120350000Y-71250000D01*
X120350000Y-71250000D02*
X120400000Y-71300000D01*
X105650000Y-68100000D02*
X101550000Y-68100000D01*
X101550000Y-68100000D02*
X101500000Y-68050000D01*
X107700000Y-71850000D02*
X107700000Y-70150000D01*
X107700000Y-70150000D02*
X105650000Y-68100000D01*
X105650000Y-68100000D02*
X104650000Y-67100000D01*
X107700000Y-71850000D02*
X107700000Y-79300000D01*
X113750000Y-71850000D02*
X107700000Y-71850000D01*
X114350000Y-71250000D02*
X113750000Y-71850000D01*
X120450000Y-80350000D02*
X120450000Y-82400000D01*
X122500000Y-84450000D02*
X124400000Y-84450000D01*
X120450000Y-82400000D02*
X122500000Y-84450000D01*
X123750000Y-82000000D02*
X119400000Y-77650000D01*
X122950000Y-93300000D02*
X122950000Y-93150000D01*
X102500000Y-84450000D02*
X105450000Y-87400000D01*
X105450000Y-87400000D02*
X105450000Y-93050000D01*
X105450000Y-93050000D02*
X106600000Y-94200000D01*
X106600000Y-94200000D02*
X106700000Y-94200000D01*
X110750000Y-94250000D02*
X111650000Y-93350000D01*
X111650000Y-93350000D02*
X116350000Y-93350000D01*
X120050000Y-93300000D02*
X122950000Y-93300000D01*
X102500000Y-84050000D02*
X102500000Y-84450000D01*
X123300000Y-88500000D02*
X121750000Y-86950000D01*
X123300000Y-92800000D02*
X123300000Y-88500000D01*
X122950000Y-93150000D02*
X123300000Y-92800000D01*
X108250000Y-80250000D02*
X109800000Y-80250000D01*
X118050000Y-80350000D02*
X120450000Y-80350000D01*
X120450000Y-80350000D02*
X121250000Y-80350000D01*
X118000000Y-80400000D02*
X118050000Y-80350000D01*
X115000000Y-82400000D02*
X117500000Y-82400000D01*
X114950000Y-82450000D02*
X115000000Y-82400000D01*
X113000000Y-80200000D02*
X115650000Y-80200000D01*
X112900000Y-80100000D02*
X113000000Y-80200000D01*
X109800000Y-80250000D02*
X111900000Y-82350000D01*
X108250000Y-79300000D02*
X108250000Y-80250000D01*
X108250000Y-80250000D02*
X108250000Y-81350000D01*
X108250000Y-81350000D02*
X107600000Y-82000000D01*
X109650000Y-78950000D02*
X109300000Y-79300000D01*
X109300000Y-79300000D02*
X108250000Y-79300000D01*
X108250000Y-79300000D02*
X107700000Y-79300000D01*
X107700000Y-79300000D02*
X104750000Y-79300000D01*
X104650000Y-81900000D02*
X102500000Y-84050000D01*
X102500000Y-84050000D02*
X101750000Y-84800000D01*
X101750000Y-84800000D02*
X101750000Y-84950000D01*
D16*
G36*
X121039946Y-92729147D02*
X121521715Y-93051054D01*
X122090000Y-93164093D01*
X122658285Y-93051054D01*
X123090000Y-92762592D01*
X123090000Y-94790000D01*
X105810000Y-94790000D01*
X105810000Y-93108964D01*
X106000000Y-93147440D01*
X107700000Y-93147440D01*
X107935317Y-93103162D01*
X108151441Y-92964090D01*
X108296431Y-92751890D01*
X108310086Y-92684459D01*
X108339946Y-92729147D01*
X108821715Y-93051054D01*
X109390000Y-93164093D01*
X109958285Y-93051054D01*
X110440054Y-92729147D01*
X110660000Y-92399974D01*
X110879946Y-92729147D01*
X111361715Y-93051054D01*
X111930000Y-93164093D01*
X112498285Y-93051054D01*
X112980054Y-92729147D01*
X113200000Y-92399974D01*
X113419946Y-92729147D01*
X113901715Y-93051054D01*
X114470000Y-93164093D01*
X115038285Y-93051054D01*
X115520054Y-92729147D01*
X115740000Y-92399974D01*
X115959946Y-92729147D01*
X116441715Y-93051054D01*
X117010000Y-93164093D01*
X117578285Y-93051054D01*
X118060054Y-92729147D01*
X118280000Y-92399974D01*
X118499946Y-92729147D01*
X118981715Y-93051054D01*
X119550000Y-93164093D01*
X120118285Y-93051054D01*
X120600054Y-92729147D01*
X120820000Y-92399974D01*
X121039946Y-92729147D01*
X121039946Y-92729147D01*
G37*
X121039946Y-92729147D02*
X121521715Y-93051054D01*
X122090000Y-93164093D01*
X122658285Y-93051054D01*
X123090000Y-92762592D01*
X123090000Y-94790000D01*
X105810000Y-94790000D01*
X105810000Y-93108964D01*
X106000000Y-93147440D01*
X107700000Y-93147440D01*
X107935317Y-93103162D01*
X108151441Y-92964090D01*
X108296431Y-92751890D01*
X108310086Y-92684459D01*
X108339946Y-92729147D01*
X108821715Y-93051054D01*
X109390000Y-93164093D01*
X109958285Y-93051054D01*
X110440054Y-92729147D01*
X110660000Y-92399974D01*
X110879946Y-92729147D01*
X111361715Y-93051054D01*
X111930000Y-93164093D01*
X112498285Y-93051054D01*
X112980054Y-92729147D01*
X113200000Y-92399974D01*
X113419946Y-92729147D01*
X113901715Y-93051054D01*
X114470000Y-93164093D01*
X115038285Y-93051054D01*
X115520054Y-92729147D01*
X115740000Y-92399974D01*
X115959946Y-92729147D01*
X116441715Y-93051054D01*
X117010000Y-93164093D01*
X117578285Y-93051054D01*
X118060054Y-92729147D01*
X118280000Y-92399974D01*
X118499946Y-92729147D01*
X118981715Y-93051054D01*
X119550000Y-93164093D01*
X120118285Y-93051054D01*
X120600054Y-92729147D01*
X120820000Y-92399974D01*
X121039946Y-92729147D01*
G36*
X128190000Y-58012677D02*
X127504065Y-57727852D01*
X126699465Y-57727150D01*
X125955843Y-58034408D01*
X125386408Y-58602850D01*
X125077852Y-59345935D01*
X125077150Y-60150535D01*
X125384408Y-60894157D01*
X125952850Y-61463592D01*
X126695935Y-61772148D01*
X127500535Y-61772850D01*
X128190000Y-61487969D01*
X128190000Y-73452560D01*
X126700000Y-73452560D01*
X126464683Y-73496838D01*
X126248559Y-73635910D01*
X126103569Y-73848110D01*
X126089914Y-73915541D01*
X126060054Y-73870853D01*
X125578285Y-73548946D01*
X125010000Y-73435907D01*
X124441715Y-73548946D01*
X123959946Y-73870853D01*
X123638039Y-74352622D01*
X123525000Y-74920907D01*
X123525000Y-74979093D01*
X123638039Y-75547378D01*
X123959946Y-76029147D01*
X124245578Y-76220000D01*
X123959946Y-76410853D01*
X123638039Y-76892622D01*
X123525000Y-77460907D01*
X123525000Y-77519093D01*
X123638039Y-78087378D01*
X123959946Y-78569147D01*
X124272402Y-78777923D01*
X124307852Y-78956139D01*
X124472599Y-79202701D01*
X126830000Y-81560102D01*
X126830000Y-84877046D01*
X126539946Y-85070853D01*
X126512150Y-85112452D01*
X126503162Y-85064683D01*
X126364090Y-84848559D01*
X126151890Y-84703569D01*
X125900000Y-84652560D01*
X124200000Y-84652560D01*
X123964683Y-84696838D01*
X123748559Y-84835910D01*
X123603569Y-85048110D01*
X123552560Y-85300000D01*
X123552560Y-85390000D01*
X113158000Y-85390000D01*
X112867161Y-85447852D01*
X112620599Y-85612598D01*
X110297558Y-87935640D01*
X109958285Y-87708946D01*
X109390000Y-87595907D01*
X108821715Y-87708946D01*
X108339946Y-88030853D01*
X108120000Y-88360026D01*
X107900054Y-88030853D01*
X107418285Y-87708946D01*
X106850000Y-87595907D01*
X106281715Y-87708946D01*
X105810000Y-88024135D01*
X105810000Y-87500000D01*
X105755954Y-87228295D01*
X105602046Y-86997954D01*
X105371705Y-86844046D01*
X105100000Y-86790000D01*
X100710000Y-86790000D01*
X100710000Y-75839340D01*
X100750000Y-75847440D01*
X102450000Y-75847440D01*
X102685317Y-75803162D01*
X102901441Y-75664090D01*
X103046431Y-75451890D01*
X103097440Y-75200000D01*
X103097440Y-73500000D01*
X103053162Y-73264683D01*
X102914090Y-73048559D01*
X102701890Y-72903569D01*
X102593893Y-72881699D01*
X102871645Y-72576924D01*
X103041476Y-72166890D01*
X102920155Y-71937000D01*
X101727000Y-71937000D01*
X101727000Y-71957000D01*
X101473000Y-71957000D01*
X101473000Y-71937000D01*
X101453000Y-71937000D01*
X101453000Y-71683000D01*
X101473000Y-71683000D01*
X101473000Y-70489181D01*
X101727000Y-70489181D01*
X101727000Y-71683000D01*
X102920155Y-71683000D01*
X103041476Y-71453110D01*
X102871645Y-71043076D01*
X102481358Y-70614817D01*
X101956892Y-70368514D01*
X101727000Y-70489181D01*
X101473000Y-70489181D01*
X101243108Y-70368514D01*
X100718642Y-70614817D01*
X100710000Y-70624300D01*
X100710000Y-61528846D01*
X101295935Y-61772148D01*
X102100535Y-61772850D01*
X102844157Y-61465592D01*
X103413592Y-60897150D01*
X103722148Y-60154065D01*
X103722850Y-59349465D01*
X103415592Y-58605843D01*
X102847150Y-58036408D01*
X102104065Y-57727852D01*
X101299465Y-57727150D01*
X100710000Y-57970712D01*
X100710000Y-50710000D01*
X128190000Y-50710000D01*
X128190000Y-58012677D01*
X128190000Y-58012677D01*
G37*
X128190000Y-58012677D02*
X127504065Y-57727852D01*
X126699465Y-57727150D01*
X125955843Y-58034408D01*
X125386408Y-58602850D01*
X125077852Y-59345935D01*
X125077150Y-60150535D01*
X125384408Y-60894157D01*
X125952850Y-61463592D01*
X126695935Y-61772148D01*
X127500535Y-61772850D01*
X128190000Y-61487969D01*
X128190000Y-73452560D01*
X126700000Y-73452560D01*
X126464683Y-73496838D01*
X126248559Y-73635910D01*
X126103569Y-73848110D01*
X126089914Y-73915541D01*
X126060054Y-73870853D01*
X125578285Y-73548946D01*
X125010000Y-73435907D01*
X124441715Y-73548946D01*
X123959946Y-73870853D01*
X123638039Y-74352622D01*
X123525000Y-74920907D01*
X123525000Y-74979093D01*
X123638039Y-75547378D01*
X123959946Y-76029147D01*
X124245578Y-76220000D01*
X123959946Y-76410853D01*
X123638039Y-76892622D01*
X123525000Y-77460907D01*
X123525000Y-77519093D01*
X123638039Y-78087378D01*
X123959946Y-78569147D01*
X124272402Y-78777923D01*
X124307852Y-78956139D01*
X124472599Y-79202701D01*
X126830000Y-81560102D01*
X126830000Y-84877046D01*
X126539946Y-85070853D01*
X126512150Y-85112452D01*
X126503162Y-85064683D01*
X126364090Y-84848559D01*
X126151890Y-84703569D01*
X125900000Y-84652560D01*
X124200000Y-84652560D01*
X123964683Y-84696838D01*
X123748559Y-84835910D01*
X123603569Y-85048110D01*
X123552560Y-85300000D01*
X123552560Y-85390000D01*
X113158000Y-85390000D01*
X112867161Y-85447852D01*
X112620599Y-85612598D01*
X110297558Y-87935640D01*
X109958285Y-87708946D01*
X109390000Y-87595907D01*
X108821715Y-87708946D01*
X108339946Y-88030853D01*
X108120000Y-88360026D01*
X107900054Y-88030853D01*
X107418285Y-87708946D01*
X106850000Y-87595907D01*
X106281715Y-87708946D01*
X105810000Y-88024135D01*
X105810000Y-87500000D01*
X105755954Y-87228295D01*
X105602046Y-86997954D01*
X105371705Y-86844046D01*
X105100000Y-86790000D01*
X100710000Y-86790000D01*
X100710000Y-75839340D01*
X100750000Y-75847440D01*
X102450000Y-75847440D01*
X102685317Y-75803162D01*
X102901441Y-75664090D01*
X103046431Y-75451890D01*
X103097440Y-75200000D01*
X103097440Y-73500000D01*
X103053162Y-73264683D01*
X102914090Y-73048559D01*
X102701890Y-72903569D01*
X102593893Y-72881699D01*
X102871645Y-72576924D01*
X103041476Y-72166890D01*
X102920155Y-71937000D01*
X101727000Y-71937000D01*
X101727000Y-71957000D01*
X101473000Y-71957000D01*
X101473000Y-71937000D01*
X101453000Y-71937000D01*
X101453000Y-71683000D01*
X101473000Y-71683000D01*
X101473000Y-70489181D01*
X101727000Y-70489181D01*
X101727000Y-71683000D01*
X102920155Y-71683000D01*
X103041476Y-71453110D01*
X102871645Y-71043076D01*
X102481358Y-70614817D01*
X101956892Y-70368514D01*
X101727000Y-70489181D01*
X101473000Y-70489181D01*
X101243108Y-70368514D01*
X100718642Y-70614817D01*
X100710000Y-70624300D01*
X100710000Y-61528846D01*
X101295935Y-61772148D01*
X102100535Y-61772850D01*
X102844157Y-61465592D01*
X103413592Y-60897150D01*
X103722148Y-60154065D01*
X103722850Y-59349465D01*
X103415592Y-58605843D01*
X102847150Y-58036408D01*
X102104065Y-57727852D01*
X101299465Y-57727150D01*
X100710000Y-57970712D01*
X100710000Y-50710000D01*
X128190000Y-50710000D01*
X128190000Y-58012677D01*
G36*
X123297954Y-86997954D02*
X123144046Y-87228295D01*
X123090000Y-87500000D01*
X123090000Y-87997408D01*
X122658285Y-87708946D01*
X122090000Y-87595907D01*
X121521715Y-87708946D01*
X121039946Y-88030853D01*
X120820000Y-88360026D01*
X120600054Y-88030853D01*
X120118285Y-87708946D01*
X119550000Y-87595907D01*
X118981715Y-87708946D01*
X118499946Y-88030853D01*
X118280000Y-88360026D01*
X118060054Y-88030853D01*
X117578285Y-87708946D01*
X117010000Y-87595907D01*
X116441715Y-87708946D01*
X115959946Y-88030853D01*
X115740000Y-88360026D01*
X115520054Y-88030853D01*
X115038285Y-87708946D01*
X114470000Y-87595907D01*
X113901715Y-87708946D01*
X113419946Y-88030853D01*
X113200000Y-88360026D01*
X112980054Y-88030853D01*
X112603533Y-87779270D01*
X113472803Y-86910000D01*
X123429587Y-86910000D01*
X123297954Y-86997954D01*
X123297954Y-86997954D01*
G37*
X123297954Y-86997954D02*
X123144046Y-87228295D01*
X123090000Y-87500000D01*
X123090000Y-87997408D01*
X122658285Y-87708946D01*
X122090000Y-87595907D01*
X121521715Y-87708946D01*
X121039946Y-88030853D01*
X120820000Y-88360026D01*
X120600054Y-88030853D01*
X120118285Y-87708946D01*
X119550000Y-87595907D01*
X118981715Y-87708946D01*
X118499946Y-88030853D01*
X118280000Y-88360026D01*
X118060054Y-88030853D01*
X117578285Y-87708946D01*
X117010000Y-87595907D01*
X116441715Y-87708946D01*
X115959946Y-88030853D01*
X115740000Y-88360026D01*
X115520054Y-88030853D01*
X115038285Y-87708946D01*
X114470000Y-87595907D01*
X113901715Y-87708946D01*
X113419946Y-88030853D01*
X113200000Y-88360026D01*
X112980054Y-88030853D01*
X112603533Y-87779270D01*
X113472803Y-86910000D01*
X123429587Y-86910000D01*
X123297954Y-86997954D01*
M02*
