G04 #@! TF.FileFunction,Legend,Top*
%FSLAX46Y46*%
G04 Gerber Fmt 4.6, Leading zero omitted, Abs format (unit mm)*
G04 Created by KiCad (PCBNEW 4.0.1-stable) date 2019/04/06 0:17:03*
%MOMM*%
G01*
G04 APERTURE LIST*
%ADD10C,0.100000*%
%ADD11C,0.150000*%
%ADD12C,0.375000*%
%ADD13C,0.300000*%
%ADD14C,0.120000*%
%ADD15C,0.200000*%
G04 APERTURE END LIST*
D10*
D11*
X175371429Y-102142857D02*
X174771429Y-102142857D01*
X174771429Y-101914285D01*
X174800000Y-101857143D01*
X174828571Y-101828571D01*
X174885714Y-101800000D01*
X174971429Y-101800000D01*
X175028571Y-101828571D01*
X175057143Y-101857143D01*
X175085714Y-101914285D01*
X175085714Y-102142857D01*
X175057143Y-101342857D02*
X175085714Y-101257143D01*
X175114286Y-101228571D01*
X175171429Y-101200000D01*
X175257143Y-101200000D01*
X175314286Y-101228571D01*
X175342857Y-101257143D01*
X175371429Y-101314285D01*
X175371429Y-101542857D01*
X174771429Y-101542857D01*
X174771429Y-101342857D01*
X174800000Y-101285714D01*
X174828571Y-101257143D01*
X174885714Y-101228571D01*
X174942857Y-101228571D01*
X175000000Y-101257143D01*
X175028571Y-101285714D01*
X175057143Y-101342857D01*
X175057143Y-101542857D01*
X175371429Y-100628571D02*
X175371429Y-100971428D01*
X175371429Y-100800000D02*
X174771429Y-100800000D01*
X174857143Y-100857143D01*
X174914286Y-100914285D01*
X174942857Y-100971428D01*
X175371429Y-104592857D02*
X174771429Y-104592857D01*
X174771429Y-104364285D01*
X174800000Y-104307143D01*
X174828571Y-104278571D01*
X174885714Y-104250000D01*
X174971429Y-104250000D01*
X175028571Y-104278571D01*
X175057143Y-104307143D01*
X175085714Y-104364285D01*
X175085714Y-104592857D01*
X175057143Y-103792857D02*
X175085714Y-103707143D01*
X175114286Y-103678571D01*
X175171429Y-103650000D01*
X175257143Y-103650000D01*
X175314286Y-103678571D01*
X175342857Y-103707143D01*
X175371429Y-103764285D01*
X175371429Y-103992857D01*
X174771429Y-103992857D01*
X174771429Y-103792857D01*
X174800000Y-103735714D01*
X174828571Y-103707143D01*
X174885714Y-103678571D01*
X174942857Y-103678571D01*
X175000000Y-103707143D01*
X175028571Y-103735714D01*
X175057143Y-103792857D01*
X175057143Y-103992857D01*
X174771429Y-103278571D02*
X174771429Y-103221428D01*
X174800000Y-103164285D01*
X174828571Y-103135714D01*
X174885714Y-103107143D01*
X175000000Y-103078571D01*
X175142857Y-103078571D01*
X175257143Y-103107143D01*
X175314286Y-103135714D01*
X175342857Y-103164285D01*
X175371429Y-103221428D01*
X175371429Y-103278571D01*
X175342857Y-103335714D01*
X175314286Y-103364285D01*
X175257143Y-103392857D01*
X175142857Y-103421428D01*
X175000000Y-103421428D01*
X174885714Y-103392857D01*
X174828571Y-103364285D01*
X174800000Y-103335714D01*
X174771429Y-103278571D01*
X175321429Y-106828572D02*
X175035714Y-107028572D01*
X175321429Y-107171429D02*
X174721429Y-107171429D01*
X174721429Y-106942857D01*
X174750000Y-106885715D01*
X174778571Y-106857143D01*
X174835714Y-106828572D01*
X174921429Y-106828572D01*
X174978571Y-106857143D01*
X175007143Y-106885715D01*
X175035714Y-106942857D01*
X175035714Y-107171429D01*
X175292857Y-106600000D02*
X175321429Y-106514286D01*
X175321429Y-106371429D01*
X175292857Y-106314286D01*
X175264286Y-106285715D01*
X175207143Y-106257143D01*
X175150000Y-106257143D01*
X175092857Y-106285715D01*
X175064286Y-106314286D01*
X175035714Y-106371429D01*
X175007143Y-106485715D01*
X174978571Y-106542857D01*
X174950000Y-106571429D01*
X174892857Y-106600000D01*
X174835714Y-106600000D01*
X174778571Y-106571429D01*
X174750000Y-106542857D01*
X174721429Y-106485715D01*
X174721429Y-106342857D01*
X174750000Y-106257143D01*
X174721429Y-106085714D02*
X174721429Y-105742857D01*
X175321429Y-105914286D02*
X174721429Y-105914286D01*
X164371429Y-92592857D02*
X164828572Y-92592857D01*
X164600001Y-92821429D02*
X164600001Y-92364286D01*
D12*
X168956585Y-94351821D02*
X169074824Y-94544279D01*
X169083628Y-94644909D01*
X169046519Y-94800258D01*
X168908779Y-94964410D01*
X168762234Y-95027932D01*
X168661603Y-95036736D01*
X168506255Y-94999626D01*
X168068516Y-94632319D01*
X169032697Y-93483253D01*
X169415719Y-93804646D01*
X169479240Y-93951191D01*
X169488044Y-94051822D01*
X169450935Y-94207170D01*
X169359108Y-94316605D01*
X169212564Y-94380127D01*
X169111933Y-94388931D01*
X168956585Y-94351821D01*
X168573563Y-94030427D01*
X169701235Y-95909090D02*
X169545887Y-95871981D01*
X169327017Y-95688327D01*
X169263495Y-95541784D01*
X169300604Y-95386435D01*
X169667912Y-94948695D01*
X169814456Y-94885174D01*
X169969805Y-94922283D01*
X170188674Y-95105936D01*
X170252195Y-95252481D01*
X170215087Y-95407829D01*
X170123260Y-95517264D01*
X169484258Y-95167565D01*
X170694953Y-96836162D02*
X171200001Y-96234270D01*
X171237109Y-96078922D01*
X171173588Y-95932377D01*
X170954719Y-95748724D01*
X170799370Y-95711615D01*
X170740866Y-96781445D02*
X170585519Y-96744335D01*
X170311931Y-96514768D01*
X170248409Y-96368225D01*
X170285518Y-96212876D01*
X170377345Y-96103441D01*
X170523890Y-96039919D01*
X170679238Y-96077029D01*
X170952825Y-96306596D01*
X171108174Y-96343705D01*
X171780498Y-97653800D02*
X171625150Y-97616690D01*
X171406281Y-97433037D01*
X171342758Y-97286492D01*
X171333955Y-97185862D01*
X171371064Y-97030513D01*
X171646544Y-96702209D01*
X171793088Y-96638687D01*
X171893719Y-96629883D01*
X172049068Y-96666992D01*
X172267938Y-96850646D01*
X172331459Y-96997190D01*
X172391195Y-98259478D02*
X172327672Y-98112933D01*
X172318869Y-98012303D01*
X172355978Y-97856954D01*
X172631458Y-97528650D01*
X172778002Y-97465128D01*
X172878633Y-97456324D01*
X173033982Y-97493433D01*
X173198134Y-97631173D01*
X173261655Y-97777718D01*
X173270460Y-97878349D01*
X173233351Y-98033697D01*
X172957870Y-98362002D01*
X172811326Y-98425523D01*
X172710695Y-98434327D01*
X172555347Y-98397217D01*
X172391195Y-98259478D01*
X173909462Y-98228048D02*
X173266674Y-98994092D01*
X173817634Y-98337483D02*
X173918265Y-98328678D01*
X174073614Y-98365788D01*
X174237766Y-98503528D01*
X174301287Y-98650072D01*
X174264178Y-98805421D01*
X173759131Y-99407313D01*
D11*
X170592857Y-112057142D02*
X170621429Y-111971428D01*
X170621429Y-111828571D01*
X170592857Y-111771428D01*
X170564286Y-111742857D01*
X170507143Y-111714285D01*
X170450000Y-111714285D01*
X170392857Y-111742857D01*
X170364286Y-111771428D01*
X170335714Y-111828571D01*
X170307143Y-111942857D01*
X170278571Y-111999999D01*
X170250000Y-112028571D01*
X170192857Y-112057142D01*
X170135714Y-112057142D01*
X170078571Y-112028571D01*
X170050000Y-111999999D01*
X170021429Y-111942857D01*
X170021429Y-111799999D01*
X170050000Y-111714285D01*
X170021429Y-111514285D02*
X170621429Y-111371428D01*
X170192857Y-111257142D01*
X170621429Y-111142856D01*
X170021429Y-110999999D01*
X170621429Y-110771428D02*
X170021429Y-110771428D01*
X170021429Y-110628571D01*
X170050000Y-110542856D01*
X170107143Y-110485714D01*
X170164286Y-110457142D01*
X170278571Y-110428571D01*
X170364286Y-110428571D01*
X170478571Y-110457142D01*
X170535714Y-110485714D01*
X170592857Y-110542856D01*
X170621429Y-110628571D01*
X170621429Y-110771428D01*
X170621429Y-110171428D02*
X170021429Y-110171428D01*
X170592857Y-109664285D02*
X170621429Y-109578571D01*
X170621429Y-109435714D01*
X170592857Y-109378571D01*
X170564286Y-109350000D01*
X170507143Y-109321428D01*
X170450000Y-109321428D01*
X170392857Y-109350000D01*
X170364286Y-109378571D01*
X170335714Y-109435714D01*
X170307143Y-109550000D01*
X170278571Y-109607142D01*
X170250000Y-109635714D01*
X170192857Y-109664285D01*
X170135714Y-109664285D01*
X170078571Y-109635714D01*
X170050000Y-109607142D01*
X170021429Y-109550000D01*
X170021429Y-109407142D01*
X170050000Y-109321428D01*
X170021429Y-109121428D02*
X170621429Y-108978571D01*
X170192857Y-108864285D01*
X170621429Y-108749999D01*
X170021429Y-108607142D01*
X170621429Y-108378571D02*
X170021429Y-108378571D01*
X170021429Y-108235714D01*
X170050000Y-108149999D01*
X170107143Y-108092857D01*
X170164286Y-108064285D01*
X170278571Y-108035714D01*
X170364286Y-108035714D01*
X170478571Y-108064285D01*
X170535714Y-108092857D01*
X170592857Y-108149999D01*
X170621429Y-108235714D01*
X170621429Y-108378571D01*
X170564286Y-107435714D02*
X170592857Y-107464285D01*
X170621429Y-107549999D01*
X170621429Y-107607142D01*
X170592857Y-107692857D01*
X170535714Y-107749999D01*
X170478571Y-107778571D01*
X170364286Y-107807142D01*
X170278571Y-107807142D01*
X170164286Y-107778571D01*
X170107143Y-107749999D01*
X170050000Y-107692857D01*
X170021429Y-107607142D01*
X170021429Y-107549999D01*
X170050000Y-107464285D01*
X170078571Y-107435714D01*
X170721429Y-101550000D02*
X170435714Y-101750000D01*
X170721429Y-101892857D02*
X170121429Y-101892857D01*
X170121429Y-101664285D01*
X170150000Y-101607143D01*
X170178571Y-101578571D01*
X170235714Y-101550000D01*
X170321429Y-101550000D01*
X170378571Y-101578571D01*
X170407143Y-101607143D01*
X170435714Y-101664285D01*
X170435714Y-101892857D01*
X170121429Y-101350000D02*
X170721429Y-100950000D01*
X170121429Y-100950000D02*
X170721429Y-101350000D01*
X170021429Y-99357143D02*
X170021429Y-99014286D01*
X170621429Y-99185715D02*
X170021429Y-99185715D01*
X170021429Y-98871429D02*
X170621429Y-98471429D01*
X170021429Y-98471429D02*
X170621429Y-98871429D01*
X150350000Y-106407142D02*
X150321429Y-106464285D01*
X150321429Y-106549999D01*
X150350000Y-106635714D01*
X150407143Y-106692856D01*
X150464286Y-106721428D01*
X150578571Y-106749999D01*
X150664286Y-106749999D01*
X150778571Y-106721428D01*
X150835714Y-106692856D01*
X150892857Y-106635714D01*
X150921429Y-106549999D01*
X150921429Y-106492856D01*
X150892857Y-106407142D01*
X150864286Y-106378571D01*
X150664286Y-106378571D01*
X150664286Y-106492856D01*
X150921429Y-106121428D02*
X150321429Y-106121428D01*
X150921429Y-105778571D01*
X150321429Y-105778571D01*
X150921429Y-105492857D02*
X150321429Y-105492857D01*
X150321429Y-105350000D01*
X150350000Y-105264285D01*
X150407143Y-105207143D01*
X150464286Y-105178571D01*
X150578571Y-105150000D01*
X150664286Y-105150000D01*
X150778571Y-105178571D01*
X150835714Y-105207143D01*
X150892857Y-105264285D01*
X150921429Y-105350000D01*
X150921429Y-105492857D01*
X150371429Y-109485715D02*
X150371429Y-109114286D01*
X150600000Y-109314286D01*
X150600000Y-109228572D01*
X150628571Y-109171429D01*
X150657143Y-109142858D01*
X150714286Y-109114286D01*
X150857143Y-109114286D01*
X150914286Y-109142858D01*
X150942857Y-109171429D01*
X150971429Y-109228572D01*
X150971429Y-109400000D01*
X150942857Y-109457143D01*
X150914286Y-109485715D01*
X150914286Y-108857143D02*
X150942857Y-108828571D01*
X150971429Y-108857143D01*
X150942857Y-108885714D01*
X150914286Y-108857143D01*
X150971429Y-108857143D01*
X150371429Y-108628572D02*
X150371429Y-108257143D01*
X150600000Y-108457143D01*
X150600000Y-108371429D01*
X150628571Y-108314286D01*
X150657143Y-108285715D01*
X150714286Y-108257143D01*
X150857143Y-108257143D01*
X150914286Y-108285715D01*
X150942857Y-108314286D01*
X150971429Y-108371429D01*
X150971429Y-108542857D01*
X150942857Y-108600000D01*
X150914286Y-108628572D01*
X150371429Y-108085714D02*
X150971429Y-107885714D01*
X150371429Y-107685714D01*
D13*
X160300000Y-99582143D02*
X160300000Y-100296429D01*
X159871429Y-99439286D02*
X161371429Y-99939286D01*
X159871429Y-100439286D01*
X160657143Y-100939286D02*
X160657143Y-101439286D01*
X159871429Y-101653572D02*
X159871429Y-100939286D01*
X161371429Y-100939286D01*
X161371429Y-101653572D01*
X160442857Y-102296429D02*
X160442857Y-103439286D01*
X161371429Y-103939286D02*
X161371429Y-104796429D01*
X159871429Y-104367858D02*
X161371429Y-104367858D01*
X160585714Y-105582143D02*
X159871429Y-105582143D01*
X161371429Y-105082143D02*
X160585714Y-105582143D01*
X161371429Y-106082143D01*
X160657143Y-107082143D02*
X160585714Y-107296429D01*
X160514286Y-107367857D01*
X160371429Y-107439286D01*
X160157143Y-107439286D01*
X160014286Y-107367857D01*
X159942857Y-107296429D01*
X159871429Y-107153571D01*
X159871429Y-106582143D01*
X161371429Y-106582143D01*
X161371429Y-107082143D01*
X161300000Y-107225000D01*
X161228571Y-107296429D01*
X161085714Y-107367857D01*
X160942857Y-107367857D01*
X160800000Y-107296429D01*
X160728571Y-107225000D01*
X160657143Y-107082143D01*
X160657143Y-106582143D01*
X159871429Y-108796429D02*
X159871429Y-108082143D01*
X161371429Y-108082143D01*
X160657143Y-109296429D02*
X160657143Y-109796429D01*
X159871429Y-110010715D02*
X159871429Y-109296429D01*
X161371429Y-109296429D01*
X161371429Y-110010715D01*
X159871429Y-111439286D02*
X159871429Y-110582143D01*
X159871429Y-111010715D02*
X161371429Y-111010715D01*
X161157143Y-110867858D01*
X161014286Y-110725000D01*
X160942857Y-110582143D01*
X161371429Y-112725000D02*
X161371429Y-112439286D01*
X161300000Y-112296429D01*
X161228571Y-112225000D01*
X161014286Y-112082143D01*
X160728571Y-112010714D01*
X160157143Y-112010714D01*
X160014286Y-112082143D01*
X159942857Y-112153571D01*
X159871429Y-112296429D01*
X159871429Y-112582143D01*
X159942857Y-112725000D01*
X160014286Y-112796429D01*
X160157143Y-112867857D01*
X160514286Y-112867857D01*
X160657143Y-112796429D01*
X160728571Y-112725000D01*
X160800000Y-112582143D01*
X160800000Y-112296429D01*
X160728571Y-112153571D01*
X160657143Y-112082143D01*
X160514286Y-112010714D01*
D14*
X171930000Y-101400000D02*
X171930000Y-100130000D01*
X171930000Y-100130000D02*
X173200000Y-100130000D01*
X169870000Y-111100000D02*
X169870000Y-112370000D01*
X169870000Y-112370000D02*
X168600000Y-112370000D01*
X169870000Y-101400000D02*
X169870000Y-102670000D01*
X169870000Y-102670000D02*
X168600000Y-102670000D01*
X153570000Y-108525000D02*
X153570000Y-109795000D01*
X153570000Y-109795000D02*
X152300000Y-109795000D01*
D11*
X164650000Y-118050000D02*
X164650000Y-94550000D01*
X164650000Y-94550000D02*
X156350000Y-94550000D01*
X156350000Y-94550000D02*
X156350000Y-118050000D01*
X156350000Y-118050000D02*
X164650000Y-118050000D01*
D15*
X173900000Y-110550000D02*
X173900000Y-111150000D01*
X173900000Y-111150000D02*
X171000000Y-111150000D01*
X171000000Y-111150000D02*
X171000000Y-110550000D01*
X171000000Y-110550000D02*
X173900000Y-110550000D01*
X174050000Y-109000000D02*
X174050000Y-110200000D01*
D14*
X167900000Y-94250000D02*
X167900000Y-93150000D01*
X167900000Y-93150000D02*
X165300000Y-93150000D01*
X167900000Y-94250000D02*
X165300000Y-94250000D01*
X161150000Y-93020000D02*
X162150000Y-93020000D01*
X162150000Y-94380000D02*
X161150000Y-94380000D01*
X170650000Y-113150000D02*
X170650000Y-115150000D01*
X167850000Y-113150000D02*
X170650000Y-113150000D01*
X167850000Y-115150000D02*
X167850000Y-113150000D01*
X170650000Y-115150000D02*
X167850000Y-115150000D01*
D11*
X172757143Y-108221429D02*
X172757143Y-107621429D01*
X172985715Y-107621429D01*
X173042857Y-107650000D01*
X173071429Y-107678571D01*
X173100000Y-107735714D01*
X173100000Y-107821429D01*
X173071429Y-107878571D01*
X173042857Y-107907143D01*
X172985715Y-107935714D01*
X172757143Y-107935714D01*
X173614286Y-107821429D02*
X173614286Y-108221429D01*
X173471429Y-107592857D02*
X173328572Y-108021429D01*
X173700000Y-108021429D01*
X168157143Y-107421429D02*
X168157143Y-106821429D01*
X168385715Y-106821429D01*
X168442857Y-106850000D01*
X168471429Y-106878571D01*
X168500000Y-106935714D01*
X168500000Y-107021429D01*
X168471429Y-107078571D01*
X168442857Y-107107143D01*
X168385715Y-107135714D01*
X168157143Y-107135714D01*
X168728572Y-106878571D02*
X168757143Y-106850000D01*
X168814286Y-106821429D01*
X168957143Y-106821429D01*
X169014286Y-106850000D01*
X169042857Y-106878571D01*
X169071429Y-106935714D01*
X169071429Y-106992857D01*
X169042857Y-107078571D01*
X168700000Y-107421429D01*
X169071429Y-107421429D01*
X168207143Y-97671429D02*
X168207143Y-97071429D01*
X168435715Y-97071429D01*
X168492857Y-97100000D01*
X168521429Y-97128571D01*
X168550000Y-97185714D01*
X168550000Y-97271429D01*
X168521429Y-97328571D01*
X168492857Y-97357143D01*
X168435715Y-97385714D01*
X168207143Y-97385714D01*
X168750000Y-97071429D02*
X169121429Y-97071429D01*
X168921429Y-97300000D01*
X169007143Y-97300000D01*
X169064286Y-97328571D01*
X169092857Y-97357143D01*
X169121429Y-97414286D01*
X169121429Y-97557143D01*
X169092857Y-97614286D01*
X169064286Y-97642857D01*
X169007143Y-97671429D01*
X168835715Y-97671429D01*
X168778572Y-97642857D01*
X168750000Y-97614286D01*
X151611905Y-111152381D02*
X151611905Y-110152381D01*
X151992858Y-110152381D01*
X152088096Y-110200000D01*
X152135715Y-110247619D01*
X152183334Y-110342857D01*
X152183334Y-110485714D01*
X152135715Y-110580952D01*
X152088096Y-110628571D01*
X151992858Y-110676190D01*
X151611905Y-110676190D01*
X153135715Y-111152381D02*
X152564286Y-111152381D01*
X152850000Y-111152381D02*
X152850000Y-110152381D01*
X152754762Y-110295238D01*
X152659524Y-110390476D01*
X152564286Y-110438095D01*
X174971429Y-111435714D02*
X174371429Y-111435714D01*
X174914286Y-110807143D02*
X174942857Y-110835714D01*
X174971429Y-110921428D01*
X174971429Y-110978571D01*
X174942857Y-111064286D01*
X174885714Y-111121428D01*
X174828571Y-111150000D01*
X174714286Y-111178571D01*
X174628571Y-111178571D01*
X174514286Y-111150000D01*
X174457143Y-111121428D01*
X174400000Y-111064286D01*
X174371429Y-110978571D01*
X174371429Y-110921428D01*
X174400000Y-110835714D01*
X174428571Y-110807143D01*
X174428571Y-110578571D02*
X174400000Y-110550000D01*
X174371429Y-110492857D01*
X174371429Y-110350000D01*
X174400000Y-110292857D01*
X174428571Y-110264286D01*
X174485714Y-110235714D01*
X174542857Y-110235714D01*
X174628571Y-110264286D01*
X174971429Y-110607143D01*
X174971429Y-110235714D01*
X165707143Y-92871429D02*
X165707143Y-92271429D01*
X165850000Y-92271429D01*
X165935715Y-92300000D01*
X165992857Y-92357143D01*
X166021429Y-92414286D01*
X166050000Y-92528571D01*
X166050000Y-92614286D01*
X166021429Y-92728571D01*
X165992857Y-92785714D01*
X165935715Y-92842857D01*
X165850000Y-92871429D01*
X165707143Y-92871429D01*
X166621429Y-92871429D02*
X166278572Y-92871429D01*
X166450000Y-92871429D02*
X166450000Y-92271429D01*
X166392857Y-92357143D01*
X166335715Y-92414286D01*
X166278572Y-92442857D01*
X161550000Y-92821429D02*
X161350000Y-92535714D01*
X161207143Y-92821429D02*
X161207143Y-92221429D01*
X161435715Y-92221429D01*
X161492857Y-92250000D01*
X161521429Y-92278571D01*
X161550000Y-92335714D01*
X161550000Y-92421429D01*
X161521429Y-92478571D01*
X161492857Y-92507143D01*
X161435715Y-92535714D01*
X161207143Y-92535714D01*
X162121429Y-92821429D02*
X161778572Y-92821429D01*
X161950000Y-92821429D02*
X161950000Y-92221429D01*
X161892857Y-92307143D01*
X161835715Y-92364286D01*
X161778572Y-92392857D01*
X168750000Y-115571429D02*
X168750000Y-116000000D01*
X168721428Y-116085714D01*
X168664285Y-116142857D01*
X168578571Y-116171429D01*
X168521428Y-116171429D01*
X169035714Y-116171429D02*
X169035714Y-115571429D01*
X169264286Y-115571429D01*
X169321428Y-115600000D01*
X169350000Y-115628571D01*
X169378571Y-115685714D01*
X169378571Y-115771429D01*
X169350000Y-115828571D01*
X169321428Y-115857143D01*
X169264286Y-115885714D01*
X169035714Y-115885714D01*
X169950000Y-116171429D02*
X169607143Y-116171429D01*
X169778571Y-116171429D02*
X169778571Y-115571429D01*
X169721428Y-115657143D01*
X169664286Y-115714286D01*
X169607143Y-115742857D01*
M02*
