G04 #@! TF.FileFunction,Soldermask,Top*
%FSLAX46Y46*%
G04 Gerber Fmt 4.6, Leading zero omitted, Abs format (unit mm)*
G04 Created by KiCad (PCBNEW 4.0.1-stable) date 2019/04/09 1:16:35*
%MOMM*%
G01*
G04 APERTURE LIST*
%ADD10C,0.100000*%
%ADD11C,3.175000*%
%ADD12C,19.400000*%
%ADD13R,2.100000X2.100000*%
%ADD14O,2.100000X2.100000*%
%ADD15R,1.900000X2.900000*%
%ADD16R,1.600000X1.300000*%
%ADD17R,1.600000X1.000000*%
G04 APERTURE END LIST*
D10*
D11*
X101700000Y-59750000D03*
X127100000Y-59750000D03*
D12*
X114400000Y-59750000D03*
D13*
X106850000Y-91650000D03*
D14*
X106850000Y-89110000D03*
X109390000Y-91650000D03*
X109390000Y-89110000D03*
X111930000Y-91650000D03*
X111930000Y-89110000D03*
X114470000Y-91650000D03*
X114470000Y-89110000D03*
X117010000Y-91650000D03*
X117010000Y-89110000D03*
X119550000Y-91650000D03*
X119550000Y-89110000D03*
X122090000Y-91650000D03*
X122090000Y-89110000D03*
D13*
X125050000Y-86150000D03*
D14*
X127590000Y-86150000D03*
D13*
X127550000Y-74950000D03*
D14*
X127550000Y-77490000D03*
X125010000Y-74950000D03*
X125010000Y-77490000D03*
D13*
X101600000Y-74350000D03*
D14*
X101600000Y-71810000D03*
D15*
X112120000Y-75800000D03*
X122280000Y-75800000D03*
X119740000Y-75800000D03*
X117200000Y-75800000D03*
X114660000Y-75800000D03*
X109580000Y-75800000D03*
X107040000Y-75800000D03*
X104500000Y-75800000D03*
X104500000Y-84800000D03*
X107040000Y-84800000D03*
X109580000Y-84800000D03*
X114660000Y-84800000D03*
X117200000Y-84800000D03*
X119740000Y-84800000D03*
X122280000Y-84800000D03*
X112120000Y-84800000D03*
D16*
X113400000Y-94650000D03*
X115600000Y-94650000D03*
D17*
X125100000Y-81050000D03*
X125100000Y-82000000D03*
X125100000Y-82950000D03*
X127600000Y-82950000D03*
X127600000Y-82000000D03*
X127600000Y-81050000D03*
D16*
X119850000Y-94650000D03*
X122050000Y-94650000D03*
M02*
