G04 #@! TF.FileFunction,Drawing*
%FSLAX46Y46*%
G04 Gerber Fmt 4.6, Leading zero omitted, Abs format (unit mm)*
G04 Created by KiCad (PCBNEW 4.0.1-stable) date 2019/04/09 1:16:35*
%MOMM*%
G01*
G04 APERTURE LIST*
%ADD10C,0.100000*%
%ADD11C,0.200000*%
%ADD12C,0.050000*%
G04 APERTURE END LIST*
D10*
D11*
X105100000Y-95500000D02*
X123800000Y-95500000D01*
X123800000Y-87500000D02*
X123800000Y-95500000D01*
X105100000Y-87500000D02*
X105100000Y-95500000D01*
X128900000Y-87500000D02*
X123800000Y-87500000D01*
X100000000Y-87500000D02*
X100000000Y-50000000D01*
X105100000Y-87500000D02*
X100000000Y-87500000D01*
X128900000Y-50000000D02*
X128900000Y-87500000D01*
X100000000Y-50000000D02*
X128900000Y-50000000D01*
D10*
X100063000Y-49950000D02*
X128670000Y-49950000D01*
X128687000Y-49950000D02*
X128687000Y-73650000D01*
X128670000Y-73650000D02*
X100063000Y-73650000D01*
X100063000Y-73650000D02*
X100063000Y-49950000D01*
D11*
X101400000Y-50050000D02*
X101400000Y-66100000D01*
X101400000Y-66100000D02*
X110650000Y-72650000D01*
X110650000Y-72650000D02*
X118150000Y-72650000D01*
X118150000Y-72650000D02*
X127400000Y-66100000D01*
X127400000Y-66100000D02*
X127400000Y-50050000D01*
X127400000Y-50050000D02*
X101400000Y-50050000D01*
D12*
X124250000Y-80250000D02*
X128450000Y-80250000D01*
X128450000Y-80250000D02*
X128450000Y-83750000D01*
X128450000Y-83750000D02*
X124250000Y-83750000D01*
X124250000Y-83750000D02*
X124250000Y-80250000D01*
D10*
X125538000Y-80550000D02*
X127162000Y-80550000D01*
X127162000Y-80550000D02*
X127162000Y-83450000D01*
X127162000Y-83450000D02*
X125538000Y-83450000D01*
X125538000Y-83450000D02*
X125538000Y-80550000D01*
X125538000Y-81500000D02*
X126488000Y-80550000D01*
M02*
