M48
;DRILL file {KiCad 4.0.1-stable} date 2019/03/03 15:39:47
;FORMAT={-:-/ absolute / inch / decimal}
FMAT,2
INCH,TZ
T1C0.016
T2C0.039
T3C0.059
T4C0.087
%
G90
G05
M72
T1
X5.8681Y-4.3081
X6.0374Y-4.5138
X6.0384Y-3.9852
X6.2864Y-3.7195
X6.2894Y-4.5531
X6.3189Y-3.9646
X6.3189Y-4.1752
X6.3199Y-4.3366
X6.5295Y-4.5571
X6.6033Y-3.8366
X6.6841Y-3.75
X6.7598Y-4.4626
X6.8967Y-3.9872
X6.8996Y-4.2323
T2
X5.9961Y-4.1726
X5.9961Y-4.2726
X6.6526Y-3.8927
X6.6535Y-3.9927
X6.6535Y-4.2711
X6.6535Y-4.3711
T3
X5.8465Y-4.134
X6.6532Y-4.134
T4
X5.9331Y-4.4547
T0
M30
