G04 #@! TF.FileFunction,Other,User*
%FSLAX46Y46*%
G04 Gerber Fmt 4.6, Leading zero omitted, Abs format (unit mm)*
G04 Created by KiCad (PCBNEW 4.0.1-stable) date 2019/03/03 15:39:44*
%MOMM*%
G01*
G04 APERTURE LIST*
%ADD10C,0.100000*%
%ADD11C,0.050000*%
G04 APERTURE END LIST*
D10*
D11*
X152850000Y-113150000D02*
G75*
G03X152850000Y-113150000I-2150000J0D01*
G01*
X170800000Y-112825000D02*
X170800000Y-106675000D01*
X170800000Y-106675000D02*
X158450000Y-106675000D01*
X158450000Y-106675000D02*
X158450000Y-112825000D01*
X158450000Y-112825000D02*
X170800000Y-112825000D01*
X170775000Y-103215000D02*
X170775000Y-97065000D01*
X170775000Y-97065000D02*
X158425000Y-97065000D01*
X158425000Y-97065000D02*
X158425000Y-103215000D01*
X158425000Y-103215000D02*
X170775000Y-103215000D01*
X154100000Y-110325000D02*
X154100000Y-104175000D01*
X154100000Y-104175000D02*
X141750000Y-104175000D01*
X141750000Y-104175000D02*
X141750000Y-110325000D01*
X141750000Y-110325000D02*
X154100000Y-110325000D01*
X171815000Y-111550000D02*
X171815000Y-105050000D01*
X171815000Y-111550000D02*
X174025000Y-111550000D01*
X174025000Y-105050000D02*
X171815000Y-105050000D01*
X174025000Y-105050000D02*
X174025000Y-111550000D01*
X171815000Y-104675000D02*
X171815000Y-98175000D01*
X171815000Y-104675000D02*
X174025000Y-104675000D01*
X174025000Y-98175000D02*
X171815000Y-98175000D01*
X174025000Y-98175000D02*
X174025000Y-104675000D01*
M02*
