G04 #@! TF.FileFunction,Other,Fab,Top*
%FSLAX46Y46*%
G04 Gerber Fmt 4.6, Leading zero omitted, Abs format (unit mm)*
G04 Created by KiCad (PCBNEW 4.0.1-stable) date 2019/03/03 15:39:44*
%MOMM*%
G01*
G04 APERTURE LIST*
%ADD10C,0.100000*%
%ADD11C,0.150000*%
%ADD12C,0.105000*%
G04 APERTURE END LIST*
D10*
X172925000Y-108700000D02*
X172525000Y-108100000D01*
X172525000Y-108100000D02*
X173325000Y-108100000D01*
X173325000Y-108100000D02*
X172925000Y-108700000D01*
X172525000Y-108750000D02*
X173325000Y-108750000D01*
X173725000Y-109900000D02*
X172125000Y-109900000D01*
X173725000Y-106700000D02*
X173725000Y-109900000D01*
X172125000Y-106700000D02*
X173725000Y-106700000D01*
X172125000Y-109900000D02*
X172125000Y-106700000D01*
X173725000Y-103025000D02*
X172125000Y-103025000D01*
X173725000Y-99825000D02*
X173725000Y-103025000D01*
X172125000Y-99825000D02*
X173725000Y-99825000D01*
X172125000Y-103025000D02*
X172125000Y-99825000D01*
D11*
X138509524Y-116502381D02*
X138509524Y-115502381D01*
X138842858Y-116216667D01*
X139176191Y-115502381D01*
X139176191Y-116502381D01*
X139795238Y-116502381D02*
X139700000Y-116454762D01*
X139652381Y-116407143D01*
X139604762Y-116311905D01*
X139604762Y-116026190D01*
X139652381Y-115930952D01*
X139700000Y-115883333D01*
X139795238Y-115835714D01*
X139938096Y-115835714D01*
X140033334Y-115883333D01*
X140080953Y-115930952D01*
X140128572Y-116026190D01*
X140128572Y-116311905D01*
X140080953Y-116407143D01*
X140033334Y-116454762D01*
X139938096Y-116502381D01*
X139795238Y-116502381D01*
X140985715Y-115835714D02*
X140985715Y-116502381D01*
X140557143Y-115835714D02*
X140557143Y-116359524D01*
X140604762Y-116454762D01*
X140700000Y-116502381D01*
X140842858Y-116502381D01*
X140938096Y-116454762D01*
X140985715Y-116407143D01*
X141461905Y-115835714D02*
X141461905Y-116502381D01*
X141461905Y-115930952D02*
X141509524Y-115883333D01*
X141604762Y-115835714D01*
X141747620Y-115835714D01*
X141842858Y-115883333D01*
X141890477Y-115978571D01*
X141890477Y-116502381D01*
X142223810Y-115835714D02*
X142604762Y-115835714D01*
X142366667Y-115502381D02*
X142366667Y-116359524D01*
X142414286Y-116454762D01*
X142509524Y-116502381D01*
X142604762Y-116502381D01*
X142938096Y-116502381D02*
X142938096Y-115835714D01*
X142938096Y-115502381D02*
X142890477Y-115550000D01*
X142938096Y-115597619D01*
X142985715Y-115550000D01*
X142938096Y-115502381D01*
X142938096Y-115597619D01*
X143414286Y-115835714D02*
X143414286Y-116502381D01*
X143414286Y-115930952D02*
X143461905Y-115883333D01*
X143557143Y-115835714D01*
X143700001Y-115835714D01*
X143795239Y-115883333D01*
X143842858Y-115978571D01*
X143842858Y-116502381D01*
X144747620Y-115835714D02*
X144747620Y-116645238D01*
X144700001Y-116740476D01*
X144652382Y-116788095D01*
X144557143Y-116835714D01*
X144414286Y-116835714D01*
X144319048Y-116788095D01*
X144747620Y-116454762D02*
X144652382Y-116502381D01*
X144461905Y-116502381D01*
X144366667Y-116454762D01*
X144319048Y-116407143D01*
X144271429Y-116311905D01*
X144271429Y-116026190D01*
X144319048Y-115930952D01*
X144366667Y-115883333D01*
X144461905Y-115835714D01*
X144652382Y-115835714D01*
X144747620Y-115883333D01*
X145223810Y-116502381D02*
X145223810Y-115502381D01*
X145223810Y-115978571D02*
X145795239Y-115978571D01*
X145795239Y-116502381D02*
X145795239Y-115502381D01*
X146414286Y-116502381D02*
X146319048Y-116454762D01*
X146271429Y-116407143D01*
X146223810Y-116311905D01*
X146223810Y-116026190D01*
X146271429Y-115930952D01*
X146319048Y-115883333D01*
X146414286Y-115835714D01*
X146557144Y-115835714D01*
X146652382Y-115883333D01*
X146700001Y-115930952D01*
X146747620Y-116026190D01*
X146747620Y-116311905D01*
X146700001Y-116407143D01*
X146652382Y-116454762D01*
X146557144Y-116502381D01*
X146414286Y-116502381D01*
X147319048Y-116502381D02*
X147223810Y-116454762D01*
X147176191Y-116359524D01*
X147176191Y-115502381D01*
X148080954Y-116454762D02*
X147985716Y-116502381D01*
X147795239Y-116502381D01*
X147700001Y-116454762D01*
X147652382Y-116359524D01*
X147652382Y-115978571D01*
X147700001Y-115883333D01*
X147795239Y-115835714D01*
X147985716Y-115835714D01*
X148080954Y-115883333D01*
X148128573Y-115978571D01*
X148128573Y-116073810D01*
X147652382Y-116169048D01*
X148319049Y-116597619D02*
X149080954Y-116597619D01*
X149271430Y-115597619D02*
X149319049Y-115550000D01*
X149414287Y-115502381D01*
X149652383Y-115502381D01*
X149747621Y-115550000D01*
X149795240Y-115597619D01*
X149842859Y-115692857D01*
X149842859Y-115788095D01*
X149795240Y-115930952D01*
X149223811Y-116502381D01*
X149842859Y-116502381D01*
X150271430Y-116407143D02*
X150319049Y-116454762D01*
X150271430Y-116502381D01*
X150223811Y-116454762D01*
X150271430Y-116407143D01*
X150271430Y-116502381D01*
X150700001Y-115597619D02*
X150747620Y-115550000D01*
X150842858Y-115502381D01*
X151080954Y-115502381D01*
X151176192Y-115550000D01*
X151223811Y-115597619D01*
X151271430Y-115692857D01*
X151271430Y-115788095D01*
X151223811Y-115930952D01*
X150652382Y-116502381D01*
X151271430Y-116502381D01*
X151700001Y-116502381D02*
X151700001Y-115835714D01*
X151700001Y-115930952D02*
X151747620Y-115883333D01*
X151842858Y-115835714D01*
X151985716Y-115835714D01*
X152080954Y-115883333D01*
X152128573Y-115978571D01*
X152128573Y-116502381D01*
X152128573Y-115978571D02*
X152176192Y-115883333D01*
X152271430Y-115835714D01*
X152414287Y-115835714D01*
X152509525Y-115883333D01*
X152557144Y-115978571D01*
X152557144Y-116502381D01*
X153033334Y-116502381D02*
X153033334Y-115835714D01*
X153033334Y-115930952D02*
X153080953Y-115883333D01*
X153176191Y-115835714D01*
X153319049Y-115835714D01*
X153414287Y-115883333D01*
X153461906Y-115978571D01*
X153461906Y-116502381D01*
X153461906Y-115978571D02*
X153509525Y-115883333D01*
X153604763Y-115835714D01*
X153747620Y-115835714D01*
X153842858Y-115883333D01*
X153890477Y-115978571D01*
X153890477Y-116502381D01*
X154128572Y-116597619D02*
X154890477Y-116597619D01*
X155128572Y-116502381D02*
X155128572Y-115502381D01*
X155461906Y-116216667D01*
X155795239Y-115502381D01*
X155795239Y-116502381D01*
X156223810Y-115597619D02*
X156271429Y-115550000D01*
X156366667Y-115502381D01*
X156604763Y-115502381D01*
X156700001Y-115550000D01*
X156747620Y-115597619D01*
X156795239Y-115692857D01*
X156795239Y-115788095D01*
X156747620Y-115930952D01*
X156176191Y-116502381D01*
X156795239Y-116502381D01*
X156985715Y-116597619D02*
X157747620Y-116597619D01*
X157985715Y-116502381D02*
X157985715Y-115502381D01*
X158223810Y-115502381D01*
X158366668Y-115550000D01*
X158461906Y-115645238D01*
X158509525Y-115740476D01*
X158557144Y-115930952D01*
X158557144Y-116073810D01*
X158509525Y-116264286D01*
X158461906Y-116359524D01*
X158366668Y-116454762D01*
X158223810Y-116502381D01*
X157985715Y-116502381D01*
X158985715Y-116502381D02*
X158985715Y-115502381D01*
X159461905Y-116502381D02*
X159461905Y-115502381D01*
X160033334Y-116502381D01*
X160033334Y-115502381D01*
X160557143Y-116502381D02*
X160747619Y-116502381D01*
X160842858Y-116454762D01*
X160890477Y-116407143D01*
X160985715Y-116264286D01*
X161033334Y-116073810D01*
X161033334Y-115692857D01*
X160985715Y-115597619D01*
X160938096Y-115550000D01*
X160842858Y-115502381D01*
X160652381Y-115502381D01*
X160557143Y-115550000D01*
X160509524Y-115597619D01*
X160461905Y-115692857D01*
X160461905Y-115930952D01*
X160509524Y-116026190D01*
X160557143Y-116073810D01*
X160652381Y-116121429D01*
X160842858Y-116121429D01*
X160938096Y-116073810D01*
X160985715Y-116026190D01*
X161033334Y-115930952D01*
X161890477Y-115502381D02*
X161700000Y-115502381D01*
X161604762Y-115550000D01*
X161557143Y-115597619D01*
X161461905Y-115740476D01*
X161414286Y-115930952D01*
X161414286Y-116311905D01*
X161461905Y-116407143D01*
X161509524Y-116454762D01*
X161604762Y-116502381D01*
X161795239Y-116502381D01*
X161890477Y-116454762D01*
X161938096Y-116407143D01*
X161985715Y-116311905D01*
X161985715Y-116073810D01*
X161938096Y-115978571D01*
X161890477Y-115930952D01*
X161795239Y-115883333D01*
X161604762Y-115883333D01*
X161509524Y-115930952D01*
X161461905Y-115978571D01*
X161414286Y-116073810D01*
X162890477Y-115502381D02*
X162414286Y-115502381D01*
X162366667Y-115978571D01*
X162414286Y-115930952D01*
X162509524Y-115883333D01*
X162747620Y-115883333D01*
X162842858Y-115930952D01*
X162890477Y-115978571D01*
X162938096Y-116073810D01*
X162938096Y-116311905D01*
X162890477Y-116407143D01*
X162842858Y-116454762D01*
X162747620Y-116502381D01*
X162509524Y-116502381D01*
X162414286Y-116454762D01*
X162366667Y-116407143D01*
X149476191Y-113602381D02*
X149142857Y-113126190D01*
X148904762Y-113602381D02*
X148904762Y-112602381D01*
X149285715Y-112602381D01*
X149380953Y-112650000D01*
X149428572Y-112697619D01*
X149476191Y-112792857D01*
X149476191Y-112935714D01*
X149428572Y-113030952D01*
X149380953Y-113078571D01*
X149285715Y-113126190D01*
X148904762Y-113126190D01*
X149904762Y-113078571D02*
X150238096Y-113078571D01*
X150380953Y-113602381D02*
X149904762Y-113602381D01*
X149904762Y-112602381D01*
X150380953Y-112602381D01*
X151142858Y-113078571D02*
X150809524Y-113078571D01*
X150809524Y-113602381D02*
X150809524Y-112602381D01*
X151285715Y-112602381D01*
X151857143Y-112602381D02*
X151952382Y-112602381D01*
X152047620Y-112650000D01*
X152095239Y-112697619D01*
X152142858Y-112792857D01*
X152190477Y-112983333D01*
X152190477Y-113221429D01*
X152142858Y-113411905D01*
X152095239Y-113507143D01*
X152047620Y-113554762D01*
X151952382Y-113602381D01*
X151857143Y-113602381D01*
X151761905Y-113554762D01*
X151714286Y-113507143D01*
X151666667Y-113411905D01*
X151619048Y-113221429D01*
X151619048Y-112983333D01*
X151666667Y-112792857D01*
X151714286Y-112697619D01*
X151761905Y-112650000D01*
X151857143Y-112602381D01*
X153142858Y-113602381D02*
X152571429Y-113602381D01*
X152857143Y-113602381D02*
X152857143Y-112602381D01*
X152761905Y-112745238D01*
X152666667Y-112840476D01*
X152571429Y-112888095D01*
X160591191Y-106572143D02*
X160543572Y-106619762D01*
X160400715Y-106667381D01*
X160305477Y-106667381D01*
X160162619Y-106619762D01*
X160067381Y-106524524D01*
X160019762Y-106429286D01*
X159972143Y-106238810D01*
X159972143Y-106095952D01*
X160019762Y-105905476D01*
X160067381Y-105810238D01*
X160162619Y-105715000D01*
X160305477Y-105667381D01*
X160400715Y-105667381D01*
X160543572Y-105715000D01*
X160591191Y-105762619D01*
X161210238Y-105667381D02*
X161400715Y-105667381D01*
X161495953Y-105715000D01*
X161591191Y-105810238D01*
X161638810Y-106000714D01*
X161638810Y-106334048D01*
X161591191Y-106524524D01*
X161495953Y-106619762D01*
X161400715Y-106667381D01*
X161210238Y-106667381D01*
X161115000Y-106619762D01*
X161019762Y-106524524D01*
X160972143Y-106334048D01*
X160972143Y-106000714D01*
X161019762Y-105810238D01*
X161115000Y-105715000D01*
X161210238Y-105667381D01*
X162067381Y-106667381D02*
X162067381Y-105667381D01*
X162638810Y-106667381D01*
X162638810Y-105667381D01*
X163115000Y-106667381D02*
X163115000Y-105667381D01*
X163686429Y-106667381D01*
X163686429Y-105667381D01*
X163924524Y-106762619D02*
X164686429Y-106762619D01*
X165115000Y-105667381D02*
X165210239Y-105667381D01*
X165305477Y-105715000D01*
X165353096Y-105762619D01*
X165400715Y-105857857D01*
X165448334Y-106048333D01*
X165448334Y-106286429D01*
X165400715Y-106476905D01*
X165353096Y-106572143D01*
X165305477Y-106619762D01*
X165210239Y-106667381D01*
X165115000Y-106667381D01*
X165019762Y-106619762D01*
X164972143Y-106572143D01*
X164924524Y-106476905D01*
X164876905Y-106286429D01*
X164876905Y-106048333D01*
X164924524Y-105857857D01*
X164972143Y-105762619D01*
X165019762Y-105715000D01*
X165115000Y-105667381D01*
X166400715Y-106667381D02*
X165829286Y-106667381D01*
X166115000Y-106667381D02*
X166115000Y-105667381D01*
X166019762Y-105810238D01*
X165924524Y-105905476D01*
X165829286Y-105953095D01*
X166734048Y-105667381D02*
X167400715Y-106667381D01*
X167400715Y-105667381D02*
X166734048Y-106667381D01*
X167972143Y-105667381D02*
X168067382Y-105667381D01*
X168162620Y-105715000D01*
X168210239Y-105762619D01*
X168257858Y-105857857D01*
X168305477Y-106048333D01*
X168305477Y-106286429D01*
X168257858Y-106476905D01*
X168210239Y-106572143D01*
X168162620Y-106619762D01*
X168067382Y-106667381D01*
X167972143Y-106667381D01*
X167876905Y-106619762D01*
X167829286Y-106572143D01*
X167781667Y-106476905D01*
X167734048Y-106286429D01*
X167734048Y-106048333D01*
X167781667Y-105857857D01*
X167829286Y-105762619D01*
X167876905Y-105715000D01*
X167972143Y-105667381D01*
X168686429Y-105762619D02*
X168734048Y-105715000D01*
X168829286Y-105667381D01*
X169067382Y-105667381D01*
X169162620Y-105715000D01*
X169210239Y-105762619D01*
X169257858Y-105857857D01*
X169257858Y-105953095D01*
X169210239Y-106095952D01*
X168638810Y-106667381D01*
X169257858Y-106667381D01*
X160566191Y-96962143D02*
X160518572Y-97009762D01*
X160375715Y-97057381D01*
X160280477Y-97057381D01*
X160137619Y-97009762D01*
X160042381Y-96914524D01*
X159994762Y-96819286D01*
X159947143Y-96628810D01*
X159947143Y-96485952D01*
X159994762Y-96295476D01*
X160042381Y-96200238D01*
X160137619Y-96105000D01*
X160280477Y-96057381D01*
X160375715Y-96057381D01*
X160518572Y-96105000D01*
X160566191Y-96152619D01*
X161185238Y-96057381D02*
X161375715Y-96057381D01*
X161470953Y-96105000D01*
X161566191Y-96200238D01*
X161613810Y-96390714D01*
X161613810Y-96724048D01*
X161566191Y-96914524D01*
X161470953Y-97009762D01*
X161375715Y-97057381D01*
X161185238Y-97057381D01*
X161090000Y-97009762D01*
X160994762Y-96914524D01*
X160947143Y-96724048D01*
X160947143Y-96390714D01*
X160994762Y-96200238D01*
X161090000Y-96105000D01*
X161185238Y-96057381D01*
X162042381Y-97057381D02*
X162042381Y-96057381D01*
X162613810Y-97057381D01*
X162613810Y-96057381D01*
X163090000Y-97057381D02*
X163090000Y-96057381D01*
X163661429Y-97057381D01*
X163661429Y-96057381D01*
X163899524Y-97152619D02*
X164661429Y-97152619D01*
X165090000Y-96057381D02*
X165185239Y-96057381D01*
X165280477Y-96105000D01*
X165328096Y-96152619D01*
X165375715Y-96247857D01*
X165423334Y-96438333D01*
X165423334Y-96676429D01*
X165375715Y-96866905D01*
X165328096Y-96962143D01*
X165280477Y-97009762D01*
X165185239Y-97057381D01*
X165090000Y-97057381D01*
X164994762Y-97009762D01*
X164947143Y-96962143D01*
X164899524Y-96866905D01*
X164851905Y-96676429D01*
X164851905Y-96438333D01*
X164899524Y-96247857D01*
X164947143Y-96152619D01*
X164994762Y-96105000D01*
X165090000Y-96057381D01*
X166375715Y-97057381D02*
X165804286Y-97057381D01*
X166090000Y-97057381D02*
X166090000Y-96057381D01*
X165994762Y-96200238D01*
X165899524Y-96295476D01*
X165804286Y-96343095D01*
X166709048Y-96057381D02*
X167375715Y-97057381D01*
X167375715Y-96057381D02*
X166709048Y-97057381D01*
X167947143Y-96057381D02*
X168042382Y-96057381D01*
X168137620Y-96105000D01*
X168185239Y-96152619D01*
X168232858Y-96247857D01*
X168280477Y-96438333D01*
X168280477Y-96676429D01*
X168232858Y-96866905D01*
X168185239Y-96962143D01*
X168137620Y-97009762D01*
X168042382Y-97057381D01*
X167947143Y-97057381D01*
X167851905Y-97009762D01*
X167804286Y-96962143D01*
X167756667Y-96866905D01*
X167709048Y-96676429D01*
X167709048Y-96438333D01*
X167756667Y-96247857D01*
X167804286Y-96152619D01*
X167851905Y-96105000D01*
X167947143Y-96057381D01*
X168661429Y-96152619D02*
X168709048Y-96105000D01*
X168804286Y-96057381D01*
X169042382Y-96057381D01*
X169137620Y-96105000D01*
X169185239Y-96152619D01*
X169232858Y-96247857D01*
X169232858Y-96343095D01*
X169185239Y-96485952D01*
X168613810Y-97057381D01*
X169232858Y-97057381D01*
X143891191Y-104072143D02*
X143843572Y-104119762D01*
X143700715Y-104167381D01*
X143605477Y-104167381D01*
X143462619Y-104119762D01*
X143367381Y-104024524D01*
X143319762Y-103929286D01*
X143272143Y-103738810D01*
X143272143Y-103595952D01*
X143319762Y-103405476D01*
X143367381Y-103310238D01*
X143462619Y-103215000D01*
X143605477Y-103167381D01*
X143700715Y-103167381D01*
X143843572Y-103215000D01*
X143891191Y-103262619D01*
X144510238Y-103167381D02*
X144700715Y-103167381D01*
X144795953Y-103215000D01*
X144891191Y-103310238D01*
X144938810Y-103500714D01*
X144938810Y-103834048D01*
X144891191Y-104024524D01*
X144795953Y-104119762D01*
X144700715Y-104167381D01*
X144510238Y-104167381D01*
X144415000Y-104119762D01*
X144319762Y-104024524D01*
X144272143Y-103834048D01*
X144272143Y-103500714D01*
X144319762Y-103310238D01*
X144415000Y-103215000D01*
X144510238Y-103167381D01*
X145367381Y-104167381D02*
X145367381Y-103167381D01*
X145938810Y-104167381D01*
X145938810Y-103167381D01*
X146415000Y-104167381D02*
X146415000Y-103167381D01*
X146986429Y-104167381D01*
X146986429Y-103167381D01*
X147224524Y-104262619D02*
X147986429Y-104262619D01*
X148415000Y-103167381D02*
X148510239Y-103167381D01*
X148605477Y-103215000D01*
X148653096Y-103262619D01*
X148700715Y-103357857D01*
X148748334Y-103548333D01*
X148748334Y-103786429D01*
X148700715Y-103976905D01*
X148653096Y-104072143D01*
X148605477Y-104119762D01*
X148510239Y-104167381D01*
X148415000Y-104167381D01*
X148319762Y-104119762D01*
X148272143Y-104072143D01*
X148224524Y-103976905D01*
X148176905Y-103786429D01*
X148176905Y-103548333D01*
X148224524Y-103357857D01*
X148272143Y-103262619D01*
X148319762Y-103215000D01*
X148415000Y-103167381D01*
X149700715Y-104167381D02*
X149129286Y-104167381D01*
X149415000Y-104167381D02*
X149415000Y-103167381D01*
X149319762Y-103310238D01*
X149224524Y-103405476D01*
X149129286Y-103453095D01*
X150034048Y-103167381D02*
X150700715Y-104167381D01*
X150700715Y-103167381D02*
X150034048Y-104167381D01*
X151272143Y-103167381D02*
X151367382Y-103167381D01*
X151462620Y-103215000D01*
X151510239Y-103262619D01*
X151557858Y-103357857D01*
X151605477Y-103548333D01*
X151605477Y-103786429D01*
X151557858Y-103976905D01*
X151510239Y-104072143D01*
X151462620Y-104119762D01*
X151367382Y-104167381D01*
X151272143Y-104167381D01*
X151176905Y-104119762D01*
X151129286Y-104072143D01*
X151081667Y-103976905D01*
X151034048Y-103786429D01*
X151034048Y-103548333D01*
X151081667Y-103357857D01*
X151129286Y-103262619D01*
X151176905Y-103215000D01*
X151272143Y-103167381D01*
X151986429Y-103262619D02*
X152034048Y-103215000D01*
X152129286Y-103167381D01*
X152367382Y-103167381D01*
X152462620Y-103215000D01*
X152510239Y-103262619D01*
X152557858Y-103357857D01*
X152557858Y-103453095D01*
X152510239Y-103595952D01*
X151938810Y-104167381D01*
X152557858Y-104167381D01*
X156071428Y-106966667D02*
X156547619Y-106966667D01*
X155976190Y-107252381D02*
X156309523Y-106252381D01*
X156642857Y-107252381D01*
X156976190Y-106728571D02*
X157309524Y-106728571D01*
X157452381Y-107252381D02*
X156976190Y-107252381D01*
X156976190Y-106252381D01*
X157452381Y-106252381D01*
X157880952Y-106871429D02*
X158642857Y-106871429D01*
X158976190Y-106252381D02*
X159547619Y-106252381D01*
X159261904Y-107252381D02*
X159261904Y-106252381D01*
X160071428Y-106776190D02*
X160071428Y-107252381D01*
X159738095Y-106252381D02*
X160071428Y-106776190D01*
X160404762Y-106252381D01*
X161071429Y-106728571D02*
X161214286Y-106776190D01*
X161261905Y-106823810D01*
X161309524Y-106919048D01*
X161309524Y-107061905D01*
X161261905Y-107157143D01*
X161214286Y-107204762D01*
X161119048Y-107252381D01*
X160738095Y-107252381D01*
X160738095Y-106252381D01*
X161071429Y-106252381D01*
X161166667Y-106300000D01*
X161214286Y-106347619D01*
X161261905Y-106442857D01*
X161261905Y-106538095D01*
X161214286Y-106633333D01*
X161166667Y-106680952D01*
X161071429Y-106728571D01*
X160738095Y-106728571D01*
X162214286Y-107252381D02*
X161738095Y-107252381D01*
X161738095Y-106252381D01*
X162547619Y-106728571D02*
X162880953Y-106728571D01*
X163023810Y-107252381D02*
X162547619Y-107252381D01*
X162547619Y-106252381D01*
X163023810Y-106252381D01*
X163976191Y-107252381D02*
X163404762Y-107252381D01*
X163690476Y-107252381D02*
X163690476Y-106252381D01*
X163595238Y-106395238D01*
X163500000Y-106490476D01*
X163404762Y-106538095D01*
X164833334Y-106252381D02*
X164642857Y-106252381D01*
X164547619Y-106300000D01*
X164500000Y-106347619D01*
X164404762Y-106490476D01*
X164357143Y-106680952D01*
X164357143Y-107061905D01*
X164404762Y-107157143D01*
X164452381Y-107204762D01*
X164547619Y-107252381D01*
X164738096Y-107252381D01*
X164833334Y-107204762D01*
X164880953Y-107157143D01*
X164928572Y-107061905D01*
X164928572Y-106823810D01*
X164880953Y-106728571D01*
X164833334Y-106680952D01*
X164738096Y-106633333D01*
X164547619Y-106633333D01*
X164452381Y-106680952D01*
X164404762Y-106728571D01*
X164357143Y-106823810D01*
X175277381Y-108942857D02*
X175277381Y-109419048D01*
X174277381Y-109419048D01*
X174753571Y-108609524D02*
X174753571Y-108276190D01*
X175277381Y-108133333D02*
X175277381Y-108609524D01*
X174277381Y-108609524D01*
X174277381Y-108133333D01*
X175277381Y-107704762D02*
X174277381Y-107704762D01*
X174277381Y-107466667D01*
X174325000Y-107323809D01*
X174420238Y-107228571D01*
X174515476Y-107180952D01*
X174705952Y-107133333D01*
X174848810Y-107133333D01*
X175039286Y-107180952D01*
X175134524Y-107228571D01*
X175229762Y-107323809D01*
X175277381Y-107466667D01*
X175277381Y-107704762D01*
X175277381Y-101115476D02*
X174801190Y-101448810D01*
X175277381Y-101686905D02*
X174277381Y-101686905D01*
X174277381Y-101305952D01*
X174325000Y-101210714D01*
X174372619Y-101163095D01*
X174467857Y-101115476D01*
X174610714Y-101115476D01*
X174705952Y-101163095D01*
X174753571Y-101210714D01*
X174801190Y-101305952D01*
X174801190Y-101686905D01*
D12*
X173241667Y-101541666D02*
X172908333Y-101775000D01*
X173241667Y-101941666D02*
X172541667Y-101941666D01*
X172541667Y-101675000D01*
X172575000Y-101608333D01*
X172608333Y-101575000D01*
X172675000Y-101541666D01*
X172775000Y-101541666D01*
X172841667Y-101575000D01*
X172875000Y-101608333D01*
X172908333Y-101675000D01*
X172908333Y-101941666D01*
X173241667Y-100875000D02*
X173241667Y-101275000D01*
X173241667Y-101075000D02*
X172541667Y-101075000D01*
X172641667Y-101141666D01*
X172708333Y-101208333D01*
X172741667Y-101275000D01*
M02*
