M48
;DRILL file {KiCad 4.0.1-stable} date 2019/04/06 0:16:58
;FORMAT={-:-/ absolute / inch / decimal}
FMAT,2
INCH,TZ
T1C0.016
T2C0.039
T3C0.059
T4C0.087
%
G90
G05
M72
T1
X6.0059Y-4.0059
X6.1142Y-4.5906
X6.2252Y-4.275
X6.248Y-3.7382
X6.25Y-3.7008
X6.3248Y-4.5118
X6.3307Y-4.1339
X6.3346Y-4.311
X6.3642Y-3.813
X6.5197Y-4.5768
X6.6437Y-3.7323
X6.7185Y-4.0551
X6.7736Y-3.8661
X6.7901Y-4.4568
X6.8278Y-4.3642
T2
X5.9961Y-4.1726
X5.9961Y-4.2726
X6.6378Y-3.8921
X6.6378Y-4.274
X6.6378Y-4.374
X6.6388Y-3.9921
X6.8189Y-3.9921
X6.8189Y-4.0921
X6.8189Y-4.1921
T3
X5.8465Y-4.134
X6.6532Y-4.134
T4
X5.9331Y-4.4547
T0
M30
