G04 #@! TF.FileFunction,Legend,Bot*
%FSLAX46Y46*%
G04 Gerber Fmt 4.6, Leading zero omitted, Abs format (unit mm)*
G04 Created by KiCad (PCBNEW 4.0.1-stable) date 2019/04/09 1:16:35*
%MOMM*%
G01*
G04 APERTURE LIST*
%ADD10C,0.100000*%
%ADD11C,0.250000*%
%ADD12C,0.750000*%
%ADD13C,0.150000*%
%ADD14C,0.300000*%
G04 APERTURE END LIST*
D10*
D11*
X127340476Y-62532143D02*
X127388095Y-62579762D01*
X127530952Y-62627381D01*
X127626190Y-62627381D01*
X127769048Y-62579762D01*
X127864286Y-62484524D01*
X127911905Y-62389286D01*
X127959524Y-62198810D01*
X127959524Y-62055952D01*
X127911905Y-61865476D01*
X127864286Y-61770238D01*
X127769048Y-61675000D01*
X127626190Y-61627381D01*
X127530952Y-61627381D01*
X127388095Y-61675000D01*
X127340476Y-61722619D01*
X126483333Y-62627381D02*
X126483333Y-62103571D01*
X126530952Y-62008333D01*
X126626190Y-61960714D01*
X126816667Y-61960714D01*
X126911905Y-62008333D01*
X126483333Y-62579762D02*
X126578571Y-62627381D01*
X126816667Y-62627381D01*
X126911905Y-62579762D01*
X126959524Y-62484524D01*
X126959524Y-62389286D01*
X126911905Y-62294048D01*
X126816667Y-62246429D01*
X126578571Y-62246429D01*
X126483333Y-62198810D01*
X126054762Y-62579762D02*
X125959524Y-62627381D01*
X125769048Y-62627381D01*
X125673809Y-62579762D01*
X125626190Y-62484524D01*
X125626190Y-62436905D01*
X125673809Y-62341667D01*
X125769048Y-62294048D01*
X125911905Y-62294048D01*
X126007143Y-62246429D01*
X126054762Y-62151190D01*
X126054762Y-62103571D01*
X126007143Y-62008333D01*
X125911905Y-61960714D01*
X125769048Y-61960714D01*
X125673809Y-62008333D01*
X124816666Y-62579762D02*
X124911904Y-62627381D01*
X125102381Y-62627381D01*
X125197619Y-62579762D01*
X125245238Y-62484524D01*
X125245238Y-62103571D01*
X125197619Y-62008333D01*
X125102381Y-61960714D01*
X124911904Y-61960714D01*
X124816666Y-62008333D01*
X124769047Y-62103571D01*
X124769047Y-62198810D01*
X125245238Y-62294048D01*
X124340476Y-62532143D02*
X124292857Y-62579762D01*
X124340476Y-62627381D01*
X124388095Y-62579762D01*
X124340476Y-62532143D01*
X124340476Y-62627381D01*
X124340476Y-62008333D02*
X124292857Y-62055952D01*
X124340476Y-62103571D01*
X124388095Y-62055952D01*
X124340476Y-62008333D01*
X124340476Y-62103571D01*
X123245238Y-61627381D02*
X122673809Y-61627381D01*
X122959524Y-62627381D02*
X122959524Y-61627381D01*
X121911904Y-62627381D02*
X121911904Y-62103571D01*
X121959523Y-62008333D01*
X122054761Y-61960714D01*
X122245238Y-61960714D01*
X122340476Y-62008333D01*
X121911904Y-62579762D02*
X122007142Y-62627381D01*
X122245238Y-62627381D01*
X122340476Y-62579762D01*
X122388095Y-62484524D01*
X122388095Y-62389286D01*
X122340476Y-62294048D01*
X122245238Y-62246429D01*
X122007142Y-62246429D01*
X121911904Y-62198810D01*
X121435714Y-62627381D02*
X121435714Y-61627381D01*
X121340476Y-62246429D02*
X121054761Y-62627381D01*
X121054761Y-61960714D02*
X121435714Y-62341667D01*
X120197618Y-62627381D02*
X120197618Y-62103571D01*
X120245237Y-62008333D01*
X120340475Y-61960714D01*
X120530952Y-61960714D01*
X120626190Y-62008333D01*
X120197618Y-62579762D02*
X120292856Y-62627381D01*
X120530952Y-62627381D01*
X120626190Y-62579762D01*
X120673809Y-62484524D01*
X120673809Y-62389286D01*
X120626190Y-62294048D01*
X120530952Y-62246429D01*
X120292856Y-62246429D01*
X120197618Y-62198810D01*
X119292856Y-62579762D02*
X119388094Y-62627381D01*
X119578571Y-62627381D01*
X119673809Y-62579762D01*
X119721428Y-62532143D01*
X119769047Y-62436905D01*
X119769047Y-62151190D01*
X119721428Y-62055952D01*
X119673809Y-62008333D01*
X119578571Y-61960714D01*
X119388094Y-61960714D01*
X119292856Y-62008333D01*
X118864285Y-62627381D02*
X118864285Y-61627381D01*
X118435713Y-62627381D02*
X118435713Y-62103571D01*
X118483332Y-62008333D01*
X118578570Y-61960714D01*
X118721428Y-61960714D01*
X118816666Y-62008333D01*
X118864285Y-62055952D01*
X117959523Y-62627381D02*
X117959523Y-61960714D01*
X117959523Y-61627381D02*
X118007142Y-61675000D01*
X117959523Y-61722619D01*
X117911904Y-61675000D01*
X117959523Y-61627381D01*
X117959523Y-61722619D01*
X116721428Y-62627381D02*
X116721428Y-61627381D01*
X116340475Y-61627381D01*
X116245237Y-61675000D01*
X116197618Y-61722619D01*
X116149999Y-61817857D01*
X116149999Y-61960714D01*
X116197618Y-62055952D01*
X116245237Y-62103571D01*
X116340475Y-62151190D01*
X116721428Y-62151190D01*
X115769047Y-62579762D02*
X115626190Y-62627381D01*
X115388094Y-62627381D01*
X115292856Y-62579762D01*
X115245237Y-62532143D01*
X115197618Y-62436905D01*
X115197618Y-62341667D01*
X115245237Y-62246429D01*
X115292856Y-62198810D01*
X115388094Y-62151190D01*
X115578571Y-62103571D01*
X115673809Y-62055952D01*
X115721428Y-62008333D01*
X115769047Y-61913095D01*
X115769047Y-61817857D01*
X115721428Y-61722619D01*
X115673809Y-61675000D01*
X115578571Y-61627381D01*
X115340475Y-61627381D01*
X115197618Y-61675000D01*
X114769047Y-62246429D02*
X114007142Y-62246429D01*
X113102380Y-61627381D02*
X113292857Y-61627381D01*
X113388095Y-61675000D01*
X113435714Y-61722619D01*
X113530952Y-61865476D01*
X113578571Y-62055952D01*
X113578571Y-62436905D01*
X113530952Y-62532143D01*
X113483333Y-62579762D01*
X113388095Y-62627381D01*
X113197618Y-62627381D01*
X113102380Y-62579762D01*
X113054761Y-62532143D01*
X113007142Y-62436905D01*
X113007142Y-62198810D01*
X113054761Y-62103571D01*
X113102380Y-62055952D01*
X113197618Y-62008333D01*
X113388095Y-62008333D01*
X113483333Y-62055952D01*
X113530952Y-62103571D01*
X113578571Y-62198810D01*
X112149999Y-61960714D02*
X112149999Y-62627381D01*
X112388095Y-61579762D02*
X112626190Y-62294048D01*
X112007142Y-62294048D01*
X127340476Y-64277381D02*
X127673810Y-63801190D01*
X127911905Y-64277381D02*
X127911905Y-63277381D01*
X127530952Y-63277381D01*
X127435714Y-63325000D01*
X127388095Y-63372619D01*
X127340476Y-63467857D01*
X127340476Y-63610714D01*
X127388095Y-63705952D01*
X127435714Y-63753571D01*
X127530952Y-63801190D01*
X127911905Y-63801190D01*
X126388095Y-64277381D02*
X126959524Y-64277381D01*
X126673810Y-64277381D02*
X126673810Y-63277381D01*
X126769048Y-63420238D01*
X126864286Y-63515476D01*
X126959524Y-63563095D01*
X125245238Y-63229762D02*
X126102381Y-64515476D01*
X124911905Y-64277381D02*
X124911905Y-63277381D01*
X124673810Y-63277381D01*
X124530952Y-63325000D01*
X124435714Y-63420238D01*
X124388095Y-63515476D01*
X124340476Y-63705952D01*
X124340476Y-63848810D01*
X124388095Y-64039286D01*
X124435714Y-64134524D01*
X124530952Y-64229762D01*
X124673810Y-64277381D01*
X124911905Y-64277381D01*
X123388095Y-64277381D02*
X123959524Y-64277381D01*
X123673810Y-64277381D02*
X123673810Y-63277381D01*
X123769048Y-63420238D01*
X123864286Y-63515476D01*
X123959524Y-63563095D01*
X122959524Y-64182143D02*
X122911905Y-64229762D01*
X122959524Y-64277381D01*
X123007143Y-64229762D01*
X122959524Y-64182143D01*
X122959524Y-64277381D01*
X122959524Y-63658333D02*
X122911905Y-63705952D01*
X122959524Y-63753571D01*
X123007143Y-63705952D01*
X122959524Y-63658333D01*
X122959524Y-63753571D01*
X121530953Y-63277381D02*
X121435714Y-63277381D01*
X121340476Y-63325000D01*
X121292857Y-63372619D01*
X121245238Y-63467857D01*
X121197619Y-63658333D01*
X121197619Y-63896429D01*
X121245238Y-64086905D01*
X121292857Y-64182143D01*
X121340476Y-64229762D01*
X121435714Y-64277381D01*
X121530953Y-64277381D01*
X121626191Y-64229762D01*
X121673810Y-64182143D01*
X121721429Y-64086905D01*
X121769048Y-63896429D01*
X121769048Y-63658333D01*
X121721429Y-63467857D01*
X121673810Y-63372619D01*
X121626191Y-63325000D01*
X121530953Y-63277381D01*
X120340476Y-63277381D02*
X120530953Y-63277381D01*
X120626191Y-63325000D01*
X120673810Y-63372619D01*
X120769048Y-63515476D01*
X120816667Y-63705952D01*
X120816667Y-64086905D01*
X120769048Y-64182143D01*
X120721429Y-64229762D01*
X120626191Y-64277381D01*
X120435714Y-64277381D01*
X120340476Y-64229762D01*
X120292857Y-64182143D01*
X120245238Y-64086905D01*
X120245238Y-63848810D01*
X120292857Y-63753571D01*
X120340476Y-63705952D01*
X120435714Y-63658333D01*
X120626191Y-63658333D01*
X120721429Y-63705952D01*
X120769048Y-63753571D01*
X120816667Y-63848810D01*
X119626191Y-63277381D02*
X119530952Y-63277381D01*
X119435714Y-63325000D01*
X119388095Y-63372619D01*
X119340476Y-63467857D01*
X119292857Y-63658333D01*
X119292857Y-63896429D01*
X119340476Y-64086905D01*
X119388095Y-64182143D01*
X119435714Y-64229762D01*
X119530952Y-64277381D01*
X119626191Y-64277381D01*
X119721429Y-64229762D01*
X119769048Y-64182143D01*
X119816667Y-64086905D01*
X119864286Y-63896429D01*
X119864286Y-63658333D01*
X119816667Y-63467857D01*
X119769048Y-63372619D01*
X119721429Y-63325000D01*
X119626191Y-63277381D01*
X118959524Y-63277381D02*
X118340476Y-63277381D01*
X118673810Y-63658333D01*
X118530952Y-63658333D01*
X118435714Y-63705952D01*
X118388095Y-63753571D01*
X118340476Y-63848810D01*
X118340476Y-64086905D01*
X118388095Y-64182143D01*
X118435714Y-64229762D01*
X118530952Y-64277381D01*
X118816667Y-64277381D01*
X118911905Y-64229762D01*
X118959524Y-64182143D01*
X127711905Y-56127381D02*
X127711905Y-55127381D01*
X127283333Y-56127381D02*
X127283333Y-55603571D01*
X127330952Y-55508333D01*
X127426190Y-55460714D01*
X127569048Y-55460714D01*
X127664286Y-55508333D01*
X127711905Y-55555952D01*
X126950000Y-55460714D02*
X126569048Y-55460714D01*
X126807143Y-55127381D02*
X126807143Y-55984524D01*
X126759524Y-56079762D01*
X126664286Y-56127381D01*
X126569048Y-56127381D01*
X126378571Y-55460714D02*
X125997619Y-55460714D01*
X126235714Y-55127381D02*
X126235714Y-55984524D01*
X126188095Y-56079762D01*
X126092857Y-56127381D01*
X125997619Y-56127381D01*
X125664285Y-55460714D02*
X125664285Y-56460714D01*
X125664285Y-55508333D02*
X125569047Y-55460714D01*
X125378570Y-55460714D01*
X125283332Y-55508333D01*
X125235713Y-55555952D01*
X125188094Y-55651190D01*
X125188094Y-55936905D01*
X125235713Y-56032143D01*
X125283332Y-56079762D01*
X125378570Y-56127381D01*
X125569047Y-56127381D01*
X125664285Y-56079762D01*
X124807142Y-56079762D02*
X124711904Y-56127381D01*
X124521428Y-56127381D01*
X124426189Y-56079762D01*
X124378570Y-55984524D01*
X124378570Y-55936905D01*
X124426189Y-55841667D01*
X124521428Y-55794048D01*
X124664285Y-55794048D01*
X124759523Y-55746429D01*
X124807142Y-55651190D01*
X124807142Y-55603571D01*
X124759523Y-55508333D01*
X124664285Y-55460714D01*
X124521428Y-55460714D01*
X124426189Y-55508333D01*
X123949999Y-56032143D02*
X123902380Y-56079762D01*
X123949999Y-56127381D01*
X123997618Y-56079762D01*
X123949999Y-56032143D01*
X123949999Y-56127381D01*
X123949999Y-55508333D02*
X123902380Y-55555952D01*
X123949999Y-55603571D01*
X123997618Y-55555952D01*
X123949999Y-55508333D01*
X123949999Y-55603571D01*
X122759523Y-55079762D02*
X123616666Y-56365476D01*
X121711904Y-55079762D02*
X122569047Y-56365476D01*
X120949999Y-55460714D02*
X120949999Y-56270238D01*
X120997618Y-56365476D01*
X121045237Y-56413095D01*
X121140476Y-56460714D01*
X121283333Y-56460714D01*
X121378571Y-56413095D01*
X120949999Y-56079762D02*
X121045237Y-56127381D01*
X121235714Y-56127381D01*
X121330952Y-56079762D01*
X121378571Y-56032143D01*
X121426190Y-55936905D01*
X121426190Y-55651190D01*
X121378571Y-55555952D01*
X121330952Y-55508333D01*
X121235714Y-55460714D01*
X121045237Y-55460714D01*
X120949999Y-55508333D01*
X120473809Y-56127381D02*
X120473809Y-55460714D01*
X120473809Y-55127381D02*
X120521428Y-55175000D01*
X120473809Y-55222619D01*
X120426190Y-55175000D01*
X120473809Y-55127381D01*
X120473809Y-55222619D01*
X120140476Y-55460714D02*
X119759524Y-55460714D01*
X119997619Y-55127381D02*
X119997619Y-55984524D01*
X119950000Y-56079762D01*
X119854762Y-56127381D01*
X119759524Y-56127381D01*
X119426190Y-56127381D02*
X119426190Y-55127381D01*
X118997618Y-56127381D02*
X118997618Y-55603571D01*
X119045237Y-55508333D01*
X119140475Y-55460714D01*
X119283333Y-55460714D01*
X119378571Y-55508333D01*
X119426190Y-55555952D01*
X118092856Y-55460714D02*
X118092856Y-56127381D01*
X118521428Y-55460714D02*
X118521428Y-55984524D01*
X118473809Y-56079762D01*
X118378571Y-56127381D01*
X118235713Y-56127381D01*
X118140475Y-56079762D01*
X118092856Y-56032143D01*
X117616666Y-56127381D02*
X117616666Y-55127381D01*
X117616666Y-55508333D02*
X117521428Y-55460714D01*
X117330951Y-55460714D01*
X117235713Y-55508333D01*
X117188094Y-55555952D01*
X117140475Y-55651190D01*
X117140475Y-55936905D01*
X117188094Y-56032143D01*
X117235713Y-56079762D01*
X117330951Y-56127381D01*
X117521428Y-56127381D01*
X117616666Y-56079762D01*
X116711904Y-56032143D02*
X116664285Y-56079762D01*
X116711904Y-56127381D01*
X116759523Y-56079762D01*
X116711904Y-56032143D01*
X116711904Y-56127381D01*
X115807142Y-56079762D02*
X115902380Y-56127381D01*
X116092857Y-56127381D01*
X116188095Y-56079762D01*
X116235714Y-56032143D01*
X116283333Y-55936905D01*
X116283333Y-55651190D01*
X116235714Y-55555952D01*
X116188095Y-55508333D01*
X116092857Y-55460714D01*
X115902380Y-55460714D01*
X115807142Y-55508333D01*
X115235714Y-56127381D02*
X115330952Y-56079762D01*
X115378571Y-56032143D01*
X115426190Y-55936905D01*
X115426190Y-55651190D01*
X115378571Y-55555952D01*
X115330952Y-55508333D01*
X115235714Y-55460714D01*
X115092856Y-55460714D01*
X114997618Y-55508333D01*
X114949999Y-55555952D01*
X114902380Y-55651190D01*
X114902380Y-55936905D01*
X114949999Y-56032143D01*
X114997618Y-56079762D01*
X115092856Y-56127381D01*
X115235714Y-56127381D01*
X114473809Y-56127381D02*
X114473809Y-55460714D01*
X114473809Y-55555952D02*
X114426190Y-55508333D01*
X114330952Y-55460714D01*
X114188094Y-55460714D01*
X114092856Y-55508333D01*
X114045237Y-55603571D01*
X114045237Y-56127381D01*
X114045237Y-55603571D02*
X113997618Y-55508333D01*
X113902380Y-55460714D01*
X113759523Y-55460714D01*
X113664285Y-55508333D01*
X113616666Y-55603571D01*
X113616666Y-56127381D01*
X112426190Y-55079762D02*
X113283333Y-56365476D01*
X112092857Y-56127381D02*
X112092857Y-55127381D01*
X111759523Y-55841667D01*
X111426190Y-55127381D01*
X111426190Y-56127381D01*
X111045238Y-55460714D02*
X110807143Y-56127381D01*
X110569047Y-55460714D02*
X110807143Y-56127381D01*
X110902381Y-56365476D01*
X110950000Y-56413095D01*
X111045238Y-56460714D01*
X110188095Y-55460714D02*
X110188095Y-56460714D01*
X110188095Y-55508333D02*
X110092857Y-55460714D01*
X109902380Y-55460714D01*
X109807142Y-55508333D01*
X109759523Y-55555952D01*
X109711904Y-55651190D01*
X109711904Y-55936905D01*
X109759523Y-56032143D01*
X109807142Y-56079762D01*
X109902380Y-56127381D01*
X110092857Y-56127381D01*
X110188095Y-56079762D01*
X108854761Y-56127381D02*
X108854761Y-55603571D01*
X108902380Y-55508333D01*
X108997618Y-55460714D01*
X109188095Y-55460714D01*
X109283333Y-55508333D01*
X108854761Y-56079762D02*
X108949999Y-56127381D01*
X109188095Y-56127381D01*
X109283333Y-56079762D01*
X109330952Y-55984524D01*
X109330952Y-55889286D01*
X109283333Y-55794048D01*
X109188095Y-55746429D01*
X108949999Y-55746429D01*
X108854761Y-55698810D01*
X107949999Y-56079762D02*
X108045237Y-56127381D01*
X108235714Y-56127381D01*
X108330952Y-56079762D01*
X108378571Y-56032143D01*
X108426190Y-55936905D01*
X108426190Y-55651190D01*
X108378571Y-55555952D01*
X108330952Y-55508333D01*
X108235714Y-55460714D01*
X108045237Y-55460714D01*
X107949999Y-55508333D01*
X107140475Y-56079762D02*
X107235713Y-56127381D01*
X107426190Y-56127381D01*
X107521428Y-56079762D01*
X107569047Y-55984524D01*
X107569047Y-55603571D01*
X107521428Y-55508333D01*
X107426190Y-55460714D01*
X107235713Y-55460714D01*
X107140475Y-55508333D01*
X107092856Y-55603571D01*
X107092856Y-55698810D01*
X107569047Y-55794048D01*
X106664285Y-55603571D02*
X106330951Y-55603571D01*
X106188094Y-56127381D02*
X106664285Y-56127381D01*
X106664285Y-55127381D01*
X106188094Y-55127381D01*
X105759523Y-55460714D02*
X105759523Y-56127381D01*
X105759523Y-55555952D02*
X105711904Y-55508333D01*
X105616666Y-55460714D01*
X105473808Y-55460714D01*
X105378570Y-55508333D01*
X105330951Y-55603571D01*
X105330951Y-56127381D01*
X104426189Y-55460714D02*
X104426189Y-56270238D01*
X104473808Y-56365476D01*
X104521427Y-56413095D01*
X104616666Y-56460714D01*
X104759523Y-56460714D01*
X104854761Y-56413095D01*
X104426189Y-56079762D02*
X104521427Y-56127381D01*
X104711904Y-56127381D01*
X104807142Y-56079762D01*
X104854761Y-56032143D01*
X104902380Y-55936905D01*
X104902380Y-55651190D01*
X104854761Y-55555952D01*
X104807142Y-55508333D01*
X104711904Y-55460714D01*
X104521427Y-55460714D01*
X104426189Y-55508333D01*
X103949999Y-56127381D02*
X103949999Y-55460714D01*
X103949999Y-55127381D02*
X103997618Y-55175000D01*
X103949999Y-55222619D01*
X103902380Y-55175000D01*
X103949999Y-55127381D01*
X103949999Y-55222619D01*
X103473809Y-55460714D02*
X103473809Y-56127381D01*
X103473809Y-55555952D02*
X103426190Y-55508333D01*
X103330952Y-55460714D01*
X103188094Y-55460714D01*
X103092856Y-55508333D01*
X103045237Y-55603571D01*
X103045237Y-56127381D01*
X102188094Y-56079762D02*
X102283332Y-56127381D01*
X102473809Y-56127381D01*
X102569047Y-56079762D01*
X102616666Y-55984524D01*
X102616666Y-55603571D01*
X102569047Y-55508333D01*
X102473809Y-55460714D01*
X102283332Y-55460714D01*
X102188094Y-55508333D01*
X102140475Y-55603571D01*
X102140475Y-55698810D01*
X102616666Y-55794048D01*
X100997618Y-55079762D02*
X101854761Y-56365476D01*
X127283333Y-57777381D02*
X127283333Y-57253571D01*
X127330952Y-57158333D01*
X127426190Y-57110714D01*
X127616667Y-57110714D01*
X127711905Y-57158333D01*
X127283333Y-57729762D02*
X127378571Y-57777381D01*
X127616667Y-57777381D01*
X127711905Y-57729762D01*
X127759524Y-57634524D01*
X127759524Y-57539286D01*
X127711905Y-57444048D01*
X127616667Y-57396429D01*
X127378571Y-57396429D01*
X127283333Y-57348810D01*
X126426190Y-57729762D02*
X126521428Y-57777381D01*
X126711905Y-57777381D01*
X126807143Y-57729762D01*
X126854762Y-57634524D01*
X126854762Y-57253571D01*
X126807143Y-57158333D01*
X126711905Y-57110714D01*
X126521428Y-57110714D01*
X126426190Y-57158333D01*
X126378571Y-57253571D01*
X126378571Y-57348810D01*
X126854762Y-57444048D01*
X125950000Y-57396429D02*
X125188095Y-57396429D01*
X124854762Y-57110714D02*
X124473810Y-57110714D01*
X124711905Y-56777381D02*
X124711905Y-57634524D01*
X124664286Y-57729762D01*
X124569048Y-57777381D01*
X124473810Y-57777381D01*
X124235714Y-57110714D02*
X123997619Y-57777381D01*
X123759523Y-57110714D02*
X123997619Y-57777381D01*
X124092857Y-58015476D01*
X124140476Y-58063095D01*
X124235714Y-58110714D01*
X123378571Y-57777381D02*
X123378571Y-56777381D01*
X123378571Y-57158333D02*
X123283333Y-57110714D01*
X123092856Y-57110714D01*
X122997618Y-57158333D01*
X122949999Y-57205952D01*
X122902380Y-57301190D01*
X122902380Y-57586905D01*
X122949999Y-57682143D01*
X122997618Y-57729762D01*
X123092856Y-57777381D01*
X123283333Y-57777381D01*
X123378571Y-57729762D01*
X122330952Y-57777381D02*
X122426190Y-57729762D01*
X122473809Y-57634524D01*
X122473809Y-56777381D01*
X121569046Y-57729762D02*
X121664284Y-57777381D01*
X121854761Y-57777381D01*
X121949999Y-57729762D01*
X121997618Y-57634524D01*
X121997618Y-57253571D01*
X121949999Y-57158333D01*
X121854761Y-57110714D01*
X121664284Y-57110714D01*
X121569046Y-57158333D01*
X121521427Y-57253571D01*
X121521427Y-57348810D01*
X121997618Y-57444048D01*
X120569046Y-57777381D02*
X121140475Y-57777381D01*
X120854761Y-57777381D02*
X120854761Y-56777381D01*
X120949999Y-56920238D01*
X121045237Y-57015476D01*
X121140475Y-57063095D01*
X119711903Y-56777381D02*
X119902380Y-56777381D01*
X119997618Y-56825000D01*
X120045237Y-56872619D01*
X120140475Y-57015476D01*
X120188094Y-57205952D01*
X120188094Y-57586905D01*
X120140475Y-57682143D01*
X120092856Y-57729762D01*
X119997618Y-57777381D01*
X119807141Y-57777381D01*
X119711903Y-57729762D01*
X119664284Y-57682143D01*
X119616665Y-57586905D01*
X119616665Y-57348810D01*
X119664284Y-57253571D01*
X119711903Y-57205952D01*
X119807141Y-57158333D01*
X119997618Y-57158333D01*
X120092856Y-57205952D01*
X120140475Y-57253571D01*
X120188094Y-57348810D01*
X119188094Y-57396429D02*
X118426189Y-57396429D01*
X117949999Y-57777381D02*
X117949999Y-56777381D01*
X117949999Y-57158333D02*
X117854761Y-57110714D01*
X117664284Y-57110714D01*
X117569046Y-57158333D01*
X117521427Y-57205952D01*
X117473808Y-57301190D01*
X117473808Y-57586905D01*
X117521427Y-57682143D01*
X117569046Y-57729762D01*
X117664284Y-57777381D01*
X117854761Y-57777381D01*
X117949999Y-57729762D01*
X116664284Y-57729762D02*
X116759522Y-57777381D01*
X116949999Y-57777381D01*
X117045237Y-57729762D01*
X117092856Y-57634524D01*
X117092856Y-57253571D01*
X117045237Y-57158333D01*
X116949999Y-57110714D01*
X116759522Y-57110714D01*
X116664284Y-57158333D01*
X116616665Y-57253571D01*
X116616665Y-57348810D01*
X117092856Y-57444048D01*
X115759522Y-57777381D02*
X115759522Y-57253571D01*
X115807141Y-57158333D01*
X115902379Y-57110714D01*
X116092856Y-57110714D01*
X116188094Y-57158333D01*
X115759522Y-57729762D02*
X115854760Y-57777381D01*
X116092856Y-57777381D01*
X116188094Y-57729762D01*
X116235713Y-57634524D01*
X116235713Y-57539286D01*
X116188094Y-57444048D01*
X116092856Y-57396429D01*
X115854760Y-57396429D01*
X115759522Y-57348810D01*
X114854760Y-57729762D02*
X114949998Y-57777381D01*
X115140475Y-57777381D01*
X115235713Y-57729762D01*
X115283332Y-57682143D01*
X115330951Y-57586905D01*
X115330951Y-57301190D01*
X115283332Y-57205952D01*
X115235713Y-57158333D01*
X115140475Y-57110714D01*
X114949998Y-57110714D01*
X114854760Y-57158333D01*
X114283332Y-57777381D02*
X114378570Y-57729762D01*
X114426189Y-57682143D01*
X114473808Y-57586905D01*
X114473808Y-57301190D01*
X114426189Y-57205952D01*
X114378570Y-57158333D01*
X114283332Y-57110714D01*
X114140474Y-57110714D01*
X114045236Y-57158333D01*
X113997617Y-57205952D01*
X113949998Y-57301190D01*
X113949998Y-57586905D01*
X113997617Y-57682143D01*
X114045236Y-57729762D01*
X114140474Y-57777381D01*
X114283332Y-57777381D01*
X113521427Y-57110714D02*
X113521427Y-57777381D01*
X113521427Y-57205952D02*
X113473808Y-57158333D01*
X113378570Y-57110714D01*
X113235712Y-57110714D01*
X113140474Y-57158333D01*
X113092855Y-57253571D01*
X113092855Y-57777381D01*
D12*
X126778572Y-52835714D02*
X126350001Y-52978571D01*
X126207144Y-53121429D01*
X126064287Y-53407143D01*
X126064287Y-53835714D01*
X126207144Y-54121429D01*
X126350001Y-54264286D01*
X126635715Y-54407143D01*
X127778572Y-54407143D01*
X127778572Y-51407143D01*
X126778572Y-51407143D01*
X126492858Y-51550000D01*
X126350001Y-51692857D01*
X126207144Y-51978571D01*
X126207144Y-52264286D01*
X126350001Y-52550000D01*
X126492858Y-52692857D01*
X126778572Y-52835714D01*
X127778572Y-52835714D01*
X123635715Y-54264286D02*
X123921429Y-54407143D01*
X124492858Y-54407143D01*
X124778572Y-54264286D01*
X124921429Y-53978571D01*
X124921429Y-52835714D01*
X124778572Y-52550000D01*
X124492858Y-52407143D01*
X123921429Y-52407143D01*
X123635715Y-52550000D01*
X123492858Y-52835714D01*
X123492858Y-53121429D01*
X124921429Y-53407143D01*
X120921429Y-54407143D02*
X120921429Y-52835714D01*
X121064286Y-52550000D01*
X121350000Y-52407143D01*
X121921429Y-52407143D01*
X122207143Y-52550000D01*
X120921429Y-54264286D02*
X121207143Y-54407143D01*
X121921429Y-54407143D01*
X122207143Y-54264286D01*
X122350000Y-53978571D01*
X122350000Y-53692857D01*
X122207143Y-53407143D01*
X121921429Y-53264286D01*
X121207143Y-53264286D01*
X120921429Y-53121429D01*
X118207143Y-54264286D02*
X118492857Y-54407143D01*
X119064286Y-54407143D01*
X119350000Y-54264286D01*
X119492857Y-54121429D01*
X119635714Y-53835714D01*
X119635714Y-52978571D01*
X119492857Y-52692857D01*
X119350000Y-52550000D01*
X119064286Y-52407143D01*
X118492857Y-52407143D01*
X118207143Y-52550000D01*
X116492857Y-54407143D02*
X116778571Y-54264286D01*
X116921428Y-54121429D01*
X117064285Y-53835714D01*
X117064285Y-52978571D01*
X116921428Y-52692857D01*
X116778571Y-52550000D01*
X116492857Y-52407143D01*
X116064285Y-52407143D01*
X115778571Y-52550000D01*
X115635714Y-52692857D01*
X115492857Y-52978571D01*
X115492857Y-53835714D01*
X115635714Y-54121429D01*
X115778571Y-54264286D01*
X116064285Y-54407143D01*
X116492857Y-54407143D01*
X114207142Y-52407143D02*
X114207142Y-54407143D01*
X114207142Y-52692857D02*
X114064285Y-52550000D01*
X113778571Y-52407143D01*
X113349999Y-52407143D01*
X113064285Y-52550000D01*
X112921428Y-52835714D01*
X112921428Y-54407143D01*
X109635714Y-51407143D02*
X108635714Y-54407143D01*
X107635714Y-51407143D01*
X106064285Y-51407143D02*
X105778570Y-51407143D01*
X105492856Y-51550000D01*
X105349999Y-51692857D01*
X105207142Y-51978571D01*
X105064285Y-52550000D01*
X105064285Y-53264286D01*
X105207142Y-53835714D01*
X105349999Y-54121429D01*
X105492856Y-54264286D01*
X105778570Y-54407143D01*
X106064285Y-54407143D01*
X106349999Y-54264286D01*
X106492856Y-54121429D01*
X106635713Y-53835714D01*
X106778570Y-53264286D01*
X106778570Y-52550000D01*
X106635713Y-51978571D01*
X106492856Y-51692857D01*
X106349999Y-51550000D01*
X106064285Y-51407143D01*
X103778570Y-54121429D02*
X103635713Y-54264286D01*
X103778570Y-54407143D01*
X103921427Y-54264286D01*
X103778570Y-54121429D01*
X103778570Y-54407143D01*
X102635714Y-51407143D02*
X100778571Y-51407143D01*
X101778571Y-52550000D01*
X101349999Y-52550000D01*
X101064285Y-52692857D01*
X100921428Y-52835714D01*
X100778571Y-53121429D01*
X100778571Y-53835714D01*
X100921428Y-54121429D01*
X101064285Y-54264286D01*
X101349999Y-54407143D01*
X102207142Y-54407143D01*
X102492856Y-54264286D01*
X102635714Y-54121429D01*
D13*
X123064286Y-87521429D02*
X123064286Y-86921429D01*
X122835714Y-86921429D01*
X122778572Y-86950000D01*
X122750000Y-86978571D01*
X122721429Y-87035714D01*
X122721429Y-87121429D01*
X122750000Y-87178571D01*
X122778572Y-87207143D01*
X122835714Y-87235714D01*
X123064286Y-87235714D01*
X122350000Y-86921429D02*
X122292857Y-86921429D01*
X122235714Y-86950000D01*
X122207143Y-86978571D01*
X122178572Y-87035714D01*
X122150000Y-87150000D01*
X122150000Y-87292857D01*
X122178572Y-87407143D01*
X122207143Y-87464286D01*
X122235714Y-87492857D01*
X122292857Y-87521429D01*
X122350000Y-87521429D01*
X122407143Y-87492857D01*
X122435714Y-87464286D01*
X122464286Y-87407143D01*
X122492857Y-87292857D01*
X122492857Y-87150000D01*
X122464286Y-87035714D01*
X122435714Y-86978571D01*
X122407143Y-86950000D01*
X122350000Y-86921429D01*
X121778571Y-86921429D02*
X121721428Y-86921429D01*
X121664285Y-86950000D01*
X121635714Y-86978571D01*
X121607143Y-87035714D01*
X121578571Y-87150000D01*
X121578571Y-87292857D01*
X121607143Y-87407143D01*
X121635714Y-87464286D01*
X121664285Y-87492857D01*
X121721428Y-87521429D01*
X121778571Y-87521429D01*
X121835714Y-87492857D01*
X121864285Y-87464286D01*
X121892857Y-87407143D01*
X121921428Y-87292857D01*
X121921428Y-87150000D01*
X121892857Y-87035714D01*
X121864285Y-86978571D01*
X121835714Y-86950000D01*
X121778571Y-86921429D01*
X121349999Y-86978571D02*
X121321428Y-86950000D01*
X121264285Y-86921429D01*
X121121428Y-86921429D01*
X121064285Y-86950000D01*
X121035714Y-86978571D01*
X121007142Y-87035714D01*
X121007142Y-87092857D01*
X121035714Y-87178571D01*
X121378571Y-87521429D01*
X121007142Y-87521429D01*
X120514286Y-87521429D02*
X120514286Y-86921429D01*
X120285714Y-86921429D01*
X120228572Y-86950000D01*
X120200000Y-86978571D01*
X120171429Y-87035714D01*
X120171429Y-87121429D01*
X120200000Y-87178571D01*
X120228572Y-87207143D01*
X120285714Y-87235714D01*
X120514286Y-87235714D01*
X119800000Y-86921429D02*
X119742857Y-86921429D01*
X119685714Y-86950000D01*
X119657143Y-86978571D01*
X119628572Y-87035714D01*
X119600000Y-87150000D01*
X119600000Y-87292857D01*
X119628572Y-87407143D01*
X119657143Y-87464286D01*
X119685714Y-87492857D01*
X119742857Y-87521429D01*
X119800000Y-87521429D01*
X119857143Y-87492857D01*
X119885714Y-87464286D01*
X119914286Y-87407143D01*
X119942857Y-87292857D01*
X119942857Y-87150000D01*
X119914286Y-87035714D01*
X119885714Y-86978571D01*
X119857143Y-86950000D01*
X119800000Y-86921429D01*
X119228571Y-86921429D02*
X119171428Y-86921429D01*
X119114285Y-86950000D01*
X119085714Y-86978571D01*
X119057143Y-87035714D01*
X119028571Y-87150000D01*
X119028571Y-87292857D01*
X119057143Y-87407143D01*
X119085714Y-87464286D01*
X119114285Y-87492857D01*
X119171428Y-87521429D01*
X119228571Y-87521429D01*
X119285714Y-87492857D01*
X119314285Y-87464286D01*
X119342857Y-87407143D01*
X119371428Y-87292857D01*
X119371428Y-87150000D01*
X119342857Y-87035714D01*
X119314285Y-86978571D01*
X119285714Y-86950000D01*
X119228571Y-86921429D01*
X118457142Y-87521429D02*
X118799999Y-87521429D01*
X118628571Y-87521429D02*
X118628571Y-86921429D01*
X118685714Y-87007143D01*
X118742856Y-87064286D01*
X118799999Y-87092857D01*
X118064286Y-87521429D02*
X118064286Y-86921429D01*
X117835714Y-86921429D01*
X117778572Y-86950000D01*
X117750000Y-86978571D01*
X117721429Y-87035714D01*
X117721429Y-87121429D01*
X117750000Y-87178571D01*
X117778572Y-87207143D01*
X117835714Y-87235714D01*
X118064286Y-87235714D01*
X117350000Y-86921429D02*
X117292857Y-86921429D01*
X117235714Y-86950000D01*
X117207143Y-86978571D01*
X117178572Y-87035714D01*
X117150000Y-87150000D01*
X117150000Y-87292857D01*
X117178572Y-87407143D01*
X117207143Y-87464286D01*
X117235714Y-87492857D01*
X117292857Y-87521429D01*
X117350000Y-87521429D01*
X117407143Y-87492857D01*
X117435714Y-87464286D01*
X117464286Y-87407143D01*
X117492857Y-87292857D01*
X117492857Y-87150000D01*
X117464286Y-87035714D01*
X117435714Y-86978571D01*
X117407143Y-86950000D01*
X117350000Y-86921429D01*
X116778571Y-86921429D02*
X116721428Y-86921429D01*
X116664285Y-86950000D01*
X116635714Y-86978571D01*
X116607143Y-87035714D01*
X116578571Y-87150000D01*
X116578571Y-87292857D01*
X116607143Y-87407143D01*
X116635714Y-87464286D01*
X116664285Y-87492857D01*
X116721428Y-87521429D01*
X116778571Y-87521429D01*
X116835714Y-87492857D01*
X116864285Y-87464286D01*
X116892857Y-87407143D01*
X116921428Y-87292857D01*
X116921428Y-87150000D01*
X116892857Y-87035714D01*
X116864285Y-86978571D01*
X116835714Y-86950000D01*
X116778571Y-86921429D01*
X116378571Y-86921429D02*
X116007142Y-86921429D01*
X116207142Y-87150000D01*
X116121428Y-87150000D01*
X116064285Y-87178571D01*
X116035714Y-87207143D01*
X116007142Y-87264286D01*
X116007142Y-87407143D01*
X116035714Y-87464286D01*
X116064285Y-87492857D01*
X116121428Y-87521429D01*
X116292856Y-87521429D01*
X116349999Y-87492857D01*
X116378571Y-87464286D01*
X115514286Y-87521429D02*
X115514286Y-86921429D01*
X115285714Y-86921429D01*
X115228572Y-86950000D01*
X115200000Y-86978571D01*
X115171429Y-87035714D01*
X115171429Y-87121429D01*
X115200000Y-87178571D01*
X115228572Y-87207143D01*
X115285714Y-87235714D01*
X115514286Y-87235714D01*
X114800000Y-86921429D02*
X114742857Y-86921429D01*
X114685714Y-86950000D01*
X114657143Y-86978571D01*
X114628572Y-87035714D01*
X114600000Y-87150000D01*
X114600000Y-87292857D01*
X114628572Y-87407143D01*
X114657143Y-87464286D01*
X114685714Y-87492857D01*
X114742857Y-87521429D01*
X114800000Y-87521429D01*
X114857143Y-87492857D01*
X114885714Y-87464286D01*
X114914286Y-87407143D01*
X114942857Y-87292857D01*
X114942857Y-87150000D01*
X114914286Y-87035714D01*
X114885714Y-86978571D01*
X114857143Y-86950000D01*
X114800000Y-86921429D01*
X114371428Y-86978571D02*
X114342857Y-86950000D01*
X114285714Y-86921429D01*
X114142857Y-86921429D01*
X114085714Y-86950000D01*
X114057143Y-86978571D01*
X114028571Y-87035714D01*
X114028571Y-87092857D01*
X114057143Y-87178571D01*
X114400000Y-87521429D01*
X114028571Y-87521429D01*
X113485714Y-86921429D02*
X113771428Y-86921429D01*
X113799999Y-87207143D01*
X113771428Y-87178571D01*
X113714285Y-87150000D01*
X113571428Y-87150000D01*
X113514285Y-87178571D01*
X113485714Y-87207143D01*
X113457142Y-87264286D01*
X113457142Y-87407143D01*
X113485714Y-87464286D01*
X113514285Y-87492857D01*
X113571428Y-87521429D01*
X113714285Y-87521429D01*
X113771428Y-87492857D01*
X113799999Y-87464286D01*
X113014285Y-87492857D02*
X112928571Y-87521429D01*
X112785714Y-87521429D01*
X112728571Y-87492857D01*
X112700000Y-87464286D01*
X112671428Y-87407143D01*
X112671428Y-87350000D01*
X112700000Y-87292857D01*
X112728571Y-87264286D01*
X112785714Y-87235714D01*
X112900000Y-87207143D01*
X112957142Y-87178571D01*
X112985714Y-87150000D01*
X113014285Y-87092857D01*
X113014285Y-87035714D01*
X112985714Y-86978571D01*
X112957142Y-86950000D01*
X112900000Y-86921429D01*
X112757142Y-86921429D01*
X112671428Y-86950000D01*
X112471428Y-86921429D02*
X112328571Y-87521429D01*
X112214285Y-87092857D01*
X112099999Y-87521429D01*
X111957142Y-86921429D01*
X111728571Y-87521429D02*
X111728571Y-86921429D01*
X111585714Y-86921429D01*
X111499999Y-86950000D01*
X111442857Y-87007143D01*
X111414285Y-87064286D01*
X111385714Y-87178571D01*
X111385714Y-87264286D01*
X111414285Y-87378571D01*
X111442857Y-87435714D01*
X111499999Y-87492857D01*
X111585714Y-87521429D01*
X111728571Y-87521429D01*
X110785714Y-87464286D02*
X110814285Y-87492857D01*
X110899999Y-87521429D01*
X110957142Y-87521429D01*
X111042857Y-87492857D01*
X111099999Y-87435714D01*
X111128571Y-87378571D01*
X111157142Y-87264286D01*
X111157142Y-87178571D01*
X111128571Y-87064286D01*
X111099999Y-87007143D01*
X111042857Y-86950000D01*
X110957142Y-86921429D01*
X110899999Y-86921429D01*
X110814285Y-86950000D01*
X110785714Y-86978571D01*
X110357142Y-87492857D02*
X110271428Y-87521429D01*
X110128571Y-87521429D01*
X110071428Y-87492857D01*
X110042857Y-87464286D01*
X110014285Y-87407143D01*
X110014285Y-87350000D01*
X110042857Y-87292857D01*
X110071428Y-87264286D01*
X110128571Y-87235714D01*
X110242857Y-87207143D01*
X110299999Y-87178571D01*
X110328571Y-87150000D01*
X110357142Y-87092857D01*
X110357142Y-87035714D01*
X110328571Y-86978571D01*
X110299999Y-86950000D01*
X110242857Y-86921429D01*
X110099999Y-86921429D01*
X110014285Y-86950000D01*
X109814285Y-86921429D02*
X109671428Y-87521429D01*
X109557142Y-87092857D01*
X109442856Y-87521429D01*
X109299999Y-86921429D01*
X109071428Y-87521429D02*
X109071428Y-86921429D01*
X108928571Y-86921429D01*
X108842856Y-86950000D01*
X108785714Y-87007143D01*
X108757142Y-87064286D01*
X108728571Y-87178571D01*
X108728571Y-87264286D01*
X108757142Y-87378571D01*
X108785714Y-87435714D01*
X108842856Y-87492857D01*
X108928571Y-87521429D01*
X109071428Y-87521429D01*
X108471428Y-87521429D02*
X108471428Y-86921429D01*
X107864286Y-87471429D02*
X107864286Y-86871429D01*
X107635714Y-86871429D01*
X107578572Y-86900000D01*
X107550000Y-86928571D01*
X107521429Y-86985714D01*
X107521429Y-87071429D01*
X107550000Y-87128571D01*
X107578572Y-87157143D01*
X107635714Y-87185714D01*
X107864286Y-87185714D01*
X107150000Y-86871429D02*
X107092857Y-86871429D01*
X107035714Y-86900000D01*
X107007143Y-86928571D01*
X106978572Y-86985714D01*
X106950000Y-87100000D01*
X106950000Y-87242857D01*
X106978572Y-87357143D01*
X107007143Y-87414286D01*
X107035714Y-87442857D01*
X107092857Y-87471429D01*
X107150000Y-87471429D01*
X107207143Y-87442857D01*
X107235714Y-87414286D01*
X107264286Y-87357143D01*
X107292857Y-87242857D01*
X107292857Y-87100000D01*
X107264286Y-86985714D01*
X107235714Y-86928571D01*
X107207143Y-86900000D01*
X107150000Y-86871429D01*
X106378571Y-87471429D02*
X106721428Y-87471429D01*
X106550000Y-87471429D02*
X106550000Y-86871429D01*
X106607143Y-86957143D01*
X106664285Y-87014286D01*
X106721428Y-87042857D01*
X106092856Y-87471429D02*
X105978571Y-87471429D01*
X105921428Y-87442857D01*
X105892856Y-87414286D01*
X105835714Y-87328571D01*
X105807142Y-87214286D01*
X105807142Y-86985714D01*
X105835714Y-86928571D01*
X105864285Y-86900000D01*
X105921428Y-86871429D01*
X106035714Y-86871429D01*
X106092856Y-86900000D01*
X106121428Y-86928571D01*
X106149999Y-86985714D01*
X106149999Y-87128571D01*
X106121428Y-87185714D01*
X106092856Y-87214286D01*
X106035714Y-87242857D01*
X105921428Y-87242857D01*
X105864285Y-87214286D01*
X105835714Y-87185714D01*
X105807142Y-87128571D01*
X123214286Y-93721429D02*
X123214286Y-93121429D01*
X122985714Y-93121429D01*
X122928572Y-93150000D01*
X122900000Y-93178571D01*
X122871429Y-93235714D01*
X122871429Y-93321429D01*
X122900000Y-93378571D01*
X122928572Y-93407143D01*
X122985714Y-93435714D01*
X123214286Y-93435714D01*
X122500000Y-93121429D02*
X122442857Y-93121429D01*
X122385714Y-93150000D01*
X122357143Y-93178571D01*
X122328572Y-93235714D01*
X122300000Y-93350000D01*
X122300000Y-93492857D01*
X122328572Y-93607143D01*
X122357143Y-93664286D01*
X122385714Y-93692857D01*
X122442857Y-93721429D01*
X122500000Y-93721429D01*
X122557143Y-93692857D01*
X122585714Y-93664286D01*
X122614286Y-93607143D01*
X122642857Y-93492857D01*
X122642857Y-93350000D01*
X122614286Y-93235714D01*
X122585714Y-93178571D01*
X122557143Y-93150000D01*
X122500000Y-93121429D01*
X121928571Y-93121429D02*
X121871428Y-93121429D01*
X121814285Y-93150000D01*
X121785714Y-93178571D01*
X121757143Y-93235714D01*
X121728571Y-93350000D01*
X121728571Y-93492857D01*
X121757143Y-93607143D01*
X121785714Y-93664286D01*
X121814285Y-93692857D01*
X121871428Y-93721429D01*
X121928571Y-93721429D01*
X121985714Y-93692857D01*
X122014285Y-93664286D01*
X122042857Y-93607143D01*
X122071428Y-93492857D01*
X122071428Y-93350000D01*
X122042857Y-93235714D01*
X122014285Y-93178571D01*
X121985714Y-93150000D01*
X121928571Y-93121429D01*
X121357142Y-93121429D02*
X121299999Y-93121429D01*
X121242856Y-93150000D01*
X121214285Y-93178571D01*
X121185714Y-93235714D01*
X121157142Y-93350000D01*
X121157142Y-93492857D01*
X121185714Y-93607143D01*
X121214285Y-93664286D01*
X121242856Y-93692857D01*
X121299999Y-93721429D01*
X121357142Y-93721429D01*
X121414285Y-93692857D01*
X121442856Y-93664286D01*
X121471428Y-93607143D01*
X121499999Y-93492857D01*
X121499999Y-93350000D01*
X121471428Y-93235714D01*
X121442856Y-93178571D01*
X121414285Y-93150000D01*
X121357142Y-93121429D01*
X120664286Y-93721429D02*
X120664286Y-93121429D01*
X120435714Y-93121429D01*
X120378572Y-93150000D01*
X120350000Y-93178571D01*
X120321429Y-93235714D01*
X120321429Y-93321429D01*
X120350000Y-93378571D01*
X120378572Y-93407143D01*
X120435714Y-93435714D01*
X120664286Y-93435714D01*
X119950000Y-93121429D02*
X119892857Y-93121429D01*
X119835714Y-93150000D01*
X119807143Y-93178571D01*
X119778572Y-93235714D01*
X119750000Y-93350000D01*
X119750000Y-93492857D01*
X119778572Y-93607143D01*
X119807143Y-93664286D01*
X119835714Y-93692857D01*
X119892857Y-93721429D01*
X119950000Y-93721429D01*
X120007143Y-93692857D01*
X120035714Y-93664286D01*
X120064286Y-93607143D01*
X120092857Y-93492857D01*
X120092857Y-93350000D01*
X120064286Y-93235714D01*
X120035714Y-93178571D01*
X120007143Y-93150000D01*
X119950000Y-93121429D01*
X119378571Y-93121429D02*
X119321428Y-93121429D01*
X119264285Y-93150000D01*
X119235714Y-93178571D01*
X119207143Y-93235714D01*
X119178571Y-93350000D01*
X119178571Y-93492857D01*
X119207143Y-93607143D01*
X119235714Y-93664286D01*
X119264285Y-93692857D01*
X119321428Y-93721429D01*
X119378571Y-93721429D01*
X119435714Y-93692857D01*
X119464285Y-93664286D01*
X119492857Y-93607143D01*
X119521428Y-93492857D01*
X119521428Y-93350000D01*
X119492857Y-93235714D01*
X119464285Y-93178571D01*
X119435714Y-93150000D01*
X119378571Y-93121429D01*
X118635714Y-93121429D02*
X118921428Y-93121429D01*
X118949999Y-93407143D01*
X118921428Y-93378571D01*
X118864285Y-93350000D01*
X118721428Y-93350000D01*
X118664285Y-93378571D01*
X118635714Y-93407143D01*
X118607142Y-93464286D01*
X118607142Y-93607143D01*
X118635714Y-93664286D01*
X118664285Y-93692857D01*
X118721428Y-93721429D01*
X118864285Y-93721429D01*
X118921428Y-93692857D01*
X118949999Y-93664286D01*
X118064286Y-93721429D02*
X118064286Y-93121429D01*
X117835714Y-93121429D01*
X117778572Y-93150000D01*
X117750000Y-93178571D01*
X117721429Y-93235714D01*
X117721429Y-93321429D01*
X117750000Y-93378571D01*
X117778572Y-93407143D01*
X117835714Y-93435714D01*
X118064286Y-93435714D01*
X117350000Y-93121429D02*
X117292857Y-93121429D01*
X117235714Y-93150000D01*
X117207143Y-93178571D01*
X117178572Y-93235714D01*
X117150000Y-93350000D01*
X117150000Y-93492857D01*
X117178572Y-93607143D01*
X117207143Y-93664286D01*
X117235714Y-93692857D01*
X117292857Y-93721429D01*
X117350000Y-93721429D01*
X117407143Y-93692857D01*
X117435714Y-93664286D01*
X117464286Y-93607143D01*
X117492857Y-93492857D01*
X117492857Y-93350000D01*
X117464286Y-93235714D01*
X117435714Y-93178571D01*
X117407143Y-93150000D01*
X117350000Y-93121429D01*
X116778571Y-93121429D02*
X116721428Y-93121429D01*
X116664285Y-93150000D01*
X116635714Y-93178571D01*
X116607143Y-93235714D01*
X116578571Y-93350000D01*
X116578571Y-93492857D01*
X116607143Y-93607143D01*
X116635714Y-93664286D01*
X116664285Y-93692857D01*
X116721428Y-93721429D01*
X116778571Y-93721429D01*
X116835714Y-93692857D01*
X116864285Y-93664286D01*
X116892857Y-93607143D01*
X116921428Y-93492857D01*
X116921428Y-93350000D01*
X116892857Y-93235714D01*
X116864285Y-93178571D01*
X116835714Y-93150000D01*
X116778571Y-93121429D01*
X116064285Y-93121429D02*
X116178571Y-93121429D01*
X116235714Y-93150000D01*
X116264285Y-93178571D01*
X116321428Y-93264286D01*
X116349999Y-93378571D01*
X116349999Y-93607143D01*
X116321428Y-93664286D01*
X116292856Y-93692857D01*
X116235714Y-93721429D01*
X116121428Y-93721429D01*
X116064285Y-93692857D01*
X116035714Y-93664286D01*
X116007142Y-93607143D01*
X116007142Y-93464286D01*
X116035714Y-93407143D01*
X116064285Y-93378571D01*
X116121428Y-93350000D01*
X116235714Y-93350000D01*
X116292856Y-93378571D01*
X116321428Y-93407143D01*
X116349999Y-93464286D01*
X115464286Y-93721429D02*
X115464286Y-93121429D01*
X115235714Y-93121429D01*
X115178572Y-93150000D01*
X115150000Y-93178571D01*
X115121429Y-93235714D01*
X115121429Y-93321429D01*
X115150000Y-93378571D01*
X115178572Y-93407143D01*
X115235714Y-93435714D01*
X115464286Y-93435714D01*
X114750000Y-93121429D02*
X114692857Y-93121429D01*
X114635714Y-93150000D01*
X114607143Y-93178571D01*
X114578572Y-93235714D01*
X114550000Y-93350000D01*
X114550000Y-93492857D01*
X114578572Y-93607143D01*
X114607143Y-93664286D01*
X114635714Y-93692857D01*
X114692857Y-93721429D01*
X114750000Y-93721429D01*
X114807143Y-93692857D01*
X114835714Y-93664286D01*
X114864286Y-93607143D01*
X114892857Y-93492857D01*
X114892857Y-93350000D01*
X114864286Y-93235714D01*
X114835714Y-93178571D01*
X114807143Y-93150000D01*
X114750000Y-93121429D01*
X114178571Y-93121429D02*
X114121428Y-93121429D01*
X114064285Y-93150000D01*
X114035714Y-93178571D01*
X114007143Y-93235714D01*
X113978571Y-93350000D01*
X113978571Y-93492857D01*
X114007143Y-93607143D01*
X114035714Y-93664286D01*
X114064285Y-93692857D01*
X114121428Y-93721429D01*
X114178571Y-93721429D01*
X114235714Y-93692857D01*
X114264285Y-93664286D01*
X114292857Y-93607143D01*
X114321428Y-93492857D01*
X114321428Y-93350000D01*
X114292857Y-93235714D01*
X114264285Y-93178571D01*
X114235714Y-93150000D01*
X114178571Y-93121429D01*
X113464285Y-93321429D02*
X113464285Y-93721429D01*
X113607142Y-93092857D02*
X113749999Y-93521429D01*
X113378571Y-93521429D01*
X113064286Y-93721429D02*
X113064286Y-93121429D01*
X112835714Y-93121429D01*
X112778572Y-93150000D01*
X112750000Y-93178571D01*
X112721429Y-93235714D01*
X112721429Y-93321429D01*
X112750000Y-93378571D01*
X112778572Y-93407143D01*
X112835714Y-93435714D01*
X113064286Y-93435714D01*
X112350000Y-93121429D02*
X112292857Y-93121429D01*
X112235714Y-93150000D01*
X112207143Y-93178571D01*
X112178572Y-93235714D01*
X112150000Y-93350000D01*
X112150000Y-93492857D01*
X112178572Y-93607143D01*
X112207143Y-93664286D01*
X112235714Y-93692857D01*
X112292857Y-93721429D01*
X112350000Y-93721429D01*
X112407143Y-93692857D01*
X112435714Y-93664286D01*
X112464286Y-93607143D01*
X112492857Y-93492857D01*
X112492857Y-93350000D01*
X112464286Y-93235714D01*
X112435714Y-93178571D01*
X112407143Y-93150000D01*
X112350000Y-93121429D01*
X111921428Y-93178571D02*
X111892857Y-93150000D01*
X111835714Y-93121429D01*
X111692857Y-93121429D01*
X111635714Y-93150000D01*
X111607143Y-93178571D01*
X111578571Y-93235714D01*
X111578571Y-93292857D01*
X111607143Y-93378571D01*
X111950000Y-93721429D01*
X111578571Y-93721429D01*
X111007142Y-93721429D02*
X111349999Y-93721429D01*
X111178571Y-93721429D02*
X111178571Y-93121429D01*
X111235714Y-93207143D01*
X111292856Y-93264286D01*
X111349999Y-93292857D01*
X110514286Y-93721429D02*
X110514286Y-93121429D01*
X110285714Y-93121429D01*
X110228572Y-93150000D01*
X110200000Y-93178571D01*
X110171429Y-93235714D01*
X110171429Y-93321429D01*
X110200000Y-93378571D01*
X110228572Y-93407143D01*
X110285714Y-93435714D01*
X110514286Y-93435714D01*
X109800000Y-93121429D02*
X109742857Y-93121429D01*
X109685714Y-93150000D01*
X109657143Y-93178571D01*
X109628572Y-93235714D01*
X109600000Y-93350000D01*
X109600000Y-93492857D01*
X109628572Y-93607143D01*
X109657143Y-93664286D01*
X109685714Y-93692857D01*
X109742857Y-93721429D01*
X109800000Y-93721429D01*
X109857143Y-93692857D01*
X109885714Y-93664286D01*
X109914286Y-93607143D01*
X109942857Y-93492857D01*
X109942857Y-93350000D01*
X109914286Y-93235714D01*
X109885714Y-93178571D01*
X109857143Y-93150000D01*
X109800000Y-93121429D01*
X109371428Y-93178571D02*
X109342857Y-93150000D01*
X109285714Y-93121429D01*
X109142857Y-93121429D01*
X109085714Y-93150000D01*
X109057143Y-93178571D01*
X109028571Y-93235714D01*
X109028571Y-93292857D01*
X109057143Y-93378571D01*
X109400000Y-93721429D01*
X109028571Y-93721429D01*
X108828571Y-93121429D02*
X108457142Y-93121429D01*
X108657142Y-93350000D01*
X108571428Y-93350000D01*
X108514285Y-93378571D01*
X108485714Y-93407143D01*
X108457142Y-93464286D01*
X108457142Y-93607143D01*
X108485714Y-93664286D01*
X108514285Y-93692857D01*
X108571428Y-93721429D01*
X108742856Y-93721429D01*
X108799999Y-93692857D01*
X108828571Y-93664286D01*
X107914286Y-93721429D02*
X107914286Y-93121429D01*
X107685714Y-93121429D01*
X107628572Y-93150000D01*
X107600000Y-93178571D01*
X107571429Y-93235714D01*
X107571429Y-93321429D01*
X107600000Y-93378571D01*
X107628572Y-93407143D01*
X107685714Y-93435714D01*
X107914286Y-93435714D01*
X107200000Y-93121429D02*
X107142857Y-93121429D01*
X107085714Y-93150000D01*
X107057143Y-93178571D01*
X107028572Y-93235714D01*
X107000000Y-93350000D01*
X107000000Y-93492857D01*
X107028572Y-93607143D01*
X107057143Y-93664286D01*
X107085714Y-93692857D01*
X107142857Y-93721429D01*
X107200000Y-93721429D01*
X107257143Y-93692857D01*
X107285714Y-93664286D01*
X107314286Y-93607143D01*
X107342857Y-93492857D01*
X107342857Y-93350000D01*
X107314286Y-93235714D01*
X107285714Y-93178571D01*
X107257143Y-93150000D01*
X107200000Y-93121429D01*
X106428571Y-93721429D02*
X106771428Y-93721429D01*
X106600000Y-93721429D02*
X106600000Y-93121429D01*
X106657143Y-93207143D01*
X106714285Y-93264286D01*
X106771428Y-93292857D01*
X106228571Y-93121429D02*
X105828571Y-93121429D01*
X106085714Y-93721429D01*
X128507143Y-83876429D02*
X128507143Y-83276429D01*
X128221429Y-83476429D02*
X128221429Y-83876429D01*
X128221429Y-83533571D02*
X128192857Y-83505000D01*
X128135715Y-83476429D01*
X128050000Y-83476429D01*
X127992857Y-83505000D01*
X127964286Y-83562143D01*
X127964286Y-83876429D01*
X127221429Y-83476429D02*
X127221429Y-84076429D01*
X127221429Y-83505000D02*
X127164286Y-83476429D01*
X127050000Y-83476429D01*
X126992857Y-83505000D01*
X126964286Y-83533571D01*
X126935715Y-83590714D01*
X126935715Y-83762143D01*
X126964286Y-83819286D01*
X126992857Y-83847857D01*
X127050000Y-83876429D01*
X127164286Y-83876429D01*
X127221429Y-83847857D01*
X126678572Y-83876429D02*
X126678572Y-83476429D01*
X126678572Y-83590714D02*
X126650000Y-83533571D01*
X126621429Y-83505000D01*
X126564286Y-83476429D01*
X126507143Y-83476429D01*
X126221429Y-83876429D02*
X126278571Y-83847857D01*
X126307143Y-83819286D01*
X126335714Y-83762143D01*
X126335714Y-83590714D01*
X126307143Y-83533571D01*
X126278571Y-83505000D01*
X126221429Y-83476429D01*
X126135714Y-83476429D01*
X126078571Y-83505000D01*
X126050000Y-83533571D01*
X126021429Y-83590714D01*
X126021429Y-83762143D01*
X126050000Y-83819286D01*
X126078571Y-83847857D01*
X126135714Y-83876429D01*
X126221429Y-83876429D01*
X125507143Y-83476429D02*
X125507143Y-83962143D01*
X125535714Y-84019286D01*
X125564286Y-84047857D01*
X125621429Y-84076429D01*
X125707143Y-84076429D01*
X125764286Y-84047857D01*
X125507143Y-83847857D02*
X125564286Y-83876429D01*
X125678572Y-83876429D01*
X125735714Y-83847857D01*
X125764286Y-83819286D01*
X125792857Y-83762143D01*
X125792857Y-83590714D01*
X125764286Y-83533571D01*
X125735714Y-83505000D01*
X125678572Y-83476429D01*
X125564286Y-83476429D01*
X125507143Y-83505000D01*
X125221429Y-83876429D02*
X125221429Y-83476429D01*
X125221429Y-83590714D02*
X125192857Y-83533571D01*
X125164286Y-83505000D01*
X125107143Y-83476429D01*
X125050000Y-83476429D01*
X124592857Y-83876429D02*
X124592857Y-83562143D01*
X124621428Y-83505000D01*
X124678571Y-83476429D01*
X124792857Y-83476429D01*
X124850000Y-83505000D01*
X124592857Y-83847857D02*
X124650000Y-83876429D01*
X124792857Y-83876429D01*
X124850000Y-83847857D01*
X124878571Y-83790714D01*
X124878571Y-83733571D01*
X124850000Y-83676429D01*
X124792857Y-83647857D01*
X124650000Y-83647857D01*
X124592857Y-83619286D01*
X124307143Y-83876429D02*
X124307143Y-83476429D01*
X124307143Y-83533571D02*
X124278571Y-83505000D01*
X124221429Y-83476429D01*
X124135714Y-83476429D01*
X124078571Y-83505000D01*
X124050000Y-83562143D01*
X124050000Y-83876429D01*
X124050000Y-83562143D02*
X124021429Y-83505000D01*
X123964286Y-83476429D01*
X123878571Y-83476429D01*
X123821429Y-83505000D01*
X123792857Y-83562143D01*
X123792857Y-83876429D01*
X123507143Y-83876429D02*
X123507143Y-83476429D01*
X123507143Y-83533571D02*
X123478571Y-83505000D01*
X123421429Y-83476429D01*
X123335714Y-83476429D01*
X123278571Y-83505000D01*
X123250000Y-83562143D01*
X123250000Y-83876429D01*
X123250000Y-83562143D02*
X123221429Y-83505000D01*
X123164286Y-83476429D01*
X123078571Y-83476429D01*
X123021429Y-83505000D01*
X122992857Y-83562143D01*
X122992857Y-83876429D01*
X122707143Y-83876429D02*
X122707143Y-83476429D01*
X122707143Y-83276429D02*
X122735714Y-83305000D01*
X122707143Y-83333571D01*
X122678571Y-83305000D01*
X122707143Y-83276429D01*
X122707143Y-83333571D01*
X122421429Y-83476429D02*
X122421429Y-83876429D01*
X122421429Y-83533571D02*
X122392857Y-83505000D01*
X122335715Y-83476429D01*
X122250000Y-83476429D01*
X122192857Y-83505000D01*
X122164286Y-83562143D01*
X122164286Y-83876429D01*
X121621429Y-83476429D02*
X121621429Y-83962143D01*
X121650000Y-84019286D01*
X121678572Y-84047857D01*
X121735715Y-84076429D01*
X121821429Y-84076429D01*
X121878572Y-84047857D01*
X121621429Y-83847857D02*
X121678572Y-83876429D01*
X121792858Y-83876429D01*
X121850000Y-83847857D01*
X121878572Y-83819286D01*
X121907143Y-83762143D01*
X121907143Y-83590714D01*
X121878572Y-83533571D01*
X121850000Y-83505000D01*
X121792858Y-83476429D01*
X121678572Y-83476429D01*
X121621429Y-83505000D01*
X121307143Y-83847857D02*
X121307143Y-83876429D01*
X121335715Y-83933571D01*
X121364286Y-83962143D01*
X128507143Y-84866429D02*
X128507143Y-84266429D01*
X128278571Y-84266429D01*
X128221429Y-84295000D01*
X128192857Y-84323571D01*
X128164286Y-84380714D01*
X128164286Y-84466429D01*
X128192857Y-84523571D01*
X128221429Y-84552143D01*
X128278571Y-84580714D01*
X128507143Y-84580714D01*
X127592857Y-84866429D02*
X127935714Y-84866429D01*
X127764286Y-84866429D02*
X127764286Y-84266429D01*
X127821429Y-84352143D01*
X127878571Y-84409286D01*
X127935714Y-84437857D01*
X126878571Y-84866429D02*
X126878571Y-84466429D01*
X126878571Y-84523571D02*
X126849999Y-84495000D01*
X126792857Y-84466429D01*
X126707142Y-84466429D01*
X126649999Y-84495000D01*
X126621428Y-84552143D01*
X126621428Y-84866429D01*
X126621428Y-84552143D02*
X126592857Y-84495000D01*
X126535714Y-84466429D01*
X126449999Y-84466429D01*
X126392857Y-84495000D01*
X126364285Y-84552143D01*
X126364285Y-84866429D01*
X125821428Y-84466429D02*
X125821428Y-84866429D01*
X126078571Y-84466429D02*
X126078571Y-84780714D01*
X126049999Y-84837857D01*
X125992857Y-84866429D01*
X125907142Y-84866429D01*
X125849999Y-84837857D01*
X125821428Y-84809286D01*
X125564285Y-84837857D02*
X125507142Y-84866429D01*
X125392857Y-84866429D01*
X125335714Y-84837857D01*
X125307142Y-84780714D01*
X125307142Y-84752143D01*
X125335714Y-84695000D01*
X125392857Y-84666429D01*
X125478571Y-84666429D01*
X125535714Y-84637857D01*
X125564285Y-84580714D01*
X125564285Y-84552143D01*
X125535714Y-84495000D01*
X125478571Y-84466429D01*
X125392857Y-84466429D01*
X125335714Y-84495000D01*
X125135714Y-84466429D02*
X124907143Y-84466429D01*
X125050000Y-84266429D02*
X125050000Y-84780714D01*
X125021428Y-84837857D01*
X124964286Y-84866429D01*
X124907143Y-84866429D01*
X124250000Y-84866429D02*
X124250000Y-84266429D01*
X124250000Y-84495000D02*
X124192857Y-84466429D01*
X124078571Y-84466429D01*
X124021428Y-84495000D01*
X123992857Y-84523571D01*
X123964286Y-84580714D01*
X123964286Y-84752143D01*
X123992857Y-84809286D01*
X124021428Y-84837857D01*
X124078571Y-84866429D01*
X124192857Y-84866429D01*
X124250000Y-84837857D01*
X123478571Y-84837857D02*
X123535714Y-84866429D01*
X123650000Y-84866429D01*
X123707143Y-84837857D01*
X123735714Y-84780714D01*
X123735714Y-84552143D01*
X123707143Y-84495000D01*
X123650000Y-84466429D01*
X123535714Y-84466429D01*
X123478571Y-84495000D01*
X123450000Y-84552143D01*
X123450000Y-84609286D01*
X123735714Y-84666429D01*
X122478571Y-84837857D02*
X122535714Y-84866429D01*
X122650000Y-84866429D01*
X122707142Y-84837857D01*
X122735714Y-84809286D01*
X122764285Y-84752143D01*
X122764285Y-84580714D01*
X122735714Y-84523571D01*
X122707142Y-84495000D01*
X122650000Y-84466429D01*
X122535714Y-84466429D01*
X122478571Y-84495000D01*
X121964285Y-84466429D02*
X121964285Y-84866429D01*
X122221428Y-84466429D02*
X122221428Y-84780714D01*
X122192856Y-84837857D01*
X122135714Y-84866429D01*
X122049999Y-84866429D01*
X121992856Y-84837857D01*
X121964285Y-84809286D01*
X121764285Y-84466429D02*
X121535714Y-84466429D01*
X121678571Y-84266429D02*
X121678571Y-84780714D01*
X121649999Y-84837857D01*
X121592857Y-84866429D01*
X121535714Y-84866429D01*
X121421428Y-84466429D02*
X121192857Y-84466429D01*
X121335714Y-84266429D02*
X121335714Y-84780714D01*
X121307142Y-84837857D01*
X121250000Y-84866429D01*
X121192857Y-84866429D01*
X120764285Y-84837857D02*
X120821428Y-84866429D01*
X120935714Y-84866429D01*
X120992857Y-84837857D01*
X121021428Y-84780714D01*
X121021428Y-84552143D01*
X120992857Y-84495000D01*
X120935714Y-84466429D01*
X120821428Y-84466429D01*
X120764285Y-84495000D01*
X120735714Y-84552143D01*
X120735714Y-84609286D01*
X121021428Y-84666429D01*
X120221428Y-84866429D02*
X120221428Y-84266429D01*
X120221428Y-84837857D02*
X120278571Y-84866429D01*
X120392857Y-84866429D01*
X120449999Y-84837857D01*
X120478571Y-84809286D01*
X120507142Y-84752143D01*
X120507142Y-84580714D01*
X120478571Y-84523571D01*
X120449999Y-84495000D01*
X120392857Y-84466429D01*
X120278571Y-84466429D01*
X120221428Y-84495000D01*
X119392857Y-84866429D02*
X119449999Y-84837857D01*
X119478571Y-84809286D01*
X119507142Y-84752143D01*
X119507142Y-84580714D01*
X119478571Y-84523571D01*
X119449999Y-84495000D01*
X119392857Y-84466429D01*
X119307142Y-84466429D01*
X119249999Y-84495000D01*
X119221428Y-84523571D01*
X119192857Y-84580714D01*
X119192857Y-84752143D01*
X119221428Y-84809286D01*
X119249999Y-84837857D01*
X119307142Y-84866429D01*
X119392857Y-84866429D01*
X119021428Y-84466429D02*
X118792857Y-84466429D01*
X118935714Y-84866429D02*
X118935714Y-84352143D01*
X118907142Y-84295000D01*
X118850000Y-84266429D01*
X118792857Y-84266429D01*
X118678571Y-84466429D02*
X118450000Y-84466429D01*
X118592857Y-84866429D02*
X118592857Y-84352143D01*
X118564285Y-84295000D01*
X118507143Y-84266429D01*
X118450000Y-84266429D01*
X118250000Y-84809286D02*
X118221428Y-84837857D01*
X118250000Y-84866429D01*
X118278571Y-84837857D01*
X118250000Y-84809286D01*
X118250000Y-84866429D01*
D11*
X125502381Y-78961905D02*
X124502381Y-78961905D01*
X124502381Y-79342858D01*
X124550000Y-79438096D01*
X124597619Y-79485715D01*
X124692857Y-79533334D01*
X124835714Y-79533334D01*
X124930952Y-79485715D01*
X124978571Y-79438096D01*
X125026190Y-79342858D01*
X125026190Y-78961905D01*
X124978571Y-80295239D02*
X125026190Y-80438096D01*
X125073810Y-80485715D01*
X125169048Y-80533334D01*
X125311905Y-80533334D01*
X125407143Y-80485715D01*
X125454762Y-80438096D01*
X125502381Y-80342858D01*
X125502381Y-79961905D01*
X124502381Y-79961905D01*
X124502381Y-80295239D01*
X124550000Y-80390477D01*
X124597619Y-80438096D01*
X124692857Y-80485715D01*
X124788095Y-80485715D01*
X124883333Y-80438096D01*
X124930952Y-80390477D01*
X124978571Y-80295239D01*
X124978571Y-79961905D01*
X124597619Y-80914286D02*
X124550000Y-80961905D01*
X124502381Y-81057143D01*
X124502381Y-81295239D01*
X124550000Y-81390477D01*
X124597619Y-81438096D01*
X124692857Y-81485715D01*
X124788095Y-81485715D01*
X124930952Y-81438096D01*
X125502381Y-80866667D01*
X125502381Y-81485715D01*
X128052381Y-78911905D02*
X127052381Y-78911905D01*
X127052381Y-79292858D01*
X127100000Y-79388096D01*
X127147619Y-79435715D01*
X127242857Y-79483334D01*
X127385714Y-79483334D01*
X127480952Y-79435715D01*
X127528571Y-79388096D01*
X127576190Y-79292858D01*
X127576190Y-78911905D01*
X127528571Y-80245239D02*
X127576190Y-80388096D01*
X127623810Y-80435715D01*
X127719048Y-80483334D01*
X127861905Y-80483334D01*
X127957143Y-80435715D01*
X128004762Y-80388096D01*
X128052381Y-80292858D01*
X128052381Y-79911905D01*
X127052381Y-79911905D01*
X127052381Y-80245239D01*
X127100000Y-80340477D01*
X127147619Y-80388096D01*
X127242857Y-80435715D01*
X127338095Y-80435715D01*
X127433333Y-80388096D01*
X127480952Y-80340477D01*
X127528571Y-80245239D01*
X127528571Y-79911905D01*
X127052381Y-80816667D02*
X127052381Y-81435715D01*
X127433333Y-81102381D01*
X127433333Y-81245239D01*
X127480952Y-81340477D01*
X127528571Y-81388096D01*
X127623810Y-81435715D01*
X127861905Y-81435715D01*
X127957143Y-81388096D01*
X128004762Y-81340477D01*
X128052381Y-81245239D01*
X128052381Y-80959524D01*
X128004762Y-80864286D01*
X127957143Y-80816667D01*
X125352381Y-70961905D02*
X124352381Y-70961905D01*
X124352381Y-71342858D01*
X124400000Y-71438096D01*
X124447619Y-71485715D01*
X124542857Y-71533334D01*
X124685714Y-71533334D01*
X124780952Y-71485715D01*
X124828571Y-71438096D01*
X124876190Y-71342858D01*
X124876190Y-70961905D01*
X124828571Y-72295239D02*
X124876190Y-72438096D01*
X124923810Y-72485715D01*
X125019048Y-72533334D01*
X125161905Y-72533334D01*
X125257143Y-72485715D01*
X125304762Y-72438096D01*
X125352381Y-72342858D01*
X125352381Y-71961905D01*
X124352381Y-71961905D01*
X124352381Y-72295239D01*
X124400000Y-72390477D01*
X124447619Y-72438096D01*
X124542857Y-72485715D01*
X124638095Y-72485715D01*
X124733333Y-72438096D01*
X124780952Y-72390477D01*
X124828571Y-72295239D01*
X124828571Y-71961905D01*
X125352381Y-73485715D02*
X125352381Y-72914286D01*
X125352381Y-73200000D02*
X124352381Y-73200000D01*
X124495238Y-73104762D01*
X124590476Y-73009524D01*
X124638095Y-72914286D01*
X127952381Y-70911905D02*
X126952381Y-70911905D01*
X126952381Y-71292858D01*
X127000000Y-71388096D01*
X127047619Y-71435715D01*
X127142857Y-71483334D01*
X127285714Y-71483334D01*
X127380952Y-71435715D01*
X127428571Y-71388096D01*
X127476190Y-71292858D01*
X127476190Y-70911905D01*
X127428571Y-72245239D02*
X127476190Y-72388096D01*
X127523810Y-72435715D01*
X127619048Y-72483334D01*
X127761905Y-72483334D01*
X127857143Y-72435715D01*
X127904762Y-72388096D01*
X127952381Y-72292858D01*
X127952381Y-71911905D01*
X126952381Y-71911905D01*
X126952381Y-72245239D01*
X127000000Y-72340477D01*
X127047619Y-72388096D01*
X127142857Y-72435715D01*
X127238095Y-72435715D01*
X127333333Y-72388096D01*
X127380952Y-72340477D01*
X127428571Y-72245239D01*
X127428571Y-71911905D01*
X126952381Y-73102381D02*
X126952381Y-73197620D01*
X127000000Y-73292858D01*
X127047619Y-73340477D01*
X127142857Y-73388096D01*
X127333333Y-73435715D01*
X127571429Y-73435715D01*
X127761905Y-73388096D01*
X127857143Y-73340477D01*
X127904762Y-73292858D01*
X127952381Y-73197620D01*
X127952381Y-73102381D01*
X127904762Y-73007143D01*
X127857143Y-72959524D01*
X127761905Y-72911905D01*
X127571429Y-72864286D01*
X127333333Y-72864286D01*
X127142857Y-72911905D01*
X127047619Y-72959524D01*
X127000000Y-73007143D01*
X126952381Y-73102381D01*
D14*
X107664285Y-73628571D02*
X106735714Y-73628571D01*
X107235714Y-74200000D01*
X107021428Y-74200000D01*
X106878571Y-74271429D01*
X106807142Y-74342857D01*
X106735714Y-74485714D01*
X106735714Y-74842857D01*
X106807142Y-74985714D01*
X106878571Y-75057143D01*
X107021428Y-75128571D01*
X107450000Y-75128571D01*
X107592857Y-75057143D01*
X107664285Y-74985714D01*
X106092857Y-74985714D02*
X106021429Y-75057143D01*
X106092857Y-75128571D01*
X106164286Y-75057143D01*
X106092857Y-74985714D01*
X106092857Y-75128571D01*
X105521428Y-73628571D02*
X104592857Y-73628571D01*
X105092857Y-74200000D01*
X104878571Y-74200000D01*
X104735714Y-74271429D01*
X104664285Y-74342857D01*
X104592857Y-74485714D01*
X104592857Y-74842857D01*
X104664285Y-74985714D01*
X104735714Y-75057143D01*
X104878571Y-75128571D01*
X105307143Y-75128571D01*
X105450000Y-75057143D01*
X105521428Y-74985714D01*
X104164286Y-73628571D02*
X103664286Y-75128571D01*
X103164286Y-73628571D01*
X106242857Y-71050000D02*
X106385714Y-70978571D01*
X106600000Y-70978571D01*
X106814285Y-71050000D01*
X106957143Y-71192857D01*
X107028571Y-71335714D01*
X107100000Y-71621429D01*
X107100000Y-71835714D01*
X107028571Y-72121429D01*
X106957143Y-72264286D01*
X106814285Y-72407143D01*
X106600000Y-72478571D01*
X106457143Y-72478571D01*
X106242857Y-72407143D01*
X106171428Y-72335714D01*
X106171428Y-71835714D01*
X106457143Y-71835714D01*
X105528571Y-72478571D02*
X105528571Y-70978571D01*
X104671428Y-72478571D01*
X104671428Y-70978571D01*
X103957142Y-72478571D02*
X103957142Y-70978571D01*
X103599999Y-70978571D01*
X103385714Y-71050000D01*
X103242856Y-71192857D01*
X103171428Y-71335714D01*
X103099999Y-71621429D01*
X103099999Y-71835714D01*
X103171428Y-72121429D01*
X103242856Y-72264286D01*
X103385714Y-72407143D01*
X103599999Y-72478571D01*
X103957142Y-72478571D01*
M02*
