G04 #@! TF.FileFunction,Legend,Bot*
%FSLAX46Y46*%
G04 Gerber Fmt 4.6, Leading zero omitted, Abs format (unit mm)*
G04 Created by KiCad (PCBNEW 4.0.1-stable) date 2019/04/06 0:17:03*
%MOMM*%
G01*
G04 APERTURE LIST*
%ADD10C,0.100000*%
%ADD11C,0.150000*%
%ADD12C,0.200000*%
%ADD13C,0.300000*%
%ADD14C,0.120000*%
G04 APERTURE END LIST*
D10*
D11*
X159083333Y-115916663D02*
X159083333Y-115583329D01*
X158883333Y-115983329D02*
X159583333Y-115749996D01*
X158883333Y-115516663D01*
X159350000Y-115383329D02*
X159350000Y-115116663D01*
X159583333Y-115283329D02*
X158983333Y-115283329D01*
X158916667Y-115249996D01*
X158883333Y-115183329D01*
X158883333Y-115116663D01*
X159350000Y-114349996D02*
X158650000Y-114349996D01*
X159316667Y-114349996D02*
X159350000Y-114283330D01*
X159350000Y-114149996D01*
X159316667Y-114083330D01*
X159283333Y-114049996D01*
X159216667Y-114016663D01*
X159016667Y-114016663D01*
X158950000Y-114049996D01*
X158916667Y-114083330D01*
X158883333Y-114149996D01*
X158883333Y-114283330D01*
X158916667Y-114349996D01*
X158883333Y-113716663D02*
X159350000Y-113716663D01*
X159216667Y-113716663D02*
X159283333Y-113683330D01*
X159316667Y-113649997D01*
X159350000Y-113583330D01*
X159350000Y-113516663D01*
X158883333Y-113183330D02*
X158916667Y-113249997D01*
X158950000Y-113283330D01*
X159016667Y-113316664D01*
X159216667Y-113316664D01*
X159283333Y-113283330D01*
X159316667Y-113249997D01*
X159350000Y-113183330D01*
X159350000Y-113083330D01*
X159316667Y-113016664D01*
X159283333Y-112983330D01*
X159216667Y-112949997D01*
X159016667Y-112949997D01*
X158950000Y-112983330D01*
X158916667Y-113016664D01*
X158883333Y-113083330D01*
X158883333Y-113183330D01*
X159350000Y-112349997D02*
X158783333Y-112349997D01*
X158716667Y-112383331D01*
X158683333Y-112416664D01*
X158650000Y-112483331D01*
X158650000Y-112583331D01*
X158683333Y-112649997D01*
X158916667Y-112349997D02*
X158883333Y-112416664D01*
X158883333Y-112549997D01*
X158916667Y-112616664D01*
X158950000Y-112649997D01*
X159016667Y-112683331D01*
X159216667Y-112683331D01*
X159283333Y-112649997D01*
X159316667Y-112616664D01*
X159350000Y-112549997D01*
X159350000Y-112416664D01*
X159316667Y-112349997D01*
X158883333Y-112016664D02*
X159350000Y-112016664D01*
X159216667Y-112016664D02*
X159283333Y-111983331D01*
X159316667Y-111949998D01*
X159350000Y-111883331D01*
X159350000Y-111816664D01*
X158883333Y-111283331D02*
X159250000Y-111283331D01*
X159316667Y-111316665D01*
X159350000Y-111383331D01*
X159350000Y-111516665D01*
X159316667Y-111583331D01*
X158916667Y-111283331D02*
X158883333Y-111349998D01*
X158883333Y-111516665D01*
X158916667Y-111583331D01*
X158983333Y-111616665D01*
X159050000Y-111616665D01*
X159116667Y-111583331D01*
X159150000Y-111516665D01*
X159150000Y-111349998D01*
X159183333Y-111283331D01*
X158883333Y-110949998D02*
X159350000Y-110949998D01*
X159283333Y-110949998D02*
X159316667Y-110916665D01*
X159350000Y-110849998D01*
X159350000Y-110749998D01*
X159316667Y-110683332D01*
X159250000Y-110649998D01*
X158883333Y-110649998D01*
X159250000Y-110649998D02*
X159316667Y-110616665D01*
X159350000Y-110549998D01*
X159350000Y-110449998D01*
X159316667Y-110383332D01*
X159250000Y-110349998D01*
X158883333Y-110349998D01*
X158883333Y-110016665D02*
X159350000Y-110016665D01*
X159283333Y-110016665D02*
X159316667Y-109983332D01*
X159350000Y-109916665D01*
X159350000Y-109816665D01*
X159316667Y-109749999D01*
X159250000Y-109716665D01*
X158883333Y-109716665D01*
X159250000Y-109716665D02*
X159316667Y-109683332D01*
X159350000Y-109616665D01*
X159350000Y-109516665D01*
X159316667Y-109449999D01*
X159250000Y-109416665D01*
X158883333Y-109416665D01*
X158883333Y-109083332D02*
X159350000Y-109083332D01*
X159583333Y-109083332D02*
X159550000Y-109116666D01*
X159516667Y-109083332D01*
X159550000Y-109049999D01*
X159583333Y-109083332D01*
X159516667Y-109083332D01*
X159350000Y-108749999D02*
X158883333Y-108749999D01*
X159283333Y-108749999D02*
X159316667Y-108716666D01*
X159350000Y-108649999D01*
X159350000Y-108549999D01*
X159316667Y-108483333D01*
X159250000Y-108449999D01*
X158883333Y-108449999D01*
X159350000Y-107816666D02*
X158783333Y-107816666D01*
X158716667Y-107850000D01*
X158683333Y-107883333D01*
X158650000Y-107950000D01*
X158650000Y-108050000D01*
X158683333Y-108116666D01*
X158916667Y-107816666D02*
X158883333Y-107883333D01*
X158883333Y-108016666D01*
X158916667Y-108083333D01*
X158950000Y-108116666D01*
X159016667Y-108150000D01*
X159216667Y-108150000D01*
X159283333Y-108116666D01*
X159316667Y-108083333D01*
X159350000Y-108016666D01*
X159350000Y-107883333D01*
X159316667Y-107816666D01*
X158916667Y-107450000D02*
X158883333Y-107450000D01*
X158816667Y-107483333D01*
X158783333Y-107516667D01*
X159583333Y-106416667D02*
X159083333Y-106416667D01*
X158983333Y-106450001D01*
X158916667Y-106516667D01*
X158883333Y-106616667D01*
X158883333Y-106683334D01*
X158883333Y-106083334D02*
X159583333Y-106083334D01*
X159583333Y-105816668D01*
X159550000Y-105750001D01*
X159516667Y-105716668D01*
X159450000Y-105683334D01*
X159350000Y-105683334D01*
X159283333Y-105716668D01*
X159250000Y-105750001D01*
X159216667Y-105816668D01*
X159216667Y-106083334D01*
X158883333Y-105016668D02*
X158883333Y-105416668D01*
X158883333Y-105216668D02*
X159583333Y-105216668D01*
X159483333Y-105283334D01*
X159416667Y-105350001D01*
X159383333Y-105416668D01*
X158883333Y-104183334D02*
X159350000Y-104183334D01*
X159283333Y-104183334D02*
X159316667Y-104150001D01*
X159350000Y-104083334D01*
X159350000Y-103983334D01*
X159316667Y-103916668D01*
X159250000Y-103883334D01*
X158883333Y-103883334D01*
X159250000Y-103883334D02*
X159316667Y-103850001D01*
X159350000Y-103783334D01*
X159350000Y-103683334D01*
X159316667Y-103616668D01*
X159250000Y-103583334D01*
X158883333Y-103583334D01*
X159350000Y-102950001D02*
X158883333Y-102950001D01*
X159350000Y-103250001D02*
X158983333Y-103250001D01*
X158916667Y-103216668D01*
X158883333Y-103150001D01*
X158883333Y-103050001D01*
X158916667Y-102983335D01*
X158950000Y-102950001D01*
X158916667Y-102650002D02*
X158883333Y-102583335D01*
X158883333Y-102450002D01*
X158916667Y-102383335D01*
X158983333Y-102350002D01*
X159016667Y-102350002D01*
X159083333Y-102383335D01*
X159116667Y-102450002D01*
X159116667Y-102550002D01*
X159150000Y-102616668D01*
X159216667Y-102650002D01*
X159250000Y-102650002D01*
X159316667Y-102616668D01*
X159350000Y-102550002D01*
X159350000Y-102450002D01*
X159316667Y-102383335D01*
X159350000Y-102150001D02*
X159350000Y-101883335D01*
X159583333Y-102050001D02*
X158983333Y-102050001D01*
X158916667Y-102016668D01*
X158883333Y-101950001D01*
X158883333Y-101883335D01*
X158883333Y-101116668D02*
X159583333Y-101116668D01*
X159316667Y-101116668D02*
X159350000Y-101050002D01*
X159350000Y-100916668D01*
X159316667Y-100850002D01*
X159283333Y-100816668D01*
X159216667Y-100783335D01*
X159016667Y-100783335D01*
X158950000Y-100816668D01*
X158916667Y-100850002D01*
X158883333Y-100916668D01*
X158883333Y-101050002D01*
X158916667Y-101116668D01*
X158916667Y-100216669D02*
X158883333Y-100283335D01*
X158883333Y-100416669D01*
X158916667Y-100483335D01*
X158983333Y-100516669D01*
X159250000Y-100516669D01*
X159316667Y-100483335D01*
X159350000Y-100416669D01*
X159350000Y-100283335D01*
X159316667Y-100216669D01*
X159250000Y-100183335D01*
X159183333Y-100183335D01*
X159116667Y-100516669D01*
X158916667Y-99050002D02*
X158883333Y-99116669D01*
X158883333Y-99250002D01*
X158916667Y-99316669D01*
X158950000Y-99350002D01*
X159016667Y-99383336D01*
X159216667Y-99383336D01*
X159283333Y-99350002D01*
X159316667Y-99316669D01*
X159350000Y-99250002D01*
X159350000Y-99116669D01*
X159316667Y-99050002D01*
X159350000Y-98450002D02*
X158883333Y-98450002D01*
X159350000Y-98750002D02*
X158983333Y-98750002D01*
X158916667Y-98716669D01*
X158883333Y-98650002D01*
X158883333Y-98550002D01*
X158916667Y-98483336D01*
X158950000Y-98450002D01*
X159350000Y-98216669D02*
X159350000Y-97950003D01*
X159583333Y-98116669D02*
X158983333Y-98116669D01*
X158916667Y-98083336D01*
X158883333Y-98016669D01*
X158883333Y-97950003D01*
X158916667Y-97450003D02*
X158883333Y-97516669D01*
X158883333Y-97650003D01*
X158916667Y-97716669D01*
X158983333Y-97750003D01*
X159250000Y-97750003D01*
X159316667Y-97716669D01*
X159350000Y-97650003D01*
X159350000Y-97516669D01*
X159316667Y-97450003D01*
X159250000Y-97416669D01*
X159183333Y-97416669D01*
X159116667Y-97750003D01*
X158883333Y-96816669D02*
X159583333Y-96816669D01*
X158916667Y-96816669D02*
X158883333Y-96883336D01*
X158883333Y-97016669D01*
X158916667Y-97083336D01*
X158950000Y-97116669D01*
X159016667Y-97150003D01*
X159216667Y-97150003D01*
X159283333Y-97116669D01*
X159316667Y-97083336D01*
X159350000Y-97016669D01*
X159350000Y-96883336D01*
X159316667Y-96816669D01*
X158883333Y-95850003D02*
X158916667Y-95916670D01*
X158950000Y-95950003D01*
X159016667Y-95983337D01*
X159216667Y-95983337D01*
X159283333Y-95950003D01*
X159316667Y-95916670D01*
X159350000Y-95850003D01*
X159350000Y-95750003D01*
X159316667Y-95683337D01*
X159283333Y-95650003D01*
X159216667Y-95616670D01*
X159016667Y-95616670D01*
X158950000Y-95650003D01*
X158916667Y-95683337D01*
X158883333Y-95750003D01*
X158883333Y-95850003D01*
X159350000Y-95416670D02*
X159350000Y-95150004D01*
X158883333Y-95316670D02*
X159483333Y-95316670D01*
X159550000Y-95283337D01*
X159583333Y-95216670D01*
X159583333Y-95150004D01*
X159350000Y-95016670D02*
X159350000Y-94750004D01*
X158883333Y-94916670D02*
X159483333Y-94916670D01*
X159550000Y-94883337D01*
X159583333Y-94816670D01*
X159583333Y-94750004D01*
X158950000Y-94516670D02*
X158916667Y-94483337D01*
X158883333Y-94516670D01*
X158916667Y-94550004D01*
X158950000Y-94516670D01*
X158883333Y-94516670D01*
D12*
X157598095Y-115828573D02*
X158398095Y-115828573D01*
X157598095Y-115485716D02*
X158017143Y-115485716D01*
X158093333Y-115523811D01*
X158131429Y-115600001D01*
X158131429Y-115714287D01*
X158093333Y-115790478D01*
X158055238Y-115828573D01*
X158131429Y-115219049D02*
X158131429Y-114914287D01*
X158398095Y-115104763D02*
X157712381Y-115104763D01*
X157636190Y-115066668D01*
X157598095Y-114990477D01*
X157598095Y-114914287D01*
X158131429Y-114761906D02*
X158131429Y-114457144D01*
X158398095Y-114647620D02*
X157712381Y-114647620D01*
X157636190Y-114609525D01*
X157598095Y-114533334D01*
X157598095Y-114457144D01*
X158131429Y-114190477D02*
X157331429Y-114190477D01*
X158093333Y-114190477D02*
X158131429Y-114114286D01*
X158131429Y-113961905D01*
X158093333Y-113885715D01*
X158055238Y-113847620D01*
X157979048Y-113809524D01*
X157750476Y-113809524D01*
X157674286Y-113847620D01*
X157636190Y-113885715D01*
X157598095Y-113961905D01*
X157598095Y-114114286D01*
X157636190Y-114190477D01*
X157636190Y-113504762D02*
X157598095Y-113428572D01*
X157598095Y-113276191D01*
X157636190Y-113200000D01*
X157712381Y-113161905D01*
X157750476Y-113161905D01*
X157826667Y-113200000D01*
X157864762Y-113276191D01*
X157864762Y-113390476D01*
X157902857Y-113466667D01*
X157979048Y-113504762D01*
X158017143Y-113504762D01*
X158093333Y-113466667D01*
X158131429Y-113390476D01*
X158131429Y-113276191D01*
X158093333Y-113200000D01*
X157674286Y-112819048D02*
X157636190Y-112780953D01*
X157598095Y-112819048D01*
X157636190Y-112857143D01*
X157674286Y-112819048D01*
X157598095Y-112819048D01*
X158093333Y-112819048D02*
X158055238Y-112780953D01*
X158017143Y-112819048D01*
X158055238Y-112857143D01*
X158093333Y-112819048D01*
X158017143Y-112819048D01*
X158436190Y-111866667D02*
X157407619Y-112552382D01*
X158436190Y-111028572D02*
X157407619Y-111714287D01*
X158131429Y-110419049D02*
X157483810Y-110419049D01*
X157407619Y-110457144D01*
X157369524Y-110495239D01*
X157331429Y-110571430D01*
X157331429Y-110685715D01*
X157369524Y-110761906D01*
X157636190Y-110419049D02*
X157598095Y-110495239D01*
X157598095Y-110647620D01*
X157636190Y-110723811D01*
X157674286Y-110761906D01*
X157750476Y-110800001D01*
X157979048Y-110800001D01*
X158055238Y-110761906D01*
X158093333Y-110723811D01*
X158131429Y-110647620D01*
X158131429Y-110495239D01*
X158093333Y-110419049D01*
X157598095Y-110038096D02*
X158131429Y-110038096D01*
X158398095Y-110038096D02*
X158360000Y-110076191D01*
X158321905Y-110038096D01*
X158360000Y-110000001D01*
X158398095Y-110038096D01*
X158321905Y-110038096D01*
X158131429Y-109771430D02*
X158131429Y-109466668D01*
X158398095Y-109657144D02*
X157712381Y-109657144D01*
X157636190Y-109619049D01*
X157598095Y-109542858D01*
X157598095Y-109466668D01*
X157598095Y-109200001D02*
X158398095Y-109200001D01*
X157598095Y-108857144D02*
X158017143Y-108857144D01*
X158093333Y-108895239D01*
X158131429Y-108971429D01*
X158131429Y-109085715D01*
X158093333Y-109161906D01*
X158055238Y-109200001D01*
X158131429Y-108133334D02*
X157598095Y-108133334D01*
X158131429Y-108476191D02*
X157712381Y-108476191D01*
X157636190Y-108438096D01*
X157598095Y-108361905D01*
X157598095Y-108247619D01*
X157636190Y-108171429D01*
X157674286Y-108133334D01*
X157598095Y-107752381D02*
X158398095Y-107752381D01*
X158093333Y-107752381D02*
X158131429Y-107676190D01*
X158131429Y-107523809D01*
X158093333Y-107447619D01*
X158055238Y-107409524D01*
X157979048Y-107371428D01*
X157750476Y-107371428D01*
X157674286Y-107409524D01*
X157636190Y-107447619D01*
X157598095Y-107523809D01*
X157598095Y-107676190D01*
X157636190Y-107752381D01*
X157674286Y-107028571D02*
X157636190Y-106990476D01*
X157598095Y-107028571D01*
X157636190Y-107066666D01*
X157674286Y-107028571D01*
X157598095Y-107028571D01*
X157636190Y-106304762D02*
X157598095Y-106380952D01*
X157598095Y-106533333D01*
X157636190Y-106609524D01*
X157674286Y-106647619D01*
X157750476Y-106685714D01*
X157979048Y-106685714D01*
X158055238Y-106647619D01*
X158093333Y-106609524D01*
X158131429Y-106533333D01*
X158131429Y-106380952D01*
X158093333Y-106304762D01*
X157598095Y-105847619D02*
X157636190Y-105923810D01*
X157674286Y-105961905D01*
X157750476Y-106000000D01*
X157979048Y-106000000D01*
X158055238Y-105961905D01*
X158093333Y-105923810D01*
X158131429Y-105847619D01*
X158131429Y-105733333D01*
X158093333Y-105657143D01*
X158055238Y-105619048D01*
X157979048Y-105580952D01*
X157750476Y-105580952D01*
X157674286Y-105619048D01*
X157636190Y-105657143D01*
X157598095Y-105733333D01*
X157598095Y-105847619D01*
X157598095Y-105238095D02*
X158131429Y-105238095D01*
X158055238Y-105238095D02*
X158093333Y-105200000D01*
X158131429Y-105123809D01*
X158131429Y-105009523D01*
X158093333Y-104933333D01*
X158017143Y-104895238D01*
X157598095Y-104895238D01*
X158017143Y-104895238D02*
X158093333Y-104857142D01*
X158131429Y-104780952D01*
X158131429Y-104666666D01*
X158093333Y-104590476D01*
X158017143Y-104552381D01*
X157598095Y-104552381D01*
X158436190Y-103599999D02*
X157407619Y-104285714D01*
X157598095Y-103333333D02*
X158398095Y-103333333D01*
X157826667Y-103066666D01*
X158398095Y-102799999D01*
X157598095Y-102799999D01*
X158131429Y-102495237D02*
X157598095Y-102304761D01*
X158131429Y-102114285D02*
X157598095Y-102304761D01*
X157407619Y-102380952D01*
X157369524Y-102419047D01*
X157331429Y-102495237D01*
X158131429Y-101809523D02*
X157331429Y-101809523D01*
X158093333Y-101809523D02*
X158131429Y-101733332D01*
X158131429Y-101580951D01*
X158093333Y-101504761D01*
X158055238Y-101466666D01*
X157979048Y-101428570D01*
X157750476Y-101428570D01*
X157674286Y-101466666D01*
X157636190Y-101504761D01*
X157598095Y-101580951D01*
X157598095Y-101733332D01*
X157636190Y-101809523D01*
X157598095Y-100742856D02*
X158017143Y-100742856D01*
X158093333Y-100780951D01*
X158131429Y-100857141D01*
X158131429Y-101009522D01*
X158093333Y-101085713D01*
X157636190Y-100742856D02*
X157598095Y-100819046D01*
X157598095Y-101009522D01*
X157636190Y-101085713D01*
X157712381Y-101123808D01*
X157788571Y-101123808D01*
X157864762Y-101085713D01*
X157902857Y-101009522D01*
X157902857Y-100819046D01*
X157940952Y-100742856D01*
X157636190Y-100019046D02*
X157598095Y-100095236D01*
X157598095Y-100247617D01*
X157636190Y-100323808D01*
X157674286Y-100361903D01*
X157750476Y-100399998D01*
X157979048Y-100399998D01*
X158055238Y-100361903D01*
X158093333Y-100323808D01*
X158131429Y-100247617D01*
X158131429Y-100095236D01*
X158093333Y-100019046D01*
X157636190Y-99371427D02*
X157598095Y-99447617D01*
X157598095Y-99599998D01*
X157636190Y-99676189D01*
X157712381Y-99714284D01*
X158017143Y-99714284D01*
X158093333Y-99676189D01*
X158131429Y-99599998D01*
X158131429Y-99447617D01*
X158093333Y-99371427D01*
X158017143Y-99333332D01*
X157940952Y-99333332D01*
X157864762Y-99714284D01*
X158017143Y-98990475D02*
X158017143Y-98723808D01*
X157598095Y-98609522D02*
X157598095Y-98990475D01*
X158398095Y-98990475D01*
X158398095Y-98609522D01*
X158131429Y-98266665D02*
X157598095Y-98266665D01*
X158055238Y-98266665D02*
X158093333Y-98228570D01*
X158131429Y-98152379D01*
X158131429Y-98038093D01*
X158093333Y-97961903D01*
X158017143Y-97923808D01*
X157598095Y-97923808D01*
X158131429Y-97199998D02*
X157483810Y-97199998D01*
X157407619Y-97238093D01*
X157369524Y-97276188D01*
X157331429Y-97352379D01*
X157331429Y-97466664D01*
X157369524Y-97542855D01*
X157636190Y-97199998D02*
X157598095Y-97276188D01*
X157598095Y-97428569D01*
X157636190Y-97504760D01*
X157674286Y-97542855D01*
X157750476Y-97580950D01*
X157979048Y-97580950D01*
X158055238Y-97542855D01*
X158093333Y-97504760D01*
X158131429Y-97428569D01*
X158131429Y-97276188D01*
X158093333Y-97199998D01*
X157598095Y-96819045D02*
X158131429Y-96819045D01*
X158398095Y-96819045D02*
X158360000Y-96857140D01*
X158321905Y-96819045D01*
X158360000Y-96780950D01*
X158398095Y-96819045D01*
X158321905Y-96819045D01*
X158131429Y-96438093D02*
X157598095Y-96438093D01*
X158055238Y-96438093D02*
X158093333Y-96399998D01*
X158131429Y-96323807D01*
X158131429Y-96209521D01*
X158093333Y-96133331D01*
X158017143Y-96095236D01*
X157598095Y-96095236D01*
X157636190Y-95409521D02*
X157598095Y-95485711D01*
X157598095Y-95638092D01*
X157636190Y-95714283D01*
X157712381Y-95752378D01*
X158017143Y-95752378D01*
X158093333Y-95714283D01*
X158131429Y-95638092D01*
X158131429Y-95485711D01*
X158093333Y-95409521D01*
X158017143Y-95371426D01*
X157940952Y-95371426D01*
X157864762Y-95752378D01*
X158436190Y-94457140D02*
X157407619Y-95142855D01*
X156278095Y-111676192D02*
X156697143Y-111676192D01*
X156773333Y-111714287D01*
X156811429Y-111790477D01*
X156811429Y-111942858D01*
X156773333Y-112019049D01*
X156316190Y-111676192D02*
X156278095Y-111752382D01*
X156278095Y-111942858D01*
X156316190Y-112019049D01*
X156392381Y-112057144D01*
X156468571Y-112057144D01*
X156544762Y-112019049D01*
X156582857Y-111942858D01*
X156582857Y-111752382D01*
X156620952Y-111676192D01*
X156316190Y-110990477D02*
X156278095Y-111066667D01*
X156278095Y-111219048D01*
X156316190Y-111295239D01*
X156392381Y-111333334D01*
X156697143Y-111333334D01*
X156773333Y-111295239D01*
X156811429Y-111219048D01*
X156811429Y-111066667D01*
X156773333Y-110990477D01*
X156697143Y-110952382D01*
X156620952Y-110952382D01*
X156544762Y-111333334D01*
X156582857Y-110609525D02*
X156582857Y-110000001D01*
X156811429Y-109733335D02*
X156811429Y-109428573D01*
X157078095Y-109619049D02*
X156392381Y-109619049D01*
X156316190Y-109580954D01*
X156278095Y-109504763D01*
X156278095Y-109428573D01*
X156811429Y-109238096D02*
X156278095Y-109047620D01*
X156811429Y-108857144D02*
X156278095Y-109047620D01*
X156087619Y-109123811D01*
X156049524Y-109161906D01*
X156011429Y-109238096D01*
X156278095Y-108552382D02*
X157078095Y-108552382D01*
X156773333Y-108552382D02*
X156811429Y-108476191D01*
X156811429Y-108323810D01*
X156773333Y-108247620D01*
X156735238Y-108209525D01*
X156659048Y-108171429D01*
X156430476Y-108171429D01*
X156354286Y-108209525D01*
X156316190Y-108247620D01*
X156278095Y-108323810D01*
X156278095Y-108476191D01*
X156316190Y-108552382D01*
X156278095Y-107714286D02*
X156316190Y-107790477D01*
X156392381Y-107828572D01*
X157078095Y-107828572D01*
X156316190Y-107104762D02*
X156278095Y-107180952D01*
X156278095Y-107333333D01*
X156316190Y-107409524D01*
X156392381Y-107447619D01*
X156697143Y-107447619D01*
X156773333Y-107409524D01*
X156811429Y-107333333D01*
X156811429Y-107180952D01*
X156773333Y-107104762D01*
X156697143Y-107066667D01*
X156620952Y-107066667D01*
X156544762Y-107447619D01*
X156278095Y-106304762D02*
X156278095Y-106761905D01*
X156278095Y-106533334D02*
X157078095Y-106533334D01*
X156963810Y-106609524D01*
X156887619Y-106685715D01*
X156849524Y-106761905D01*
X157078095Y-105619048D02*
X157078095Y-105771429D01*
X157040000Y-105847619D01*
X157001905Y-105885714D01*
X156887619Y-105961905D01*
X156735238Y-106000000D01*
X156430476Y-106000000D01*
X156354286Y-105961905D01*
X156316190Y-105923810D01*
X156278095Y-105847619D01*
X156278095Y-105695238D01*
X156316190Y-105619048D01*
X156354286Y-105580952D01*
X156430476Y-105542857D01*
X156620952Y-105542857D01*
X156697143Y-105580952D01*
X156735238Y-105619048D01*
X156773333Y-105695238D01*
X156773333Y-105847619D01*
X156735238Y-105923810D01*
X156697143Y-105961905D01*
X156620952Y-106000000D01*
X156582857Y-105200000D02*
X156582857Y-104590476D01*
X156278095Y-104209524D02*
X157078095Y-104209524D01*
X156773333Y-104209524D02*
X156811429Y-104133333D01*
X156811429Y-103980952D01*
X156773333Y-103904762D01*
X156735238Y-103866667D01*
X156659048Y-103828571D01*
X156430476Y-103828571D01*
X156354286Y-103866667D01*
X156316190Y-103904762D01*
X156278095Y-103980952D01*
X156278095Y-104133333D01*
X156316190Y-104209524D01*
X156316190Y-103180952D02*
X156278095Y-103257142D01*
X156278095Y-103409523D01*
X156316190Y-103485714D01*
X156392381Y-103523809D01*
X156697143Y-103523809D01*
X156773333Y-103485714D01*
X156811429Y-103409523D01*
X156811429Y-103257142D01*
X156773333Y-103180952D01*
X156697143Y-103142857D01*
X156620952Y-103142857D01*
X156544762Y-103523809D01*
X156278095Y-102457143D02*
X156697143Y-102457143D01*
X156773333Y-102495238D01*
X156811429Y-102571428D01*
X156811429Y-102723809D01*
X156773333Y-102800000D01*
X156316190Y-102457143D02*
X156278095Y-102533333D01*
X156278095Y-102723809D01*
X156316190Y-102800000D01*
X156392381Y-102838095D01*
X156468571Y-102838095D01*
X156544762Y-102800000D01*
X156582857Y-102723809D01*
X156582857Y-102533333D01*
X156620952Y-102457143D01*
X156316190Y-101733333D02*
X156278095Y-101809523D01*
X156278095Y-101961904D01*
X156316190Y-102038095D01*
X156354286Y-102076190D01*
X156430476Y-102114285D01*
X156659048Y-102114285D01*
X156735238Y-102076190D01*
X156773333Y-102038095D01*
X156811429Y-101961904D01*
X156811429Y-101809523D01*
X156773333Y-101733333D01*
X156278095Y-101276190D02*
X156316190Y-101352381D01*
X156354286Y-101390476D01*
X156430476Y-101428571D01*
X156659048Y-101428571D01*
X156735238Y-101390476D01*
X156773333Y-101352381D01*
X156811429Y-101276190D01*
X156811429Y-101161904D01*
X156773333Y-101085714D01*
X156735238Y-101047619D01*
X156659048Y-101009523D01*
X156430476Y-101009523D01*
X156354286Y-101047619D01*
X156316190Y-101085714D01*
X156278095Y-101161904D01*
X156278095Y-101276190D01*
X156811429Y-100666666D02*
X156278095Y-100666666D01*
X156735238Y-100666666D02*
X156773333Y-100628571D01*
X156811429Y-100552380D01*
X156811429Y-100438094D01*
X156773333Y-100361904D01*
X156697143Y-100323809D01*
X156278095Y-100323809D01*
X156354286Y-99942856D02*
X156316190Y-99904761D01*
X156278095Y-99942856D01*
X156316190Y-99980951D01*
X156354286Y-99942856D01*
X156278095Y-99942856D01*
X156811429Y-99219047D02*
X156163810Y-99219047D01*
X156087619Y-99257142D01*
X156049524Y-99295237D01*
X156011429Y-99371428D01*
X156011429Y-99485713D01*
X156049524Y-99561904D01*
X156316190Y-99219047D02*
X156278095Y-99295237D01*
X156278095Y-99447618D01*
X156316190Y-99523809D01*
X156354286Y-99561904D01*
X156430476Y-99599999D01*
X156659048Y-99599999D01*
X156735238Y-99561904D01*
X156773333Y-99523809D01*
X156811429Y-99447618D01*
X156811429Y-99295237D01*
X156773333Y-99219047D01*
X156278095Y-98838094D02*
X156811429Y-98838094D01*
X157078095Y-98838094D02*
X157040000Y-98876189D01*
X157001905Y-98838094D01*
X157040000Y-98799999D01*
X157078095Y-98838094D01*
X157001905Y-98838094D01*
X156811429Y-98571428D02*
X156811429Y-98266666D01*
X157078095Y-98457142D02*
X156392381Y-98457142D01*
X156316190Y-98419047D01*
X156278095Y-98342856D01*
X156278095Y-98266666D01*
D11*
X155173571Y-111457143D02*
X155773571Y-111457143D01*
X155230714Y-110828572D02*
X155202143Y-110857143D01*
X155173571Y-110942857D01*
X155173571Y-111000000D01*
X155202143Y-111085715D01*
X155259286Y-111142857D01*
X155316429Y-111171429D01*
X155430714Y-111200000D01*
X155516429Y-111200000D01*
X155630714Y-111171429D01*
X155687857Y-111142857D01*
X155745000Y-111085715D01*
X155773571Y-111000000D01*
X155773571Y-110942857D01*
X155745000Y-110857143D01*
X155716429Y-110828572D01*
X155716429Y-110600000D02*
X155745000Y-110571429D01*
X155773571Y-110514286D01*
X155773571Y-110371429D01*
X155745000Y-110314286D01*
X155716429Y-110285715D01*
X155659286Y-110257143D01*
X155602143Y-110257143D01*
X155516429Y-110285715D01*
X155173571Y-110628572D01*
X155173571Y-110257143D01*
X155230714Y-110000000D02*
X155202143Y-109971428D01*
X155173571Y-110000000D01*
X155202143Y-110028571D01*
X155230714Y-110000000D01*
X155173571Y-110000000D01*
X155545000Y-110000000D02*
X155516429Y-109971428D01*
X155487857Y-110000000D01*
X155516429Y-110028571D01*
X155545000Y-110000000D01*
X155487857Y-110000000D01*
X155345000Y-109285714D02*
X155345000Y-109000000D01*
X155173571Y-109342857D02*
X155773571Y-109142857D01*
X155173571Y-108942857D01*
X155773571Y-108828571D02*
X155773571Y-108485714D01*
X155173571Y-108657143D02*
X155773571Y-108657143D01*
X155773571Y-108371428D02*
X155773571Y-108028571D01*
X155173571Y-108200000D02*
X155773571Y-108200000D01*
X155173571Y-107828571D02*
X155773571Y-107828571D01*
X155173571Y-107542857D02*
X155773571Y-107542857D01*
X155173571Y-107200000D01*
X155773571Y-107200000D01*
X155459286Y-106800000D02*
X155173571Y-106800000D01*
X155773571Y-107000000D02*
X155459286Y-106800000D01*
X155773571Y-106600000D01*
X155173571Y-106085714D02*
X155173571Y-106428571D01*
X155173571Y-106257143D02*
X155773571Y-106257143D01*
X155687857Y-106314286D01*
X155630714Y-106371428D01*
X155602143Y-106428571D01*
X155773571Y-105714285D02*
X155773571Y-105657142D01*
X155745000Y-105599999D01*
X155716429Y-105571428D01*
X155659286Y-105542857D01*
X155545000Y-105514285D01*
X155402143Y-105514285D01*
X155287857Y-105542857D01*
X155230714Y-105571428D01*
X155202143Y-105599999D01*
X155173571Y-105657142D01*
X155173571Y-105714285D01*
X155202143Y-105771428D01*
X155230714Y-105799999D01*
X155287857Y-105828571D01*
X155402143Y-105857142D01*
X155545000Y-105857142D01*
X155659286Y-105828571D01*
X155716429Y-105799999D01*
X155745000Y-105771428D01*
X155773571Y-105714285D01*
X155402143Y-105257142D02*
X155402143Y-104799999D01*
X155773571Y-104599999D02*
X155773571Y-104257142D01*
X155173571Y-104428571D02*
X155773571Y-104428571D01*
X155202143Y-104085713D02*
X155173571Y-103999999D01*
X155173571Y-103857142D01*
X155202143Y-103799999D01*
X155230714Y-103771428D01*
X155287857Y-103742856D01*
X155345000Y-103742856D01*
X155402143Y-103771428D01*
X155430714Y-103799999D01*
X155459286Y-103857142D01*
X155487857Y-103971428D01*
X155516429Y-104028570D01*
X155545000Y-104057142D01*
X155602143Y-104085713D01*
X155659286Y-104085713D01*
X155716429Y-104057142D01*
X155745000Y-104028570D01*
X155773571Y-103971428D01*
X155773571Y-103828570D01*
X155745000Y-103742856D01*
X155173571Y-103485713D02*
X155773571Y-103485713D01*
X155487857Y-103485713D02*
X155487857Y-103142856D01*
X155173571Y-103142856D02*
X155773571Y-103142856D01*
X155173571Y-102514285D02*
X155459286Y-102714285D01*
X155173571Y-102857142D02*
X155773571Y-102857142D01*
X155773571Y-102628570D01*
X155745000Y-102571428D01*
X155716429Y-102542856D01*
X155659286Y-102514285D01*
X155573571Y-102514285D01*
X155516429Y-102542856D01*
X155487857Y-102571428D01*
X155459286Y-102628570D01*
X155459286Y-102857142D01*
X154183571Y-111114286D02*
X154469286Y-111314286D01*
X154183571Y-111457143D02*
X154783571Y-111457143D01*
X154783571Y-111228571D01*
X154755000Y-111171429D01*
X154726429Y-111142857D01*
X154669286Y-111114286D01*
X154583571Y-111114286D01*
X154526429Y-111142857D01*
X154497857Y-111171429D01*
X154469286Y-111228571D01*
X154469286Y-111457143D01*
X154183571Y-110542857D02*
X154183571Y-110885714D01*
X154183571Y-110714286D02*
X154783571Y-110714286D01*
X154697857Y-110771429D01*
X154640714Y-110828571D01*
X154612143Y-110885714D01*
X154240714Y-110285714D02*
X154212143Y-110257142D01*
X154183571Y-110285714D01*
X154212143Y-110314285D01*
X154240714Y-110285714D01*
X154183571Y-110285714D01*
X154555000Y-110285714D02*
X154526429Y-110257142D01*
X154497857Y-110285714D01*
X154526429Y-110314285D01*
X154555000Y-110285714D01*
X154497857Y-110285714D01*
X154583571Y-109285714D02*
X154183571Y-109285714D01*
X154812143Y-109428571D02*
X154383571Y-109571428D01*
X154383571Y-109200000D01*
X154183571Y-108971428D02*
X154783571Y-108971428D01*
X154183571Y-108628571D02*
X154526429Y-108885714D01*
X154783571Y-108628571D02*
X154440714Y-108971428D01*
X153955000Y-108199999D02*
X153983571Y-108228571D01*
X154069286Y-108285714D01*
X154126429Y-108314285D01*
X154212143Y-108342856D01*
X154355000Y-108371428D01*
X154469286Y-108371428D01*
X154612143Y-108342856D01*
X154697857Y-108314285D01*
X154755000Y-108285714D01*
X154840714Y-108228571D01*
X154869286Y-108199999D01*
X154783571Y-107857142D02*
X154783571Y-107799999D01*
X154755000Y-107742856D01*
X154726429Y-107714285D01*
X154669286Y-107685714D01*
X154555000Y-107657142D01*
X154412143Y-107657142D01*
X154297857Y-107685714D01*
X154240714Y-107714285D01*
X154212143Y-107742856D01*
X154183571Y-107799999D01*
X154183571Y-107857142D01*
X154212143Y-107914285D01*
X154240714Y-107942856D01*
X154297857Y-107971428D01*
X154412143Y-107999999D01*
X154555000Y-107999999D01*
X154669286Y-107971428D01*
X154726429Y-107942856D01*
X154755000Y-107914285D01*
X154783571Y-107857142D01*
X154783571Y-107142856D02*
X154783571Y-107257142D01*
X154755000Y-107314285D01*
X154726429Y-107342856D01*
X154640714Y-107399999D01*
X154526429Y-107428570D01*
X154297857Y-107428570D01*
X154240714Y-107399999D01*
X154212143Y-107371427D01*
X154183571Y-107314285D01*
X154183571Y-107199999D01*
X154212143Y-107142856D01*
X154240714Y-107114285D01*
X154297857Y-107085713D01*
X154440714Y-107085713D01*
X154497857Y-107114285D01*
X154526429Y-107142856D01*
X154555000Y-107199999D01*
X154555000Y-107314285D01*
X154526429Y-107371427D01*
X154497857Y-107399999D01*
X154440714Y-107428570D01*
X154783571Y-106714284D02*
X154783571Y-106657141D01*
X154755000Y-106599998D01*
X154726429Y-106571427D01*
X154669286Y-106542856D01*
X154555000Y-106514284D01*
X154412143Y-106514284D01*
X154297857Y-106542856D01*
X154240714Y-106571427D01*
X154212143Y-106599998D01*
X154183571Y-106657141D01*
X154183571Y-106714284D01*
X154212143Y-106771427D01*
X154240714Y-106799998D01*
X154297857Y-106828570D01*
X154412143Y-106857141D01*
X154555000Y-106857141D01*
X154669286Y-106828570D01*
X154726429Y-106799998D01*
X154755000Y-106771427D01*
X154783571Y-106714284D01*
X154783571Y-106314284D02*
X154783571Y-105942855D01*
X154555000Y-106142855D01*
X154555000Y-106057141D01*
X154526429Y-105999998D01*
X154497857Y-105971427D01*
X154440714Y-105942855D01*
X154297857Y-105942855D01*
X154240714Y-105971427D01*
X154212143Y-105999998D01*
X154183571Y-106057141D01*
X154183571Y-106228569D01*
X154212143Y-106285712D01*
X154240714Y-106314284D01*
X153955000Y-105742855D02*
X153983571Y-105714283D01*
X154069286Y-105657140D01*
X154126429Y-105628569D01*
X154212143Y-105599998D01*
X154355000Y-105571426D01*
X154469286Y-105571426D01*
X154612143Y-105599998D01*
X154697857Y-105628569D01*
X154755000Y-105657140D01*
X154840714Y-105714283D01*
X154869286Y-105742855D01*
X154183571Y-104828569D02*
X154783571Y-104828569D01*
X154783571Y-104685712D01*
X154755000Y-104599997D01*
X154697857Y-104542855D01*
X154640714Y-104514283D01*
X154526429Y-104485712D01*
X154440714Y-104485712D01*
X154326429Y-104514283D01*
X154269286Y-104542855D01*
X154212143Y-104599997D01*
X154183571Y-104685712D01*
X154183571Y-104828569D01*
X154183571Y-103914283D02*
X154183571Y-104257140D01*
X154183571Y-104085712D02*
X154783571Y-104085712D01*
X154697857Y-104142855D01*
X154640714Y-104199997D01*
X154612143Y-104257140D01*
X154240714Y-103657140D02*
X154212143Y-103628568D01*
X154183571Y-103657140D01*
X154212143Y-103685711D01*
X154240714Y-103657140D01*
X154183571Y-103657140D01*
X154555000Y-103657140D02*
X154526429Y-103628568D01*
X154497857Y-103657140D01*
X154526429Y-103685711D01*
X154555000Y-103657140D01*
X154497857Y-103657140D01*
X154183571Y-102628569D02*
X154183571Y-102914283D01*
X154783571Y-102914283D01*
X154497857Y-102428569D02*
X154497857Y-102228569D01*
X154183571Y-102142855D02*
X154183571Y-102428569D01*
X154783571Y-102428569D01*
X154783571Y-102142855D01*
X154183571Y-101885712D02*
X154783571Y-101885712D01*
X154783571Y-101742855D01*
X154755000Y-101657140D01*
X154697857Y-101599998D01*
X154640714Y-101571426D01*
X154526429Y-101542855D01*
X154440714Y-101542855D01*
X154326429Y-101571426D01*
X154269286Y-101599998D01*
X154212143Y-101657140D01*
X154183571Y-101742855D01*
X154183571Y-101885712D01*
X153955000Y-101114283D02*
X153983571Y-101142855D01*
X154069286Y-101199998D01*
X154126429Y-101228569D01*
X154212143Y-101257140D01*
X154355000Y-101285712D01*
X154469286Y-101285712D01*
X154612143Y-101257140D01*
X154697857Y-101228569D01*
X154755000Y-101199998D01*
X154840714Y-101142855D01*
X154869286Y-101114283D01*
X154783571Y-100771426D02*
X154783571Y-100714283D01*
X154755000Y-100657140D01*
X154726429Y-100628569D01*
X154669286Y-100599998D01*
X154555000Y-100571426D01*
X154412143Y-100571426D01*
X154297857Y-100599998D01*
X154240714Y-100628569D01*
X154212143Y-100657140D01*
X154183571Y-100714283D01*
X154183571Y-100771426D01*
X154212143Y-100828569D01*
X154240714Y-100857140D01*
X154297857Y-100885712D01*
X154412143Y-100914283D01*
X154555000Y-100914283D01*
X154669286Y-100885712D01*
X154726429Y-100857140D01*
X154755000Y-100828569D01*
X154783571Y-100771426D01*
X154783571Y-100057140D02*
X154783571Y-100171426D01*
X154755000Y-100228569D01*
X154726429Y-100257140D01*
X154640714Y-100314283D01*
X154526429Y-100342854D01*
X154297857Y-100342854D01*
X154240714Y-100314283D01*
X154212143Y-100285711D01*
X154183571Y-100228569D01*
X154183571Y-100114283D01*
X154212143Y-100057140D01*
X154240714Y-100028569D01*
X154297857Y-99999997D01*
X154440714Y-99999997D01*
X154497857Y-100028569D01*
X154526429Y-100057140D01*
X154555000Y-100114283D01*
X154555000Y-100228569D01*
X154526429Y-100285711D01*
X154497857Y-100314283D01*
X154440714Y-100342854D01*
X154783571Y-99628568D02*
X154783571Y-99571425D01*
X154755000Y-99514282D01*
X154726429Y-99485711D01*
X154669286Y-99457140D01*
X154555000Y-99428568D01*
X154412143Y-99428568D01*
X154297857Y-99457140D01*
X154240714Y-99485711D01*
X154212143Y-99514282D01*
X154183571Y-99571425D01*
X154183571Y-99628568D01*
X154212143Y-99685711D01*
X154240714Y-99714282D01*
X154297857Y-99742854D01*
X154412143Y-99771425D01*
X154555000Y-99771425D01*
X154669286Y-99742854D01*
X154726429Y-99714282D01*
X154755000Y-99685711D01*
X154783571Y-99628568D01*
X154783571Y-99228568D02*
X154783571Y-98857139D01*
X154555000Y-99057139D01*
X154555000Y-98971425D01*
X154526429Y-98914282D01*
X154497857Y-98885711D01*
X154440714Y-98857139D01*
X154297857Y-98857139D01*
X154240714Y-98885711D01*
X154212143Y-98914282D01*
X154183571Y-98971425D01*
X154183571Y-99142853D01*
X154212143Y-99199996D01*
X154240714Y-99228568D01*
X153955000Y-98657139D02*
X153983571Y-98628567D01*
X154069286Y-98571424D01*
X154126429Y-98542853D01*
X154212143Y-98514282D01*
X154355000Y-98485710D01*
X154469286Y-98485710D01*
X154612143Y-98514282D01*
X154697857Y-98542853D01*
X154755000Y-98571424D01*
X154840714Y-98628567D01*
X154869286Y-98657139D01*
D13*
X165321429Y-108553571D02*
X166821429Y-108553571D01*
X166821429Y-108196428D01*
X166750000Y-107982143D01*
X166607143Y-107839285D01*
X166464286Y-107767857D01*
X166178571Y-107696428D01*
X165964286Y-107696428D01*
X165678571Y-107767857D01*
X165535714Y-107839285D01*
X165392857Y-107982143D01*
X165321429Y-108196428D01*
X165321429Y-108553571D01*
X165392857Y-106482143D02*
X165321429Y-106625000D01*
X165321429Y-106910714D01*
X165392857Y-107053571D01*
X165535714Y-107125000D01*
X166107143Y-107125000D01*
X166250000Y-107053571D01*
X166321429Y-106910714D01*
X166321429Y-106625000D01*
X166250000Y-106482143D01*
X166107143Y-106410714D01*
X165964286Y-106410714D01*
X165821429Y-107125000D01*
X166321429Y-105767857D02*
X164821429Y-105767857D01*
X166250000Y-105767857D02*
X166321429Y-105625000D01*
X166321429Y-105339286D01*
X166250000Y-105196429D01*
X166178571Y-105125000D01*
X166035714Y-105053571D01*
X165607143Y-105053571D01*
X165464286Y-105125000D01*
X165392857Y-105196429D01*
X165321429Y-105339286D01*
X165321429Y-105625000D01*
X165392857Y-105767857D01*
X165321429Y-104196428D02*
X165392857Y-104339286D01*
X165535714Y-104410714D01*
X166821429Y-104410714D01*
X165321429Y-103410714D02*
X165392857Y-103553572D01*
X165464286Y-103625000D01*
X165607143Y-103696429D01*
X166035714Y-103696429D01*
X166178571Y-103625000D01*
X166250000Y-103553572D01*
X166321429Y-103410714D01*
X166321429Y-103196429D01*
X166250000Y-103053572D01*
X166178571Y-102982143D01*
X166035714Y-102910714D01*
X165607143Y-102910714D01*
X165464286Y-102982143D01*
X165392857Y-103053572D01*
X165321429Y-103196429D01*
X165321429Y-103410714D01*
X166321429Y-102410714D02*
X165321429Y-102053571D01*
X166321429Y-101696429D02*
X165321429Y-102053571D01*
X164964286Y-102196429D01*
X164892857Y-102267857D01*
X164821429Y-102410714D01*
X163707143Y-116732142D02*
X163635714Y-116517856D01*
X163564286Y-116446428D01*
X163421429Y-116374999D01*
X163207143Y-116374999D01*
X163064286Y-116446428D01*
X162992857Y-116517856D01*
X162921429Y-116660714D01*
X162921429Y-117232142D01*
X164421429Y-117232142D01*
X164421429Y-116732142D01*
X164350000Y-116589285D01*
X164278571Y-116517856D01*
X164135714Y-116446428D01*
X163992857Y-116446428D01*
X163850000Y-116517856D01*
X163778571Y-116589285D01*
X163707143Y-116732142D01*
X163707143Y-117232142D01*
X163921429Y-115089285D02*
X162921429Y-115089285D01*
X163921429Y-115732142D02*
X163135714Y-115732142D01*
X162992857Y-115660714D01*
X162921429Y-115517856D01*
X162921429Y-115303571D01*
X162992857Y-115160714D01*
X163064286Y-115089285D01*
X163921429Y-114589285D02*
X163921429Y-114017856D01*
X164421429Y-114374999D02*
X163135714Y-114374999D01*
X162992857Y-114303571D01*
X162921429Y-114160713D01*
X162921429Y-114017856D01*
X163921429Y-113732142D02*
X163921429Y-113160713D01*
X164421429Y-113517856D02*
X163135714Y-113517856D01*
X162992857Y-113446428D01*
X162921429Y-113303570D01*
X162921429Y-113160713D01*
X162921429Y-112446427D02*
X162992857Y-112589285D01*
X163064286Y-112660713D01*
X163207143Y-112732142D01*
X163635714Y-112732142D01*
X163778571Y-112660713D01*
X163850000Y-112589285D01*
X163921429Y-112446427D01*
X163921429Y-112232142D01*
X163850000Y-112089285D01*
X163778571Y-112017856D01*
X163635714Y-111946427D01*
X163207143Y-111946427D01*
X163064286Y-112017856D01*
X162992857Y-112089285D01*
X162921429Y-112232142D01*
X162921429Y-112446427D01*
X163921429Y-111303570D02*
X162921429Y-111303570D01*
X163778571Y-111303570D02*
X163850000Y-111232142D01*
X163921429Y-111089284D01*
X163921429Y-110874999D01*
X163850000Y-110732142D01*
X163707143Y-110660713D01*
X162921429Y-110660713D01*
X163707143Y-108303570D02*
X163635714Y-108089284D01*
X163564286Y-108017856D01*
X163421429Y-107946427D01*
X163207143Y-107946427D01*
X163064286Y-108017856D01*
X162992857Y-108089284D01*
X162921429Y-108232142D01*
X162921429Y-108803570D01*
X164421429Y-108803570D01*
X164421429Y-108303570D01*
X164350000Y-108160713D01*
X164278571Y-108089284D01*
X164135714Y-108017856D01*
X163992857Y-108017856D01*
X163850000Y-108089284D01*
X163778571Y-108160713D01*
X163707143Y-108303570D01*
X163707143Y-108803570D01*
X162921429Y-106660713D02*
X163707143Y-106660713D01*
X163850000Y-106732142D01*
X163921429Y-106874999D01*
X163921429Y-107160713D01*
X163850000Y-107303570D01*
X162992857Y-106660713D02*
X162921429Y-106803570D01*
X162921429Y-107160713D01*
X162992857Y-107303570D01*
X163135714Y-107374999D01*
X163278571Y-107374999D01*
X163421429Y-107303570D01*
X163492857Y-107160713D01*
X163492857Y-106803570D01*
X163564286Y-106660713D01*
X163921429Y-106160713D02*
X163921429Y-105589284D01*
X164421429Y-105946427D02*
X163135714Y-105946427D01*
X162992857Y-105874999D01*
X162921429Y-105732141D01*
X162921429Y-105589284D01*
X163921429Y-105303570D02*
X163921429Y-104732141D01*
X164421429Y-105089284D02*
X163135714Y-105089284D01*
X162992857Y-105017856D01*
X162921429Y-104874998D01*
X162921429Y-104732141D01*
X162992857Y-103660713D02*
X162921429Y-103803570D01*
X162921429Y-104089284D01*
X162992857Y-104232141D01*
X163135714Y-104303570D01*
X163707143Y-104303570D01*
X163850000Y-104232141D01*
X163921429Y-104089284D01*
X163921429Y-103803570D01*
X163850000Y-103660713D01*
X163707143Y-103589284D01*
X163564286Y-103589284D01*
X163421429Y-104303570D01*
X162921429Y-102946427D02*
X163921429Y-102946427D01*
X163635714Y-102946427D02*
X163778571Y-102874999D01*
X163850000Y-102803570D01*
X163921429Y-102660713D01*
X163921429Y-102517856D01*
X163921429Y-102160713D02*
X162921429Y-101803570D01*
X163921429Y-101446428D02*
X162921429Y-101803570D01*
X162564286Y-101946428D01*
X162492857Y-102017856D01*
X162421429Y-102160713D01*
X162921429Y-99732142D02*
X164421429Y-99732142D01*
X163707143Y-99732142D02*
X163707143Y-98874999D01*
X162921429Y-98874999D02*
X164421429Y-98874999D01*
X162921429Y-97946427D02*
X162992857Y-98089285D01*
X163064286Y-98160713D01*
X163207143Y-98232142D01*
X163635714Y-98232142D01*
X163778571Y-98160713D01*
X163850000Y-98089285D01*
X163921429Y-97946427D01*
X163921429Y-97732142D01*
X163850000Y-97589285D01*
X163778571Y-97517856D01*
X163635714Y-97446427D01*
X163207143Y-97446427D01*
X163064286Y-97517856D01*
X162992857Y-97589285D01*
X162921429Y-97732142D01*
X162921429Y-97946427D01*
X162921429Y-96589284D02*
X162992857Y-96732142D01*
X163135714Y-96803570D01*
X164421429Y-96803570D01*
X162921429Y-95374999D02*
X164421429Y-95374999D01*
X162992857Y-95374999D02*
X162921429Y-95517856D01*
X162921429Y-95803570D01*
X162992857Y-95946428D01*
X163064286Y-96017856D01*
X163207143Y-96089285D01*
X163635714Y-96089285D01*
X163778571Y-96017856D01*
X163850000Y-95946428D01*
X163921429Y-95803570D01*
X163921429Y-95517856D01*
X163850000Y-95374999D01*
X162992857Y-94089285D02*
X162921429Y-94232142D01*
X162921429Y-94517856D01*
X162992857Y-94660713D01*
X163135714Y-94732142D01*
X163707143Y-94732142D01*
X163850000Y-94660713D01*
X163921429Y-94517856D01*
X163921429Y-94232142D01*
X163850000Y-94089285D01*
X163707143Y-94017856D01*
X163564286Y-94017856D01*
X163421429Y-94732142D01*
X162921429Y-93374999D02*
X163921429Y-93374999D01*
X163635714Y-93374999D02*
X163778571Y-93303571D01*
X163850000Y-93232142D01*
X163921429Y-93089285D01*
X163921429Y-92946428D01*
X160521429Y-110910714D02*
X160592857Y-111053572D01*
X160664286Y-111125000D01*
X160807143Y-111196429D01*
X161235714Y-111196429D01*
X161378571Y-111125000D01*
X161450000Y-111053572D01*
X161521429Y-110910714D01*
X161521429Y-110696429D01*
X161450000Y-110553572D01*
X161378571Y-110482143D01*
X161235714Y-110410714D01*
X160807143Y-110410714D01*
X160664286Y-110482143D01*
X160592857Y-110553572D01*
X160521429Y-110696429D01*
X160521429Y-110910714D01*
X161521429Y-109767857D02*
X160521429Y-109767857D01*
X161378571Y-109767857D02*
X161450000Y-109696429D01*
X161521429Y-109553571D01*
X161521429Y-109339286D01*
X161450000Y-109196429D01*
X161307143Y-109125000D01*
X160521429Y-109125000D01*
X161521429Y-107482143D02*
X161521429Y-106910714D01*
X162021429Y-107267857D02*
X160735714Y-107267857D01*
X160592857Y-107196429D01*
X160521429Y-107053571D01*
X160521429Y-106910714D01*
X160521429Y-106410714D02*
X162021429Y-106410714D01*
X160521429Y-105767857D02*
X161307143Y-105767857D01*
X161450000Y-105839286D01*
X161521429Y-105982143D01*
X161521429Y-106196428D01*
X161450000Y-106339286D01*
X161378571Y-106410714D01*
X160521429Y-105053571D02*
X161521429Y-105053571D01*
X162021429Y-105053571D02*
X161950000Y-105125000D01*
X161878571Y-105053571D01*
X161950000Y-104982143D01*
X162021429Y-105053571D01*
X161878571Y-105053571D01*
X160592857Y-104410714D02*
X160521429Y-104267857D01*
X160521429Y-103982142D01*
X160592857Y-103839285D01*
X160735714Y-103767857D01*
X160807143Y-103767857D01*
X160950000Y-103839285D01*
X161021429Y-103982142D01*
X161021429Y-104196428D01*
X161092857Y-104339285D01*
X161235714Y-104410714D01*
X161307143Y-104410714D01*
X161450000Y-104339285D01*
X161521429Y-104196428D01*
X161521429Y-103982142D01*
X161450000Y-103839285D01*
X160592857Y-102053571D02*
X160521429Y-101910714D01*
X160521429Y-101624999D01*
X160592857Y-101482142D01*
X160735714Y-101410714D01*
X160807143Y-101410714D01*
X160950000Y-101482142D01*
X161021429Y-101624999D01*
X161021429Y-101839285D01*
X161092857Y-101982142D01*
X161235714Y-102053571D01*
X161307143Y-102053571D01*
X161450000Y-101982142D01*
X161521429Y-101839285D01*
X161521429Y-101624999D01*
X161450000Y-101482142D01*
X160521429Y-100767856D02*
X161521429Y-100767856D01*
X162021429Y-100767856D02*
X161950000Y-100839285D01*
X161878571Y-100767856D01*
X161950000Y-100696428D01*
X162021429Y-100767856D01*
X161878571Y-100767856D01*
X160521429Y-99410713D02*
X162021429Y-99410713D01*
X160592857Y-99410713D02*
X160521429Y-99553570D01*
X160521429Y-99839284D01*
X160592857Y-99982142D01*
X160664286Y-100053570D01*
X160807143Y-100124999D01*
X161235714Y-100124999D01*
X161378571Y-100053570D01*
X161450000Y-99982142D01*
X161521429Y-99839284D01*
X161521429Y-99553570D01*
X161450000Y-99410713D01*
X160592857Y-98124999D02*
X160521429Y-98267856D01*
X160521429Y-98553570D01*
X160592857Y-98696427D01*
X160735714Y-98767856D01*
X161307143Y-98767856D01*
X161450000Y-98696427D01*
X161521429Y-98553570D01*
X161521429Y-98267856D01*
X161450000Y-98124999D01*
X161307143Y-98053570D01*
X161164286Y-98053570D01*
X161021429Y-98767856D01*
D14*
X147051000Y-103204000D02*
X147051000Y-102004000D01*
X176537170Y-105076313D02*
G75*
G03X151351000Y-101504000I-12836170J72313D01*
G01*
X151352754Y-101477616D02*
G75*
G02X150601000Y-102004000I-751754J273616D01*
G01*
X176537170Y-104931687D02*
G75*
G02X151351000Y-108504000I-12836170J-72313D01*
G01*
X151352754Y-108530384D02*
G75*
G03X150601000Y-108004000I-751754J-273616D01*
G01*
X147051000Y-108004000D02*
X150651000Y-108004000D01*
X147051000Y-106804000D02*
X147051000Y-108004000D01*
X147051000Y-102004000D02*
X150651000Y-102004000D01*
D11*
X151822428Y-105111143D02*
X150679571Y-105111143D01*
X151251000Y-105682571D02*
X151251000Y-104539714D01*
M02*
