G04 #@! TF.FileFunction,Other,Fab,Top*
%FSLAX46Y46*%
G04 Gerber Fmt 4.6, Leading zero omitted, Abs format (unit mm)*
G04 Created by KiCad (PCBNEW 4.0.1-stable) date 2019/04/09 1:16:35*
%MOMM*%
G01*
G04 APERTURE LIST*
%ADD10C,0.100000*%
%ADD11C,0.150000*%
%ADD12C,0.075000*%
G04 APERTURE END LIST*
D10*
X114300000Y-94450000D02*
X114300000Y-94850000D01*
X114350000Y-94650000D02*
X114650000Y-94450000D01*
X114650000Y-94850000D02*
X114350000Y-94650000D01*
X114650000Y-94450000D02*
X114650000Y-94850000D01*
X115300000Y-95050000D02*
X113700000Y-95050000D01*
X115300000Y-94250000D02*
X115300000Y-95050000D01*
X113700000Y-94250000D02*
X115300000Y-94250000D01*
X113700000Y-94250000D02*
X113700000Y-95050000D01*
X120150000Y-95050000D02*
X120150000Y-94250000D01*
X121750000Y-95050000D02*
X120150000Y-95050000D01*
X121750000Y-94250000D02*
X121750000Y-95050000D01*
X120150000Y-94250000D02*
X121750000Y-94250000D01*
D11*
X111466667Y-84728572D02*
X111466667Y-84252381D01*
X111752381Y-84823810D02*
X110752381Y-84490477D01*
X111752381Y-84157143D01*
X111228571Y-83823810D02*
X111228571Y-83490476D01*
X111752381Y-83347619D02*
X111752381Y-83823810D01*
X110752381Y-83823810D01*
X110752381Y-83347619D01*
X111371429Y-82919048D02*
X111371429Y-82157143D01*
X110752381Y-81823810D02*
X110752381Y-81252381D01*
X111752381Y-81538096D02*
X110752381Y-81538096D01*
X111276190Y-80728572D02*
X111752381Y-80728572D01*
X110752381Y-81061905D02*
X111276190Y-80728572D01*
X110752381Y-80395238D01*
X111228571Y-79728571D02*
X111276190Y-79585714D01*
X111323810Y-79538095D01*
X111419048Y-79490476D01*
X111561905Y-79490476D01*
X111657143Y-79538095D01*
X111704762Y-79585714D01*
X111752381Y-79680952D01*
X111752381Y-80061905D01*
X110752381Y-80061905D01*
X110752381Y-79728571D01*
X110800000Y-79633333D01*
X110847619Y-79585714D01*
X110942857Y-79538095D01*
X111038095Y-79538095D01*
X111133333Y-79585714D01*
X111180952Y-79633333D01*
X111228571Y-79728571D01*
X111228571Y-80061905D01*
X111752381Y-78585714D02*
X111752381Y-79061905D01*
X110752381Y-79061905D01*
X111228571Y-78252381D02*
X111228571Y-77919047D01*
X111752381Y-77776190D02*
X111752381Y-78252381D01*
X110752381Y-78252381D01*
X110752381Y-77776190D01*
X111752381Y-76823809D02*
X111752381Y-77395238D01*
X111752381Y-77109524D02*
X110752381Y-77109524D01*
X110895238Y-77204762D01*
X110990476Y-77300000D01*
X111038095Y-77395238D01*
X110752381Y-75966666D02*
X110752381Y-76157143D01*
X110800000Y-76252381D01*
X110847619Y-76300000D01*
X110990476Y-76395238D01*
X111180952Y-76442857D01*
X111561905Y-76442857D01*
X111657143Y-76395238D01*
X111704762Y-76347619D01*
X111752381Y-76252381D01*
X111752381Y-76061904D01*
X111704762Y-75966666D01*
X111657143Y-75919047D01*
X111561905Y-75871428D01*
X111323810Y-75871428D01*
X111228571Y-75919047D01*
X111180952Y-75966666D01*
X111133333Y-76061904D01*
X111133333Y-76252381D01*
X111180952Y-76347619D01*
X111228571Y-76395238D01*
X111323810Y-76442857D01*
X113857143Y-96652381D02*
X113380952Y-96652381D01*
X113380952Y-95652381D01*
X114190476Y-96128571D02*
X114523810Y-96128571D01*
X114666667Y-96652381D02*
X114190476Y-96652381D01*
X114190476Y-95652381D01*
X114666667Y-95652381D01*
X115095238Y-96652381D02*
X115095238Y-95652381D01*
X115333333Y-95652381D01*
X115476191Y-95700000D01*
X115571429Y-95795238D01*
X115619048Y-95890476D01*
X115666667Y-96080952D01*
X115666667Y-96223810D01*
X115619048Y-96414286D01*
X115571429Y-96509524D01*
X115476191Y-96604762D01*
X115333333Y-96652381D01*
X115095238Y-96652381D01*
X121259524Y-96652381D02*
X120926190Y-96176190D01*
X120688095Y-96652381D02*
X120688095Y-95652381D01*
X121069048Y-95652381D01*
X121164286Y-95700000D01*
X121211905Y-95747619D01*
X121259524Y-95842857D01*
X121259524Y-95985714D01*
X121211905Y-96080952D01*
X121164286Y-96128571D01*
X121069048Y-96176190D01*
X120688095Y-96176190D01*
D12*
X120883334Y-94830952D02*
X120750000Y-94640476D01*
X120654762Y-94830952D02*
X120654762Y-94430952D01*
X120807143Y-94430952D01*
X120845238Y-94450000D01*
X120864286Y-94469048D01*
X120883334Y-94507143D01*
X120883334Y-94564286D01*
X120864286Y-94602381D01*
X120845238Y-94621429D01*
X120807143Y-94640476D01*
X120654762Y-94640476D01*
X121264286Y-94830952D02*
X121035714Y-94830952D01*
X121150000Y-94830952D02*
X121150000Y-94430952D01*
X121111905Y-94488095D01*
X121073810Y-94526190D01*
X121035714Y-94545238D01*
M02*
