G04 #@! TF.FileFunction,Copper,L1,Top,Signal*
%FSLAX46Y46*%
G04 Gerber Fmt 4.6, Leading zero omitted, Abs format (unit mm)*
G04 Created by KiCad (PCBNEW 4.0.1-stable) date 2019/03/03 15:39:44*
%MOMM*%
G01*
G04 APERTURE LIST*
%ADD10C,0.100000*%
%ADD11R,1.700000X1.700000*%
%ADD12O,1.700000X1.700000*%
%ADD13R,3.000000X1.500000*%
%ADD14C,3.000000*%
%ADD15R,3.000000X3.000000*%
%ADD16R,1.700000X2.000000*%
%ADD17C,0.600000*%
%ADD18C,0.500000*%
%ADD19C,0.254000*%
G04 APERTURE END LIST*
D10*
D11*
X169000000Y-111025000D03*
D12*
X169000000Y-108485000D03*
D11*
X169000000Y-101415000D03*
D12*
X168975000Y-98875000D03*
D11*
X152300000Y-108525000D03*
D12*
X152300000Y-105985000D03*
D13*
X155750000Y-105980000D03*
X155750000Y-95820000D03*
X155750000Y-98360000D03*
X155750000Y-100900000D03*
X155750000Y-103440000D03*
X155750000Y-108520000D03*
X155750000Y-111060000D03*
X155750000Y-113600000D03*
X165250000Y-113600000D03*
X165250000Y-111060000D03*
X165250000Y-108520000D03*
X165250000Y-103440000D03*
X165250000Y-100900000D03*
X165250000Y-98360000D03*
X165250000Y-95820000D03*
X165250000Y-105980000D03*
D14*
X168991000Y-105004000D03*
D15*
X148501000Y-105004000D03*
D16*
X172925000Y-110300000D03*
X172925000Y-106300000D03*
X172925000Y-103425000D03*
X172925000Y-99425000D03*
D17*
X149050000Y-109425000D03*
X153350000Y-114650000D03*
X167725000Y-97450000D03*
X160500000Y-100700000D03*
X160500000Y-106050000D03*
X160525000Y-110150000D03*
X159750000Y-115650000D03*
X165850000Y-115750000D03*
X171700000Y-113350000D03*
X175250000Y-107500000D03*
X175175000Y-101275000D03*
X169775000Y-95250000D03*
X159675000Y-94475000D03*
X153375000Y-101225000D03*
D18*
X149050000Y-109425000D02*
X148625736Y-109425000D01*
X153800000Y-115875000D02*
X153800000Y-115100000D01*
X153800000Y-115100000D02*
X153350000Y-114650000D01*
X159750000Y-115650000D02*
X154025000Y-115650000D01*
X154025000Y-115650000D02*
X153800000Y-115875000D01*
X160500000Y-106050000D02*
X160500000Y-100700000D01*
X159750000Y-115650000D02*
X159750000Y-110925000D01*
X159750000Y-110925000D02*
X160525000Y-110150000D01*
X171700000Y-113350000D02*
X169300000Y-115750000D01*
X169300000Y-115750000D02*
X165850000Y-115750000D01*
X175175000Y-101275000D02*
X175175000Y-107425000D01*
X175175000Y-107425000D02*
X175250000Y-107500000D01*
X167700000Y-93525000D02*
X169425000Y-95250000D01*
X169425000Y-95250000D02*
X169775000Y-95250000D01*
X159675000Y-94475000D02*
X160625000Y-93525000D01*
X160625000Y-93525000D02*
X167700000Y-93525000D01*
X152300000Y-102625000D02*
X152300000Y-102300000D01*
X152300000Y-102300000D02*
X153375000Y-101225000D01*
X152300000Y-102625000D02*
X152300000Y-102450000D01*
X152300000Y-105985000D02*
X152300000Y-102625000D01*
X167925000Y-102765000D02*
X169000000Y-102765000D01*
X167250000Y-103440000D02*
X167925000Y-102765000D01*
X165250000Y-103440000D02*
X167250000Y-103440000D01*
X169000000Y-101415000D02*
X169000000Y-102765000D01*
X167615000Y-108520000D02*
X167650000Y-108485000D01*
X165250000Y-108520000D02*
X167615000Y-108520000D01*
X169000000Y-108485000D02*
X167650000Y-108485000D01*
X167615000Y-111060000D02*
X167650000Y-111025000D01*
X165250000Y-111060000D02*
X167615000Y-111060000D01*
X169000000Y-111025000D02*
X167650000Y-111025000D01*
X167250000Y-100600000D02*
X168975000Y-98875000D01*
X167250000Y-100900000D02*
X167250000Y-100600000D01*
X165250000Y-100900000D02*
X167250000Y-100900000D01*
X158785400Y-98360000D02*
X155750000Y-98360000D01*
X162530600Y-94614800D02*
X158785400Y-98360000D01*
X166933500Y-94614800D02*
X162530600Y-94614800D01*
X171575000Y-99256300D02*
X166933500Y-94614800D01*
X171575000Y-99425000D02*
X171575000Y-99256300D01*
X172925000Y-99425000D02*
X171575000Y-99425000D01*
X163250000Y-95820000D02*
X163250000Y-98360000D01*
X165250000Y-95820000D02*
X163250000Y-95820000D01*
X165250000Y-98360000D02*
X163250000Y-98360000D01*
X153745000Y-108525000D02*
X153750000Y-108520000D01*
X152300000Y-108525000D02*
X153745000Y-108525000D01*
X155750000Y-108520000D02*
X153750000Y-108520000D01*
X148501000Y-105004000D02*
X148501000Y-107004000D01*
X149429000Y-107004000D02*
X150950000Y-108525000D01*
X148501000Y-107004000D02*
X149429000Y-107004000D01*
X152300000Y-108525000D02*
X150950000Y-108525000D01*
X172925000Y-103425000D02*
X172925000Y-106300000D01*
D19*
G36*
X162365000Y-98360000D02*
X162432367Y-98698675D01*
X162624210Y-98985790D01*
X162911325Y-99177633D01*
X163123217Y-99219781D01*
X163146838Y-99345317D01*
X163285910Y-99561441D01*
X163385860Y-99629734D01*
X163298559Y-99685910D01*
X163153569Y-99898110D01*
X163102560Y-100150000D01*
X163102560Y-101650000D01*
X163146838Y-101885317D01*
X163285910Y-102101441D01*
X163385860Y-102169734D01*
X163298559Y-102225910D01*
X163153569Y-102438110D01*
X163102560Y-102690000D01*
X163102560Y-104190000D01*
X163146838Y-104425317D01*
X163285910Y-104641441D01*
X163385860Y-104709734D01*
X163298559Y-104765910D01*
X163153569Y-104978110D01*
X163102560Y-105230000D01*
X163102560Y-106730000D01*
X163146838Y-106965317D01*
X163285910Y-107181441D01*
X163385860Y-107249734D01*
X163298559Y-107305910D01*
X163153569Y-107518110D01*
X163102560Y-107770000D01*
X163102560Y-109270000D01*
X163146838Y-109505317D01*
X163285910Y-109721441D01*
X163385860Y-109789734D01*
X163298559Y-109845910D01*
X163153569Y-110058110D01*
X163102560Y-110310000D01*
X163102560Y-111810000D01*
X163146838Y-112045317D01*
X163285910Y-112261441D01*
X163385860Y-112329734D01*
X163298559Y-112385910D01*
X163153569Y-112598110D01*
X163102560Y-112850000D01*
X163102560Y-114350000D01*
X163146838Y-114585317D01*
X163285910Y-114801441D01*
X163498110Y-114946431D01*
X163750000Y-114997440D01*
X166750000Y-114997440D01*
X166985317Y-114953162D01*
X167201441Y-114814090D01*
X167346431Y-114601890D01*
X167397440Y-114350000D01*
X167397440Y-112850000D01*
X167353162Y-112614683D01*
X167214090Y-112398559D01*
X167114140Y-112330266D01*
X167201441Y-112274090D01*
X167346431Y-112061890D01*
X167370102Y-111945000D01*
X167515731Y-111945000D01*
X167546838Y-112110317D01*
X167685910Y-112326441D01*
X167898110Y-112471431D01*
X168150000Y-112522440D01*
X169850000Y-112522440D01*
X170085317Y-112478162D01*
X170301441Y-112339090D01*
X170446431Y-112126890D01*
X170497440Y-111875000D01*
X170497440Y-110585750D01*
X171440000Y-110585750D01*
X171440000Y-111426309D01*
X171536673Y-111659698D01*
X171715301Y-111838327D01*
X171948690Y-111935000D01*
X172639250Y-111935000D01*
X172798000Y-111776250D01*
X172798000Y-110427000D01*
X171598750Y-110427000D01*
X171440000Y-110585750D01*
X170497440Y-110585750D01*
X170497440Y-110175000D01*
X170453162Y-109939683D01*
X170314090Y-109723559D01*
X170101890Y-109578569D01*
X170034459Y-109564914D01*
X170079147Y-109535054D01*
X170320601Y-109173691D01*
X171440000Y-109173691D01*
X171440000Y-110014250D01*
X171598750Y-110173000D01*
X172798000Y-110173000D01*
X172798000Y-108823750D01*
X173052000Y-108823750D01*
X173052000Y-110173000D01*
X174251250Y-110173000D01*
X174410000Y-110014250D01*
X174410000Y-109173691D01*
X174313327Y-108940302D01*
X174134699Y-108761673D01*
X173901310Y-108665000D01*
X173210750Y-108665000D01*
X173052000Y-108823750D01*
X172798000Y-108823750D01*
X172639250Y-108665000D01*
X171948690Y-108665000D01*
X171715301Y-108761673D01*
X171536673Y-108940302D01*
X171440000Y-109173691D01*
X170320601Y-109173691D01*
X170401054Y-109053285D01*
X170514093Y-108485000D01*
X170401054Y-107916715D01*
X170079147Y-107434946D01*
X169597378Y-107113039D01*
X169530602Y-107099756D01*
X170165582Y-106836739D01*
X170325365Y-106517970D01*
X168991000Y-105183605D01*
X167656635Y-106517970D01*
X167816418Y-106836739D01*
X168481324Y-107097384D01*
X168402622Y-107113039D01*
X167920853Y-107434946D01*
X167810568Y-107600000D01*
X167650000Y-107600000D01*
X167474044Y-107635000D01*
X167372038Y-107635000D01*
X167353162Y-107534683D01*
X167214090Y-107318559D01*
X167114140Y-107250266D01*
X167201441Y-107194090D01*
X167346431Y-106981890D01*
X167397440Y-106730000D01*
X167397440Y-106298471D01*
X167477030Y-106338365D01*
X168811395Y-105004000D01*
X169170605Y-105004000D01*
X170504970Y-106338365D01*
X170823739Y-106178582D01*
X171133723Y-105387813D01*
X171117497Y-104538613D01*
X170823739Y-103829418D01*
X170504970Y-103669635D01*
X169170605Y-105004000D01*
X168811395Y-105004000D01*
X168797253Y-104989858D01*
X168976858Y-104810253D01*
X168991000Y-104824395D01*
X170325365Y-103490030D01*
X170165582Y-103171261D01*
X169830330Y-103039841D01*
X169855893Y-102911331D01*
X170085317Y-102868162D01*
X170301441Y-102729090D01*
X170446431Y-102516890D01*
X170465039Y-102425000D01*
X171427560Y-102425000D01*
X171427560Y-104425000D01*
X171471838Y-104660317D01*
X171603613Y-104865102D01*
X171478569Y-105048110D01*
X171427560Y-105300000D01*
X171427560Y-107300000D01*
X171471838Y-107535317D01*
X171610910Y-107751441D01*
X171823110Y-107896431D01*
X172075000Y-107947440D01*
X173775000Y-107947440D01*
X174010317Y-107903162D01*
X174226441Y-107764090D01*
X174371431Y-107551890D01*
X174422440Y-107300000D01*
X174422440Y-105300000D01*
X174378162Y-105064683D01*
X174246387Y-104859898D01*
X174371431Y-104676890D01*
X174422440Y-104425000D01*
X174422440Y-102425000D01*
X174378162Y-102189683D01*
X174239090Y-101973559D01*
X174026890Y-101828569D01*
X173775000Y-101777560D01*
X172075000Y-101777560D01*
X171839683Y-101821838D01*
X171623559Y-101960910D01*
X171478569Y-102173110D01*
X171427560Y-102425000D01*
X170465039Y-102425000D01*
X170497440Y-102265000D01*
X170497440Y-100565000D01*
X170453162Y-100329683D01*
X170314090Y-100113559D01*
X170101890Y-99968569D01*
X170015273Y-99951029D01*
X170054147Y-99925054D01*
X170376054Y-99443285D01*
X170398344Y-99331224D01*
X170739134Y-99672013D01*
X170757367Y-99763675D01*
X170949210Y-100050790D01*
X171236325Y-100242633D01*
X171427560Y-100280672D01*
X171427560Y-100425000D01*
X171471838Y-100660317D01*
X171610910Y-100876441D01*
X171823110Y-101021431D01*
X172075000Y-101072440D01*
X173775000Y-101072440D01*
X174010317Y-101028162D01*
X174226441Y-100889090D01*
X174371431Y-100676890D01*
X174422440Y-100425000D01*
X174422440Y-98988026D01*
X174587205Y-99189038D01*
X175982225Y-103797726D01*
X175507388Y-108589445D01*
X174410000Y-110639562D01*
X174410000Y-110585750D01*
X174251250Y-110427000D01*
X173052000Y-110427000D01*
X173052000Y-111776250D01*
X173210750Y-111935000D01*
X173716577Y-111935000D01*
X173234982Y-112834706D01*
X169510962Y-115887206D01*
X164838918Y-117301403D01*
X164603645Y-117321058D01*
X164598268Y-117320002D01*
X156462594Y-117339845D01*
X152949105Y-116706798D01*
X150010026Y-114818946D01*
X149935032Y-114710988D01*
X150353373Y-114884699D01*
X151043599Y-114885301D01*
X151681515Y-114621719D01*
X152170004Y-114134082D01*
X152434699Y-113496627D01*
X152435301Y-112806401D01*
X152171719Y-112168485D01*
X151684082Y-111679996D01*
X151046627Y-111415301D01*
X150356401Y-111414699D01*
X149718485Y-111678281D01*
X149229996Y-112165918D01*
X148965301Y-112803373D01*
X148964855Y-113314372D01*
X147996457Y-111920316D01*
X147484691Y-110341539D01*
X147475524Y-107151440D01*
X147645328Y-107151440D01*
X147683367Y-107342675D01*
X147875210Y-107629790D01*
X148162325Y-107821633D01*
X148501000Y-107889000D01*
X149062420Y-107889000D01*
X150324208Y-109150787D01*
X150324210Y-109150790D01*
X150611325Y-109342633D01*
X150643872Y-109349107D01*
X150803669Y-109380893D01*
X150846838Y-109610317D01*
X150985910Y-109826441D01*
X151198110Y-109971431D01*
X151450000Y-110022440D01*
X153150000Y-110022440D01*
X153385317Y-109978162D01*
X153601441Y-109839090D01*
X153735429Y-109642992D01*
X153785910Y-109721441D01*
X153885860Y-109789734D01*
X153798559Y-109845910D01*
X153653569Y-110058110D01*
X153602560Y-110310000D01*
X153602560Y-111810000D01*
X153646838Y-112045317D01*
X153785910Y-112261441D01*
X153885860Y-112329734D01*
X153798559Y-112385910D01*
X153653569Y-112598110D01*
X153602560Y-112850000D01*
X153602560Y-114350000D01*
X153646838Y-114585317D01*
X153785910Y-114801441D01*
X153998110Y-114946431D01*
X154250000Y-114997440D01*
X157250000Y-114997440D01*
X157485317Y-114953162D01*
X157701441Y-114814090D01*
X157846431Y-114601890D01*
X157897440Y-114350000D01*
X157897440Y-112850000D01*
X157853162Y-112614683D01*
X157714090Y-112398559D01*
X157614140Y-112330266D01*
X157701441Y-112274090D01*
X157846431Y-112061890D01*
X157897440Y-111810000D01*
X157897440Y-110310000D01*
X157853162Y-110074683D01*
X157714090Y-109858559D01*
X157614140Y-109790266D01*
X157701441Y-109734090D01*
X157846431Y-109521890D01*
X157897440Y-109270000D01*
X157897440Y-107770000D01*
X157853162Y-107534683D01*
X157714090Y-107318559D01*
X157622231Y-107255794D01*
X157788327Y-107089699D01*
X157885000Y-106856310D01*
X157885000Y-106265750D01*
X157726250Y-106107000D01*
X155877000Y-106107000D01*
X155877000Y-106127000D01*
X155623000Y-106127000D01*
X155623000Y-106107000D01*
X153773750Y-106107000D01*
X153671485Y-106209265D01*
X153620155Y-106112000D01*
X152427000Y-106112000D01*
X152427000Y-106132000D01*
X152173000Y-106132000D01*
X152173000Y-106112000D01*
X150979845Y-106112000D01*
X150858524Y-106341890D01*
X151028355Y-106751924D01*
X151304501Y-107054937D01*
X151214683Y-107071838D01*
X150998559Y-107210910D01*
X150953474Y-107276894D01*
X150530470Y-106853890D01*
X150597431Y-106755890D01*
X150648440Y-106504000D01*
X150648440Y-105628110D01*
X150858524Y-105628110D01*
X150979845Y-105858000D01*
X152173000Y-105858000D01*
X152173000Y-104664181D01*
X151943108Y-104543514D01*
X151418642Y-104789817D01*
X151028355Y-105218076D01*
X150858524Y-105628110D01*
X150648440Y-105628110D01*
X150648440Y-103504000D01*
X150604162Y-103268683D01*
X150465090Y-103052559D01*
X150252890Y-102907569D01*
X150001000Y-102856560D01*
X147463183Y-102856560D01*
X147462038Y-102458195D01*
X150691802Y-102449998D01*
X150766100Y-102435023D01*
X150841876Y-102433566D01*
X151040110Y-102390157D01*
X151040112Y-102390156D01*
X151040113Y-102390156D01*
X151159900Y-102337818D01*
X151293965Y-102279242D01*
X151293966Y-102279241D01*
X151293968Y-102279240D01*
X151460500Y-102163273D01*
X151534051Y-102086838D01*
X151652586Y-101963655D01*
X151762062Y-101792789D01*
X151817980Y-101650091D01*
X151863136Y-101534857D01*
X151881755Y-101430838D01*
X153602560Y-98216066D01*
X153602560Y-99110000D01*
X153646838Y-99345317D01*
X153785910Y-99561441D01*
X153885860Y-99629734D01*
X153798559Y-99685910D01*
X153653569Y-99898110D01*
X153602560Y-100150000D01*
X153602560Y-101650000D01*
X153646838Y-101885317D01*
X153785910Y-102101441D01*
X153885860Y-102169734D01*
X153798559Y-102225910D01*
X153653569Y-102438110D01*
X153602560Y-102690000D01*
X153602560Y-104190000D01*
X153646838Y-104425317D01*
X153785910Y-104641441D01*
X153877769Y-104704206D01*
X153711673Y-104870301D01*
X153615000Y-105103690D01*
X153615000Y-105322751D01*
X153571645Y-105218076D01*
X153181358Y-104789817D01*
X152656892Y-104543514D01*
X152427000Y-104664181D01*
X152427000Y-105858000D01*
X153620155Y-105858000D01*
X153674939Y-105754189D01*
X153773750Y-105853000D01*
X155623000Y-105853000D01*
X155623000Y-105833000D01*
X155877000Y-105833000D01*
X155877000Y-105853000D01*
X157726250Y-105853000D01*
X157885000Y-105694250D01*
X157885000Y-105103690D01*
X157788327Y-104870301D01*
X157622751Y-104704726D01*
X157701441Y-104654090D01*
X157846431Y-104441890D01*
X157897440Y-104190000D01*
X157897440Y-102690000D01*
X157853162Y-102454683D01*
X157714090Y-102238559D01*
X157614140Y-102170266D01*
X157701441Y-102114090D01*
X157846431Y-101901890D01*
X157897440Y-101650000D01*
X157897440Y-100150000D01*
X157853162Y-99914683D01*
X157714090Y-99698559D01*
X157614140Y-99630266D01*
X157701441Y-99574090D01*
X157846431Y-99361890D01*
X157870102Y-99245000D01*
X158785395Y-99245000D01*
X158785400Y-99245001D01*
X159067884Y-99188810D01*
X159124075Y-99177633D01*
X159411190Y-98985790D01*
X162365000Y-96031979D01*
X162365000Y-98360000D01*
X162365000Y-98360000D01*
G37*
X162365000Y-98360000D02*
X162432367Y-98698675D01*
X162624210Y-98985790D01*
X162911325Y-99177633D01*
X163123217Y-99219781D01*
X163146838Y-99345317D01*
X163285910Y-99561441D01*
X163385860Y-99629734D01*
X163298559Y-99685910D01*
X163153569Y-99898110D01*
X163102560Y-100150000D01*
X163102560Y-101650000D01*
X163146838Y-101885317D01*
X163285910Y-102101441D01*
X163385860Y-102169734D01*
X163298559Y-102225910D01*
X163153569Y-102438110D01*
X163102560Y-102690000D01*
X163102560Y-104190000D01*
X163146838Y-104425317D01*
X163285910Y-104641441D01*
X163385860Y-104709734D01*
X163298559Y-104765910D01*
X163153569Y-104978110D01*
X163102560Y-105230000D01*
X163102560Y-106730000D01*
X163146838Y-106965317D01*
X163285910Y-107181441D01*
X163385860Y-107249734D01*
X163298559Y-107305910D01*
X163153569Y-107518110D01*
X163102560Y-107770000D01*
X163102560Y-109270000D01*
X163146838Y-109505317D01*
X163285910Y-109721441D01*
X163385860Y-109789734D01*
X163298559Y-109845910D01*
X163153569Y-110058110D01*
X163102560Y-110310000D01*
X163102560Y-111810000D01*
X163146838Y-112045317D01*
X163285910Y-112261441D01*
X163385860Y-112329734D01*
X163298559Y-112385910D01*
X163153569Y-112598110D01*
X163102560Y-112850000D01*
X163102560Y-114350000D01*
X163146838Y-114585317D01*
X163285910Y-114801441D01*
X163498110Y-114946431D01*
X163750000Y-114997440D01*
X166750000Y-114997440D01*
X166985317Y-114953162D01*
X167201441Y-114814090D01*
X167346431Y-114601890D01*
X167397440Y-114350000D01*
X167397440Y-112850000D01*
X167353162Y-112614683D01*
X167214090Y-112398559D01*
X167114140Y-112330266D01*
X167201441Y-112274090D01*
X167346431Y-112061890D01*
X167370102Y-111945000D01*
X167515731Y-111945000D01*
X167546838Y-112110317D01*
X167685910Y-112326441D01*
X167898110Y-112471431D01*
X168150000Y-112522440D01*
X169850000Y-112522440D01*
X170085317Y-112478162D01*
X170301441Y-112339090D01*
X170446431Y-112126890D01*
X170497440Y-111875000D01*
X170497440Y-110585750D01*
X171440000Y-110585750D01*
X171440000Y-111426309D01*
X171536673Y-111659698D01*
X171715301Y-111838327D01*
X171948690Y-111935000D01*
X172639250Y-111935000D01*
X172798000Y-111776250D01*
X172798000Y-110427000D01*
X171598750Y-110427000D01*
X171440000Y-110585750D01*
X170497440Y-110585750D01*
X170497440Y-110175000D01*
X170453162Y-109939683D01*
X170314090Y-109723559D01*
X170101890Y-109578569D01*
X170034459Y-109564914D01*
X170079147Y-109535054D01*
X170320601Y-109173691D01*
X171440000Y-109173691D01*
X171440000Y-110014250D01*
X171598750Y-110173000D01*
X172798000Y-110173000D01*
X172798000Y-108823750D01*
X173052000Y-108823750D01*
X173052000Y-110173000D01*
X174251250Y-110173000D01*
X174410000Y-110014250D01*
X174410000Y-109173691D01*
X174313327Y-108940302D01*
X174134699Y-108761673D01*
X173901310Y-108665000D01*
X173210750Y-108665000D01*
X173052000Y-108823750D01*
X172798000Y-108823750D01*
X172639250Y-108665000D01*
X171948690Y-108665000D01*
X171715301Y-108761673D01*
X171536673Y-108940302D01*
X171440000Y-109173691D01*
X170320601Y-109173691D01*
X170401054Y-109053285D01*
X170514093Y-108485000D01*
X170401054Y-107916715D01*
X170079147Y-107434946D01*
X169597378Y-107113039D01*
X169530602Y-107099756D01*
X170165582Y-106836739D01*
X170325365Y-106517970D01*
X168991000Y-105183605D01*
X167656635Y-106517970D01*
X167816418Y-106836739D01*
X168481324Y-107097384D01*
X168402622Y-107113039D01*
X167920853Y-107434946D01*
X167810568Y-107600000D01*
X167650000Y-107600000D01*
X167474044Y-107635000D01*
X167372038Y-107635000D01*
X167353162Y-107534683D01*
X167214090Y-107318559D01*
X167114140Y-107250266D01*
X167201441Y-107194090D01*
X167346431Y-106981890D01*
X167397440Y-106730000D01*
X167397440Y-106298471D01*
X167477030Y-106338365D01*
X168811395Y-105004000D01*
X169170605Y-105004000D01*
X170504970Y-106338365D01*
X170823739Y-106178582D01*
X171133723Y-105387813D01*
X171117497Y-104538613D01*
X170823739Y-103829418D01*
X170504970Y-103669635D01*
X169170605Y-105004000D01*
X168811395Y-105004000D01*
X168797253Y-104989858D01*
X168976858Y-104810253D01*
X168991000Y-104824395D01*
X170325365Y-103490030D01*
X170165582Y-103171261D01*
X169830330Y-103039841D01*
X169855893Y-102911331D01*
X170085317Y-102868162D01*
X170301441Y-102729090D01*
X170446431Y-102516890D01*
X170465039Y-102425000D01*
X171427560Y-102425000D01*
X171427560Y-104425000D01*
X171471838Y-104660317D01*
X171603613Y-104865102D01*
X171478569Y-105048110D01*
X171427560Y-105300000D01*
X171427560Y-107300000D01*
X171471838Y-107535317D01*
X171610910Y-107751441D01*
X171823110Y-107896431D01*
X172075000Y-107947440D01*
X173775000Y-107947440D01*
X174010317Y-107903162D01*
X174226441Y-107764090D01*
X174371431Y-107551890D01*
X174422440Y-107300000D01*
X174422440Y-105300000D01*
X174378162Y-105064683D01*
X174246387Y-104859898D01*
X174371431Y-104676890D01*
X174422440Y-104425000D01*
X174422440Y-102425000D01*
X174378162Y-102189683D01*
X174239090Y-101973559D01*
X174026890Y-101828569D01*
X173775000Y-101777560D01*
X172075000Y-101777560D01*
X171839683Y-101821838D01*
X171623559Y-101960910D01*
X171478569Y-102173110D01*
X171427560Y-102425000D01*
X170465039Y-102425000D01*
X170497440Y-102265000D01*
X170497440Y-100565000D01*
X170453162Y-100329683D01*
X170314090Y-100113559D01*
X170101890Y-99968569D01*
X170015273Y-99951029D01*
X170054147Y-99925054D01*
X170376054Y-99443285D01*
X170398344Y-99331224D01*
X170739134Y-99672013D01*
X170757367Y-99763675D01*
X170949210Y-100050790D01*
X171236325Y-100242633D01*
X171427560Y-100280672D01*
X171427560Y-100425000D01*
X171471838Y-100660317D01*
X171610910Y-100876441D01*
X171823110Y-101021431D01*
X172075000Y-101072440D01*
X173775000Y-101072440D01*
X174010317Y-101028162D01*
X174226441Y-100889090D01*
X174371431Y-100676890D01*
X174422440Y-100425000D01*
X174422440Y-98988026D01*
X174587205Y-99189038D01*
X175982225Y-103797726D01*
X175507388Y-108589445D01*
X174410000Y-110639562D01*
X174410000Y-110585750D01*
X174251250Y-110427000D01*
X173052000Y-110427000D01*
X173052000Y-111776250D01*
X173210750Y-111935000D01*
X173716577Y-111935000D01*
X173234982Y-112834706D01*
X169510962Y-115887206D01*
X164838918Y-117301403D01*
X164603645Y-117321058D01*
X164598268Y-117320002D01*
X156462594Y-117339845D01*
X152949105Y-116706798D01*
X150010026Y-114818946D01*
X149935032Y-114710988D01*
X150353373Y-114884699D01*
X151043599Y-114885301D01*
X151681515Y-114621719D01*
X152170004Y-114134082D01*
X152434699Y-113496627D01*
X152435301Y-112806401D01*
X152171719Y-112168485D01*
X151684082Y-111679996D01*
X151046627Y-111415301D01*
X150356401Y-111414699D01*
X149718485Y-111678281D01*
X149229996Y-112165918D01*
X148965301Y-112803373D01*
X148964855Y-113314372D01*
X147996457Y-111920316D01*
X147484691Y-110341539D01*
X147475524Y-107151440D01*
X147645328Y-107151440D01*
X147683367Y-107342675D01*
X147875210Y-107629790D01*
X148162325Y-107821633D01*
X148501000Y-107889000D01*
X149062420Y-107889000D01*
X150324208Y-109150787D01*
X150324210Y-109150790D01*
X150611325Y-109342633D01*
X150643872Y-109349107D01*
X150803669Y-109380893D01*
X150846838Y-109610317D01*
X150985910Y-109826441D01*
X151198110Y-109971431D01*
X151450000Y-110022440D01*
X153150000Y-110022440D01*
X153385317Y-109978162D01*
X153601441Y-109839090D01*
X153735429Y-109642992D01*
X153785910Y-109721441D01*
X153885860Y-109789734D01*
X153798559Y-109845910D01*
X153653569Y-110058110D01*
X153602560Y-110310000D01*
X153602560Y-111810000D01*
X153646838Y-112045317D01*
X153785910Y-112261441D01*
X153885860Y-112329734D01*
X153798559Y-112385910D01*
X153653569Y-112598110D01*
X153602560Y-112850000D01*
X153602560Y-114350000D01*
X153646838Y-114585317D01*
X153785910Y-114801441D01*
X153998110Y-114946431D01*
X154250000Y-114997440D01*
X157250000Y-114997440D01*
X157485317Y-114953162D01*
X157701441Y-114814090D01*
X157846431Y-114601890D01*
X157897440Y-114350000D01*
X157897440Y-112850000D01*
X157853162Y-112614683D01*
X157714090Y-112398559D01*
X157614140Y-112330266D01*
X157701441Y-112274090D01*
X157846431Y-112061890D01*
X157897440Y-111810000D01*
X157897440Y-110310000D01*
X157853162Y-110074683D01*
X157714090Y-109858559D01*
X157614140Y-109790266D01*
X157701441Y-109734090D01*
X157846431Y-109521890D01*
X157897440Y-109270000D01*
X157897440Y-107770000D01*
X157853162Y-107534683D01*
X157714090Y-107318559D01*
X157622231Y-107255794D01*
X157788327Y-107089699D01*
X157885000Y-106856310D01*
X157885000Y-106265750D01*
X157726250Y-106107000D01*
X155877000Y-106107000D01*
X155877000Y-106127000D01*
X155623000Y-106127000D01*
X155623000Y-106107000D01*
X153773750Y-106107000D01*
X153671485Y-106209265D01*
X153620155Y-106112000D01*
X152427000Y-106112000D01*
X152427000Y-106132000D01*
X152173000Y-106132000D01*
X152173000Y-106112000D01*
X150979845Y-106112000D01*
X150858524Y-106341890D01*
X151028355Y-106751924D01*
X151304501Y-107054937D01*
X151214683Y-107071838D01*
X150998559Y-107210910D01*
X150953474Y-107276894D01*
X150530470Y-106853890D01*
X150597431Y-106755890D01*
X150648440Y-106504000D01*
X150648440Y-105628110D01*
X150858524Y-105628110D01*
X150979845Y-105858000D01*
X152173000Y-105858000D01*
X152173000Y-104664181D01*
X151943108Y-104543514D01*
X151418642Y-104789817D01*
X151028355Y-105218076D01*
X150858524Y-105628110D01*
X150648440Y-105628110D01*
X150648440Y-103504000D01*
X150604162Y-103268683D01*
X150465090Y-103052559D01*
X150252890Y-102907569D01*
X150001000Y-102856560D01*
X147463183Y-102856560D01*
X147462038Y-102458195D01*
X150691802Y-102449998D01*
X150766100Y-102435023D01*
X150841876Y-102433566D01*
X151040110Y-102390157D01*
X151040112Y-102390156D01*
X151040113Y-102390156D01*
X151159900Y-102337818D01*
X151293965Y-102279242D01*
X151293966Y-102279241D01*
X151293968Y-102279240D01*
X151460500Y-102163273D01*
X151534051Y-102086838D01*
X151652586Y-101963655D01*
X151762062Y-101792789D01*
X151817980Y-101650091D01*
X151863136Y-101534857D01*
X151881755Y-101430838D01*
X153602560Y-98216066D01*
X153602560Y-99110000D01*
X153646838Y-99345317D01*
X153785910Y-99561441D01*
X153885860Y-99629734D01*
X153798559Y-99685910D01*
X153653569Y-99898110D01*
X153602560Y-100150000D01*
X153602560Y-101650000D01*
X153646838Y-101885317D01*
X153785910Y-102101441D01*
X153885860Y-102169734D01*
X153798559Y-102225910D01*
X153653569Y-102438110D01*
X153602560Y-102690000D01*
X153602560Y-104190000D01*
X153646838Y-104425317D01*
X153785910Y-104641441D01*
X153877769Y-104704206D01*
X153711673Y-104870301D01*
X153615000Y-105103690D01*
X153615000Y-105322751D01*
X153571645Y-105218076D01*
X153181358Y-104789817D01*
X152656892Y-104543514D01*
X152427000Y-104664181D01*
X152427000Y-105858000D01*
X153620155Y-105858000D01*
X153674939Y-105754189D01*
X153773750Y-105853000D01*
X155623000Y-105853000D01*
X155623000Y-105833000D01*
X155877000Y-105833000D01*
X155877000Y-105853000D01*
X157726250Y-105853000D01*
X157885000Y-105694250D01*
X157885000Y-105103690D01*
X157788327Y-104870301D01*
X157622751Y-104704726D01*
X157701441Y-104654090D01*
X157846431Y-104441890D01*
X157897440Y-104190000D01*
X157897440Y-102690000D01*
X157853162Y-102454683D01*
X157714090Y-102238559D01*
X157614140Y-102170266D01*
X157701441Y-102114090D01*
X157846431Y-101901890D01*
X157897440Y-101650000D01*
X157897440Y-100150000D01*
X157853162Y-99914683D01*
X157714090Y-99698559D01*
X157614140Y-99630266D01*
X157701441Y-99574090D01*
X157846431Y-99361890D01*
X157870102Y-99245000D01*
X158785395Y-99245000D01*
X158785400Y-99245001D01*
X159067884Y-99188810D01*
X159124075Y-99177633D01*
X159411190Y-98985790D01*
X162365000Y-96031979D01*
X162365000Y-98360000D01*
G36*
X168538215Y-97471095D02*
X168377622Y-97503039D01*
X167895853Y-97824946D01*
X167573946Y-98306715D01*
X167460907Y-98875000D01*
X167504461Y-99093960D01*
X167374338Y-99224083D01*
X167397440Y-99110000D01*
X167397440Y-97610000D01*
X167353162Y-97374683D01*
X167214090Y-97158559D01*
X167114140Y-97090266D01*
X167201441Y-97034090D01*
X167346431Y-96821890D01*
X167397440Y-96570000D01*
X167397440Y-96330320D01*
X168538215Y-97471095D01*
X168538215Y-97471095D01*
G37*
X168538215Y-97471095D02*
X168377622Y-97503039D01*
X167895853Y-97824946D01*
X167573946Y-98306715D01*
X167460907Y-98875000D01*
X167504461Y-99093960D01*
X167374338Y-99224083D01*
X167397440Y-99110000D01*
X167397440Y-97610000D01*
X167353162Y-97374683D01*
X167214090Y-97158559D01*
X167114140Y-97090266D01*
X167201441Y-97034090D01*
X167346431Y-96821890D01*
X167397440Y-96570000D01*
X167397440Y-96330320D01*
X168538215Y-97471095D01*
G36*
X167289445Y-93192612D02*
X171534706Y-95465018D01*
X173430247Y-97777560D01*
X172075000Y-97777560D01*
X171839683Y-97821838D01*
X171623559Y-97960910D01*
X171586064Y-98015785D01*
X167559290Y-93989010D01*
X167272175Y-93797167D01*
X167215984Y-93785990D01*
X166933500Y-93729799D01*
X166933495Y-93729800D01*
X162530605Y-93729800D01*
X162530600Y-93729799D01*
X162248116Y-93785990D01*
X162191925Y-93797167D01*
X161904810Y-93989010D01*
X161904808Y-93989013D01*
X158418820Y-97475000D01*
X157872038Y-97475000D01*
X157853162Y-97374683D01*
X157714090Y-97158559D01*
X157614140Y-97090266D01*
X157701441Y-97034090D01*
X157846431Y-96821890D01*
X157897440Y-96570000D01*
X157897440Y-95070000D01*
X157853162Y-94834683D01*
X157714090Y-94618559D01*
X157501890Y-94473569D01*
X157459395Y-94464964D01*
X157889038Y-94112795D01*
X162497725Y-92717775D01*
X167289445Y-93192612D01*
X167289445Y-93192612D01*
G37*
X167289445Y-93192612D02*
X171534706Y-95465018D01*
X173430247Y-97777560D01*
X172075000Y-97777560D01*
X171839683Y-97821838D01*
X171623559Y-97960910D01*
X171586064Y-98015785D01*
X167559290Y-93989010D01*
X167272175Y-93797167D01*
X167215984Y-93785990D01*
X166933500Y-93729799D01*
X166933495Y-93729800D01*
X162530605Y-93729800D01*
X162530600Y-93729799D01*
X162248116Y-93785990D01*
X162191925Y-93797167D01*
X161904810Y-93989010D01*
X161904808Y-93989013D01*
X158418820Y-97475000D01*
X157872038Y-97475000D01*
X157853162Y-97374683D01*
X157714090Y-97158559D01*
X157614140Y-97090266D01*
X157701441Y-97034090D01*
X157846431Y-96821890D01*
X157897440Y-96570000D01*
X157897440Y-95070000D01*
X157853162Y-94834683D01*
X157714090Y-94618559D01*
X157501890Y-94473569D01*
X157459395Y-94464964D01*
X157889038Y-94112795D01*
X162497725Y-92717775D01*
X167289445Y-93192612D01*
M02*
