G04 #@! TF.FileFunction,Legend,Top*
%FSLAX46Y46*%
G04 Gerber Fmt 4.6, Leading zero omitted, Abs format (unit mm)*
G04 Created by KiCad (PCBNEW 4.0.1-stable) date 2019/03/03 15:39:44*
%MOMM*%
G01*
G04 APERTURE LIST*
%ADD10C,0.100000*%
%ADD11C,0.150000*%
%ADD12C,0.300000*%
%ADD13C,0.375000*%
%ADD14C,0.120000*%
G04 APERTURE END LIST*
D10*
D11*
X174921429Y-102160715D02*
X174921429Y-102503572D01*
X174921429Y-102332144D02*
X174321429Y-102332144D01*
X174407143Y-102389287D01*
X174464286Y-102446429D01*
X174492857Y-102503572D01*
X174378571Y-101932143D02*
X174350000Y-101903572D01*
X174321429Y-101846429D01*
X174321429Y-101703572D01*
X174350000Y-101646429D01*
X174378571Y-101617858D01*
X174435714Y-101589286D01*
X174492857Y-101589286D01*
X174578571Y-101617858D01*
X174921429Y-101960715D01*
X174921429Y-101589286D01*
X174321429Y-101217857D02*
X174321429Y-101160714D01*
X174350000Y-101103571D01*
X174378571Y-101075000D01*
X174435714Y-101046429D01*
X174550000Y-101017857D01*
X174692857Y-101017857D01*
X174807143Y-101046429D01*
X174864286Y-101075000D01*
X174892857Y-101103571D01*
X174921429Y-101160714D01*
X174921429Y-101217857D01*
X174892857Y-101275000D01*
X174864286Y-101303571D01*
X174807143Y-101332143D01*
X174692857Y-101360714D01*
X174550000Y-101360714D01*
X174435714Y-101332143D01*
X174378571Y-101303571D01*
X174350000Y-101275000D01*
X174321429Y-101217857D01*
X174321429Y-100503571D02*
X174321429Y-100617857D01*
X174350000Y-100675000D01*
X174378571Y-100703571D01*
X174464286Y-100760714D01*
X174578571Y-100789285D01*
X174807143Y-100789285D01*
X174864286Y-100760714D01*
X174892857Y-100732142D01*
X174921429Y-100675000D01*
X174921429Y-100560714D01*
X174892857Y-100503571D01*
X174864286Y-100475000D01*
X174807143Y-100446428D01*
X174664286Y-100446428D01*
X174607143Y-100475000D01*
X174578571Y-100503571D01*
X174550000Y-100560714D01*
X174550000Y-100675000D01*
X174578571Y-100732142D01*
X174607143Y-100760714D01*
X174664286Y-100789285D01*
D12*
X174328572Y-105907143D02*
X175471429Y-105907143D01*
X174900000Y-106478571D02*
X174900000Y-105335714D01*
D13*
X160760715Y-93467857D02*
X160975001Y-93539286D01*
X161046429Y-93610714D01*
X161117858Y-93753571D01*
X161117858Y-93967857D01*
X161046429Y-94110714D01*
X160975001Y-94182143D01*
X160832143Y-94253571D01*
X160260715Y-94253571D01*
X160260715Y-92753571D01*
X160760715Y-92753571D01*
X160903572Y-92825000D01*
X160975001Y-92896429D01*
X161046429Y-93039286D01*
X161046429Y-93182143D01*
X160975001Y-93325000D01*
X160903572Y-93396429D01*
X160760715Y-93467857D01*
X160260715Y-93467857D01*
X162332143Y-94182143D02*
X162189286Y-94253571D01*
X161903572Y-94253571D01*
X161760715Y-94182143D01*
X161689286Y-94039286D01*
X161689286Y-93467857D01*
X161760715Y-93325000D01*
X161903572Y-93253571D01*
X162189286Y-93253571D01*
X162332143Y-93325000D01*
X162403572Y-93467857D01*
X162403572Y-93610714D01*
X161689286Y-93753571D01*
X163689286Y-94253571D02*
X163689286Y-93467857D01*
X163617857Y-93325000D01*
X163475000Y-93253571D01*
X163189286Y-93253571D01*
X163046429Y-93325000D01*
X163689286Y-94182143D02*
X163546429Y-94253571D01*
X163189286Y-94253571D01*
X163046429Y-94182143D01*
X162975000Y-94039286D01*
X162975000Y-93896429D01*
X163046429Y-93753571D01*
X163189286Y-93682143D01*
X163546429Y-93682143D01*
X163689286Y-93610714D01*
X165046429Y-94182143D02*
X164903572Y-94253571D01*
X164617858Y-94253571D01*
X164475000Y-94182143D01*
X164403572Y-94110714D01*
X164332143Y-93967857D01*
X164332143Y-93539286D01*
X164403572Y-93396429D01*
X164475000Y-93325000D01*
X164617858Y-93253571D01*
X164903572Y-93253571D01*
X165046429Y-93325000D01*
X165903572Y-94253571D02*
X165760714Y-94182143D01*
X165689286Y-94110714D01*
X165617857Y-93967857D01*
X165617857Y-93539286D01*
X165689286Y-93396429D01*
X165760714Y-93325000D01*
X165903572Y-93253571D01*
X166117857Y-93253571D01*
X166260714Y-93325000D01*
X166332143Y-93396429D01*
X166403572Y-93539286D01*
X166403572Y-93967857D01*
X166332143Y-94110714D01*
X166260714Y-94182143D01*
X166117857Y-94253571D01*
X165903572Y-94253571D01*
X167046429Y-93253571D02*
X167046429Y-94253571D01*
X167046429Y-93396429D02*
X167117857Y-93325000D01*
X167260715Y-93253571D01*
X167475000Y-93253571D01*
X167617857Y-93325000D01*
X167689286Y-93467857D01*
X167689286Y-94253571D01*
D11*
X170211109Y-110517519D02*
X170229222Y-110606036D01*
X170300650Y-110729754D01*
X170353966Y-110764955D01*
X170392994Y-110775413D01*
X170456768Y-110771585D01*
X170506255Y-110743014D01*
X170541456Y-110689698D01*
X170551914Y-110650669D01*
X170548087Y-110586896D01*
X170515687Y-110473636D01*
X170511860Y-110409864D01*
X170522317Y-110370834D01*
X170557519Y-110317519D01*
X170607006Y-110288948D01*
X170670779Y-110285119D01*
X170709808Y-110295578D01*
X170763122Y-110330779D01*
X170834551Y-110454498D01*
X170852665Y-110543014D01*
X170977408Y-110701933D02*
X170529222Y-111125651D01*
X170957519Y-111010340D01*
X170643508Y-111323600D01*
X171234551Y-111147318D01*
X170829222Y-111645266D02*
X171348837Y-111345266D01*
X171420265Y-111468984D01*
X171438380Y-111557501D01*
X171417463Y-111635559D01*
X171382262Y-111688874D01*
X171297574Y-111770760D01*
X171223342Y-111813618D01*
X171110083Y-111846017D01*
X171046310Y-111849844D01*
X170968252Y-111828929D01*
X170900650Y-111768984D01*
X170829222Y-111645266D01*
X171129222Y-112164881D02*
X171648837Y-111864881D01*
X170007537Y-107581429D02*
X170025650Y-107669946D01*
X170097079Y-107793664D01*
X170150394Y-107828865D01*
X170189423Y-107839323D01*
X170253196Y-107835495D01*
X170302683Y-107806924D01*
X170337885Y-107753608D01*
X170348342Y-107714579D01*
X170344515Y-107650806D01*
X170312115Y-107537546D01*
X170308288Y-107473774D01*
X170318746Y-107434744D01*
X170353947Y-107381429D01*
X170403435Y-107352858D01*
X170467207Y-107349030D01*
X170506237Y-107359488D01*
X170559551Y-107394689D01*
X170630980Y-107518408D01*
X170649094Y-107606924D01*
X170773837Y-107765843D02*
X170325650Y-108189561D01*
X170753947Y-108074250D01*
X170439936Y-108387510D01*
X171030980Y-108211228D01*
X170625650Y-108709176D02*
X171145265Y-108409176D01*
X171216694Y-108532894D01*
X171234808Y-108621411D01*
X171213892Y-108699469D01*
X171178691Y-108752785D01*
X171094002Y-108834670D01*
X171019771Y-108877528D01*
X170906512Y-108909927D01*
X170842738Y-108913754D01*
X170764680Y-108892840D01*
X170697079Y-108832894D01*
X170625650Y-108709176D01*
X171146566Y-109497143D02*
X171107537Y-109486685D01*
X171039936Y-109426741D01*
X171011365Y-109377253D01*
X170993251Y-109288736D01*
X171014167Y-109210678D01*
X171049369Y-109157363D01*
X171134057Y-109075477D01*
X171208288Y-109032619D01*
X171321548Y-109000220D01*
X171385321Y-108996393D01*
X171463379Y-109017308D01*
X171530980Y-109077253D01*
X171559551Y-109126741D01*
X171577665Y-109215257D01*
X171567207Y-109254285D01*
X170589936Y-101374112D02*
X170737372Y-101058049D01*
X170418507Y-101077189D02*
X170938122Y-100777189D01*
X171052408Y-100975138D01*
X171056236Y-101038910D01*
X171045779Y-101077940D01*
X171010577Y-101131254D01*
X170936346Y-101174112D01*
X170872574Y-101177940D01*
X170833544Y-101167482D01*
X170780230Y-101132281D01*
X170665944Y-100934332D01*
X171209551Y-101247317D02*
X170889936Y-101893727D01*
X171409551Y-101593727D02*
X170689936Y-101547317D01*
X170730979Y-98239817D02*
X170902408Y-98536740D01*
X170297078Y-98688278D02*
X170816693Y-98388278D01*
X170973836Y-98660458D02*
X170654221Y-99306868D01*
X171173836Y-99006868D02*
X170454221Y-98960458D01*
X150925000Y-105592858D02*
X150953571Y-105535715D01*
X150953571Y-105450001D01*
X150925000Y-105364286D01*
X150867857Y-105307144D01*
X150810714Y-105278572D01*
X150696429Y-105250001D01*
X150610714Y-105250001D01*
X150496429Y-105278572D01*
X150439286Y-105307144D01*
X150382143Y-105364286D01*
X150353571Y-105450001D01*
X150353571Y-105507144D01*
X150382143Y-105592858D01*
X150410714Y-105621429D01*
X150610714Y-105621429D01*
X150610714Y-105507144D01*
X150353571Y-105878572D02*
X150953571Y-105878572D01*
X150353571Y-106221429D01*
X150953571Y-106221429D01*
X150353571Y-106507143D02*
X150953571Y-106507143D01*
X150953571Y-106650000D01*
X150925000Y-106735715D01*
X150867857Y-106792857D01*
X150810714Y-106821429D01*
X150696429Y-106850000D01*
X150610714Y-106850000D01*
X150496429Y-106821429D01*
X150439286Y-106792857D01*
X150382143Y-106735715D01*
X150353571Y-106650000D01*
X150353571Y-106507143D01*
X150928571Y-107714285D02*
X150928571Y-108085714D01*
X150700000Y-107885714D01*
X150700000Y-107971428D01*
X150671429Y-108028571D01*
X150642857Y-108057142D01*
X150585714Y-108085714D01*
X150442857Y-108085714D01*
X150385714Y-108057142D01*
X150357143Y-108028571D01*
X150328571Y-107971428D01*
X150328571Y-107800000D01*
X150357143Y-107742857D01*
X150385714Y-107714285D01*
X150385714Y-108342857D02*
X150357143Y-108371429D01*
X150328571Y-108342857D01*
X150357143Y-108314286D01*
X150385714Y-108342857D01*
X150328571Y-108342857D01*
X150928571Y-108571428D02*
X150928571Y-108942857D01*
X150700000Y-108742857D01*
X150700000Y-108828571D01*
X150671429Y-108885714D01*
X150642857Y-108914285D01*
X150585714Y-108942857D01*
X150442857Y-108942857D01*
X150385714Y-108914285D01*
X150357143Y-108885714D01*
X150328571Y-108828571D01*
X150328571Y-108657143D01*
X150357143Y-108600000D01*
X150385714Y-108571428D01*
X150928571Y-109114286D02*
X150328571Y-109314286D01*
X150928571Y-109514286D01*
D12*
X160300000Y-99582143D02*
X160300000Y-100296429D01*
X159871429Y-99439286D02*
X161371429Y-99939286D01*
X159871429Y-100439286D01*
X160657143Y-100939286D02*
X160657143Y-101439286D01*
X159871429Y-101653572D02*
X159871429Y-100939286D01*
X161371429Y-100939286D01*
X161371429Y-101653572D01*
X160442857Y-102296429D02*
X160442857Y-103439286D01*
X161371429Y-103939286D02*
X161371429Y-104796429D01*
X159871429Y-104367858D02*
X161371429Y-104367858D01*
X160585714Y-105582143D02*
X159871429Y-105582143D01*
X161371429Y-105082143D02*
X160585714Y-105582143D01*
X161371429Y-106082143D01*
X160657143Y-107082143D02*
X160585714Y-107296429D01*
X160514286Y-107367857D01*
X160371429Y-107439286D01*
X160157143Y-107439286D01*
X160014286Y-107367857D01*
X159942857Y-107296429D01*
X159871429Y-107153571D01*
X159871429Y-106582143D01*
X161371429Y-106582143D01*
X161371429Y-107082143D01*
X161300000Y-107225000D01*
X161228571Y-107296429D01*
X161085714Y-107367857D01*
X160942857Y-107367857D01*
X160800000Y-107296429D01*
X160728571Y-107225000D01*
X160657143Y-107082143D01*
X160657143Y-106582143D01*
X159871429Y-108796429D02*
X159871429Y-108082143D01*
X161371429Y-108082143D01*
X160657143Y-109296429D02*
X160657143Y-109796429D01*
X159871429Y-110010715D02*
X159871429Y-109296429D01*
X161371429Y-109296429D01*
X161371429Y-110010715D01*
X159871429Y-111439286D02*
X159871429Y-110582143D01*
X159871429Y-111010715D02*
X161371429Y-111010715D01*
X161157143Y-110867858D01*
X161014286Y-110725000D01*
X160942857Y-110582143D01*
X161371429Y-112725000D02*
X161371429Y-112439286D01*
X161300000Y-112296429D01*
X161228571Y-112225000D01*
X161014286Y-112082143D01*
X160728571Y-112010714D01*
X160157143Y-112010714D01*
X160014286Y-112082143D01*
X159942857Y-112153571D01*
X159871429Y-112296429D01*
X159871429Y-112582143D01*
X159942857Y-112725000D01*
X160014286Y-112796429D01*
X160157143Y-112867857D01*
X160514286Y-112867857D01*
X160657143Y-112796429D01*
X160728571Y-112725000D01*
X160800000Y-112582143D01*
X160800000Y-112296429D01*
X160728571Y-112153571D01*
X160657143Y-112082143D01*
X160514286Y-112010714D01*
D14*
X170270000Y-111025000D02*
X170270000Y-112295000D01*
X170270000Y-112295000D02*
X169000000Y-112295000D01*
X170245000Y-101415000D02*
X170245000Y-102685000D01*
X170245000Y-102685000D02*
X168975000Y-102685000D01*
X153570000Y-108525000D02*
X153570000Y-109795000D01*
X153570000Y-109795000D02*
X152300000Y-109795000D01*
D11*
X164650000Y-118050000D02*
X164650000Y-94550000D01*
X164650000Y-94550000D02*
X156350000Y-94550000D01*
X156350000Y-94550000D02*
X156350000Y-118050000D01*
X156350000Y-118050000D02*
X164650000Y-118050000D01*
D14*
X171975000Y-111400000D02*
X173875000Y-111400000D01*
X173875000Y-111400000D02*
X173875000Y-106700000D01*
X171975000Y-111400000D02*
X171975000Y-106700000D01*
X173995000Y-100425000D02*
X173995000Y-102425000D01*
X171855000Y-102425000D02*
X171855000Y-100425000D01*
D11*
X168286905Y-113652381D02*
X168286905Y-112652381D01*
X168667858Y-112652381D01*
X168763096Y-112700000D01*
X168810715Y-112747619D01*
X168858334Y-112842857D01*
X168858334Y-112985714D01*
X168810715Y-113080952D01*
X168763096Y-113128571D01*
X168667858Y-113176190D01*
X168286905Y-113176190D01*
X169239286Y-112747619D02*
X169286905Y-112700000D01*
X169382143Y-112652381D01*
X169620239Y-112652381D01*
X169715477Y-112700000D01*
X169763096Y-112747619D01*
X169810715Y-112842857D01*
X169810715Y-112938095D01*
X169763096Y-113080952D01*
X169191667Y-113652381D01*
X169810715Y-113652381D01*
X168186905Y-97377381D02*
X168186905Y-96377381D01*
X168567858Y-96377381D01*
X168663096Y-96425000D01*
X168710715Y-96472619D01*
X168758334Y-96567857D01*
X168758334Y-96710714D01*
X168710715Y-96805952D01*
X168663096Y-96853571D01*
X168567858Y-96901190D01*
X168186905Y-96901190D01*
X169091667Y-96377381D02*
X169710715Y-96377381D01*
X169377381Y-96758333D01*
X169520239Y-96758333D01*
X169615477Y-96805952D01*
X169663096Y-96853571D01*
X169710715Y-96948810D01*
X169710715Y-97186905D01*
X169663096Y-97282143D01*
X169615477Y-97329762D01*
X169520239Y-97377381D01*
X169234524Y-97377381D01*
X169139286Y-97329762D01*
X169091667Y-97282143D01*
X151611905Y-111152381D02*
X151611905Y-110152381D01*
X151992858Y-110152381D01*
X152088096Y-110200000D01*
X152135715Y-110247619D01*
X152183334Y-110342857D01*
X152183334Y-110485714D01*
X152135715Y-110580952D01*
X152088096Y-110628571D01*
X151992858Y-110676190D01*
X151611905Y-110676190D01*
X153135715Y-111152381D02*
X152564286Y-111152381D01*
X152850000Y-111152381D02*
X152850000Y-110152381D01*
X152754762Y-110295238D01*
X152659524Y-110390476D01*
X152564286Y-110438095D01*
X172186905Y-112752381D02*
X172186905Y-111752381D01*
X172425000Y-111752381D01*
X172567858Y-111800000D01*
X172663096Y-111895238D01*
X172710715Y-111990476D01*
X172758334Y-112180952D01*
X172758334Y-112323810D01*
X172710715Y-112514286D01*
X172663096Y-112609524D01*
X172567858Y-112704762D01*
X172425000Y-112752381D01*
X172186905Y-112752381D01*
X173710715Y-112752381D02*
X173139286Y-112752381D01*
X173425000Y-112752381D02*
X173425000Y-111752381D01*
X173329762Y-111895238D01*
X173234524Y-111990476D01*
X173139286Y-112038095D01*
X172658334Y-97877381D02*
X172325000Y-97401190D01*
X172086905Y-97877381D02*
X172086905Y-96877381D01*
X172467858Y-96877381D01*
X172563096Y-96925000D01*
X172610715Y-96972619D01*
X172658334Y-97067857D01*
X172658334Y-97210714D01*
X172610715Y-97305952D01*
X172563096Y-97353571D01*
X172467858Y-97401190D01*
X172086905Y-97401190D01*
X173610715Y-97877381D02*
X173039286Y-97877381D01*
X173325000Y-97877381D02*
X173325000Y-96877381D01*
X173229762Y-97020238D01*
X173134524Y-97115476D01*
X173039286Y-97163095D01*
M02*
