M48
;DRILL file {KiCad 4.0.1-stable} date 2019/04/09 1:16:37
;FORMAT={-:-/ absolute / inch / decimal}
FMAT,2
INCH,TZ
T1C0.016
T2C0.039
T3C0.073
%
G90
G05
M72
T1
X3.9961Y-2.6791
X4.0059Y-3.1161
X4.0059Y-3.3445
X4.0433Y-2.2362
X4.1201Y-2.6417
X4.1201Y-3.2244
X4.124Y-3.122
X4.2008Y-3.7087
X4.2067Y-2.0276
X4.2362Y-3.2283
X4.3169Y-3.1083
X4.3602Y-3.7106
X4.4055Y-3.2421
X4.4449Y-3.1535
X4.502Y-2.8051
X4.5256Y-3.2461
X4.5531Y-3.1575
X4.5807Y-3.6752
X4.626Y-3.2441
X4.6457Y-3.1654
X4.7264Y-3.6732
X4.7402Y-2.8071
X4.7697Y-3.2461
X4.7736Y-3.1634
X4.7933Y-3.4232
X4.8406Y-3.6732
X4.872Y-2.0354
X4.872Y-3.2283
X4.8976Y-3.3248
X4.9567Y-2.1969
X4.9665Y-2.4941
X4.9764Y-2.8031
X4.9882Y-3.3248
T2
X4.Y-2.8272
X4.Y-2.9272
X4.2067Y-3.5083
X4.2067Y-3.6083
X4.3067Y-3.5083
X4.3067Y-3.6083
X4.4067Y-3.5083
X4.4067Y-3.6083
X4.5067Y-3.5083
X4.5067Y-3.6083
X4.6067Y-3.5083
X4.6067Y-3.6083
X4.7067Y-3.5083
X4.7067Y-3.6083
X4.8067Y-3.5083
X4.8067Y-3.6083
X4.9217Y-2.9508
X4.9217Y-3.0508
X4.9232Y-3.3917
X5.0217Y-2.9508
X5.0217Y-3.0508
X5.0232Y-3.3917
T3
X4.0039Y-2.3524
X5.0039Y-2.3524
T0
M30
